<?xml version="1.0" encoding="utf-8" standalone="no"?>
<!DOCTYPE svg PUBLIC "-//W3C//DTD SVG 1.1//EN"
  "http://www.w3.org/Graphics/SVG/1.1/DTD/svg11.dtd">
<svg xmlns:xlink="http://www.w3.org/1999/xlink" width="460.8pt" height="345.6pt" viewBox="0 0 460.8 345.6" xmlns="http://www.w3.org/2000/svg" version="1.1">
 <metadata>
  <rdf:RDF xmlns:dc="http://purl.org/dc/elements/1.1/" xmlns:cc="http://creativecommons.org/ns#" xmlns:rdf="http://www.w3.org/1999/02/22-rdf-syntax-ns#">
   <cc:Work>
    <dc:type rdf:resource="http://purl.org/dc/dcmitype/StillImage"/>
    <dc:date>2023-11-01T13:48:39.435589</dc:date>
    <dc:format>image/svg+xml</dc:format>
    <dc:creator>
     <cc:Agent>
      <dc:title>Matplotlib v3.5.2, https://matplotlib.org/</dc:title>
     </cc:Agent>
    </dc:creator>
   </cc:Work>
  </rdf:RDF>
 </metadata>
 <defs>
  <style type="text/css">*{stroke-linejoin: round; stroke-linecap: butt}</style>
 </defs>
 <g id="figure_1">
  <g id="patch_1">
   <path d="M 0 345.6 
L 460.8 345.6 
L 460.8 0 
L 0 0 
z
" style="fill: #ffffff"/>
  </g>
  <g id="axes_1">
   <g id="patch_2">
    <path d="M 40.721047 331.3 
L 420.078953 331.3 
L 420.078953 10.8 
L 40.721047 10.8 
z
" style="fill: #ffffff"/>
   </g>
   <g id="matplotlib.axis_1"/>
   <g id="matplotlib.axis_2"/>
   <g id="line2d_1">
    <path d="M 168.015761 39.100145 
L 176.116679 39.574045 
L 184.271279 39.841921 
L 192.542871 39.865606 
L 200.970516 39.634625 
L 209.56903 39.166206 
L 222.759922 38.124226 
L 240.654489 36.555438 
L 249.555159 35.974376 
L 258.276407 35.743536 
L 262.531631 35.812517 
L 266.698378 36.029251 
L 270.764581 36.409816 
L 274.719445 36.968263 
L 278.553444 37.716612 
L 282.258327 38.664858 
L 285.827113 39.820966 
L 289.254092 41.190871 
L 292.534827 42.778484 
L 295.666153 44.585684 
L 298.646175 46.612323 
L 301.47427 48.856225 
L 304.151089 51.313186 
L 306.678551 53.976971 
L 309.05985 56.839321 
L 311.299449 59.889945 
L 313.403085 63.116527 
L 315.377731 66.504784 
L 317.23104 70.039516 
L 318.970619 73.705975 
L 320.603931 77.490038 
L 322.138298 81.378212 
L 324.938766 89.416055 
L 327.427746 97.724111 
L 329.658677 106.217031 
L 331.682724 114.81951 
L 334.437199 127.788646 
L 342.95593 169.853081 
L 344.829168 177.890862 
L 346.838407 185.803688 
L 349.013163 193.61168 
L 351.380673 201.345008 
L 353.965894 209.043886 
L 356.791507 216.758573 
L 359.8769 224.548168 
L 363.22167 232.46103 
L 368.621009 244.576009 
L 375.962356 260.933553 
L 379.311518 268.966842 
L 380.807016 272.879889 
L 382.138108 276.691581 
L 383.267553 280.374569 
L 384.155329 283.898999 
L 384.758633 287.232512 
L 385.031882 290.340245 
L 384.926855 293.184916 
L 384.397454 295.7297 
L 383.409374 297.944064 
L 381.942205 299.805035 
L 379.989436 301.297206 
L 377.558453 302.412735 
L 374.670546 303.151344 
L 371.360904 303.520319 
L 367.678615 303.534513 
L 363.686666 303.216341 
L 359.460946 302.595421 
L 355.079122 301.704522 
L 350.609437 300.57549 
L 346.10968 299.238868 
L 341.627191 297.723902 
L 337.198855 296.058537 
L 332.851104 294.269419 
L 324.450829 290.420005 
L 316.432014 286.362639 
L 293.715402 274.411979 
L 286.298394 270.837168 
L 278.840446 267.55593 
L 271.286742 264.574829 
L 263.593335 261.869123 
L 255.727148 259.382766 
L 243.558882 255.865616 
L 230.966779 252.264452 
L 222.436 249.648622 
L 213.936902 246.767968 
L 205.644766 243.562481 
L 201.644412 241.823914 
L 197.783616 239.989496 
L 194.097997 238.056604 
L 190.626222 236.023699 
L 187.410002 233.890327 
L 184.494098 231.65712 
L 181.926315 229.32579 
L 179.757505 226.899138 
L 178.041524 224.381059 
L 176.831848 221.777632 
L 176.171202 219.100443 
L 176.088086 216.367698 
L 176.596724 213.604237 
L 177.697071 210.841538 
L 179.374807 208.117712 
L 181.601339 205.477505 
L 184.333802 202.972301 
L 187.515058 200.660117 
L 191.0741 198.605223 
L 194.93419 196.870464 
L 199.025242 195.505567 
L 203.285742 194.545329 
L 207.662748 194.009618 
L 212.111892 193.903372 
L 216.597379 194.216598 
L 221.091985 194.924373 
L 225.577062 195.986845 
L 230.042516 197.34926 
L 234.485187 198.945184 
L 243.293351 202.574376 
L 256.253023 208.230195 
L 260.482459 209.965385 
L 264.654043 211.551274 
L 268.758658 212.949392 
L 272.786157 214.125324 
L 276.725366 215.048713 
L 280.564082 215.693261 
L 284.289074 216.036725 
L 287.886083 216.060918 
L 291.339821 215.751713 
L 294.633971 215.099037 
L 297.751188 214.096876 
L 300.673101 212.743272 
L 303.380308 211.040324 
L 305.852863 208.99411 
L 308.072217 206.61437 
L 310.02209 203.914364 
L 311.68849 200.910872 
L 313.059711 197.624188 
L 314.126337 194.078128 
L 314.881239 190.300021 
L 315.319576 186.320717 
L 315.438794 182.174582 
L 315.238629 177.8995 
L 314.721102 173.536873 
L 313.890525 169.13162 
L 312.753495 164.732178 
L 311.318899 160.3905 
L 309.597912 156.16206 
L 307.603994 152.105846 
L 305.352897 148.284366 
L 302.862657 144.763644 
L 300.1536 141.613214 
L 297.247887 138.903304 
L 294.167385 136.691469 
L 290.932588 135.015842 
L 287.562583 133.894913 
L 284.075052 133.327532 
L 280.486267 133.292909 
L 276.811095 133.750614 
L 273.062995 134.640575 
L 269.254022 135.88308 
L 265.394822 137.378994 
L 253.603647 142.345463 
L 249.625894 143.877991 
L 245.633711 145.245205 
L 241.631051 146.407273 
L 237.620797 147.339343 
L 233.604771 148.031543 
L 229.583726 148.488979 
L 225.557463 148.730077 
L 221.525451 148.777443 
L 217.487185 148.652594 
L 213.4422 148.375742 
L 209.390073 147.9658 
L 201.262898 146.815773 
L 193.103081 145.327754 
L 184.90869 143.606142 
L 172.549649 140.76283 
L 147.587029 134.719775 
L 130.816557 130.520009 
L 122.477194 128.28722 
L 114.255664 125.888125 
L 106.245484 123.242465 
L 102.355016 121.797283 
L 98.562632 120.252394 
L 94.886338 118.592818 
L 91.345547 116.802478 
L 87.961072 114.864196 
L 84.755131 112.759697 
L 81.751348 110.469605 
L 78.974749 107.973445 
L 76.451484 105.250401 
L 74.206639 102.28524 
L 72.262559 99.072866 
L 70.638733 95.618603 
L 69.351804 91.938202 
L 68.415563 88.057833 
L 67.840951 84.014091 
L 67.636056 79.853992 
L 67.80612 75.634978 
L 68.35353 71.424879 
L 69.277681 67.298301 
L 70.574469 63.323761 
L 72.236101 59.558718 
L 74.251086 56.049475 
L 76.604238 52.831184 
L 79.276674 49.92784 
L 82.245819 47.352286 
L 85.485398 45.106211 
L 88.965442 43.18015 
L 92.652621 41.554128 
L 96.513282 40.20353 
L 100.51608 39.104174 
L 104.632173 38.232692 
L 108.835221 37.566527 
L 113.101388 37.083933 
L 117.409342 36.76398 
L 121.740252 36.586547 
L 130.40814 36.582827 
L 139.004476 36.928064 
L 151.643377 37.81565 
L 163.959188 38.805401 
L 163.959188 38.805401 
" clip-path="url(#pd96ddb7fc9)" style="fill: none; stroke: #0000ff; stroke-width: 2; stroke-linecap: square"/>
   </g>
   <g id="line2d_2">
    <path d="M 168.059245 38.421039 
L 170.767257 38.280506 
L 176.154238 37.491457 
L 186.919743 35.941295 
L 195.01811 34.980834 
L 203.139117 34.230316 
L 211.277811 33.684067 
L 222.15126 33.22247 
L 233.02538 32.998883 
L 246.627802 32.948963 
L 254.785986 33.071114 
L 260.222397 33.331663 
L 265.638956 33.81118 
L 271.016987 34.560315 
L 276.359884 35.622664 
L 281.612468 37.021918 
L 286.751912 38.782988 
L 289.270146 39.808688 
L 291.745154 40.937084 
L 294.165026 42.172315 
L 296.522843 43.523257 
L 298.806861 44.998115 
L 301.001889 46.599704 
L 303.104173 48.323206 
L 305.114481 50.157215 
L 307.028303 52.082938 
L 308.853865 54.095893 
L 312.244991 58.348328 
L 315.296465 62.848558 
L 318.030414 67.546004 
L 320.488599 72.401643 
L 322.723098 77.35968 
L 325.810807 84.912882 
L 328.670863 92.553576 
L 331.304822 100.273724 
L 333.722078 108.066289 
L 335.938235 115.919055 
L 337.976127 123.819408 
L 340.468526 134.408163 
L 343.338704 147.697967 
L 350.075851 179.627676 
L 352.574503 190.212763 
L 354.631413 198.105443 
L 356.886827 205.943326 
L 359.35803 213.715616 
L 362.070231 221.407127 
L 365.045314 229.002629 
L 368.287239 236.490593 
L 371.801638 243.856265 
L 375.595098 251.080148 
L 379.661742 258.153892 
L 383.804544 265.190701 
L 385.101254 267.579515 
L 386.296617 270.021946 
L 387.35126 272.53473 
L 388.216149 275.102037 
L 388.854877 277.7498 
L 389.20616 280.446276 
L 389.231141 283.157284 
L 388.911043 285.862535 
L 388.246784 288.517553 
L 387.26154 291.056848 
L 385.987258 293.426984 
L 384.411635 295.640089 
L 382.576177 297.641548 
L 378.578647 301.22284 
L 376.385371 302.825017 
L 374.004654 304.185114 
L 371.461425 305.254153 
L 368.87781 305.984929 
L 366.186515 306.40871 
L 363.447959 306.526728 
L 360.753467 306.374706 
L 358.047242 306.003688 
L 355.38338 305.468187 
L 350.12382 304.052769 
L 344.945242 302.380823 
L 337.27295 299.599745 
L 329.685251 296.589884 
L 319.664429 292.360905 
L 307.226002 286.871972 
L 270.009133 270.196198 
L 259.919457 266.144635 
L 247.207333 261.317477 
L 234.406096 256.72347 
L 216.395652 250.558622 
L 198.394191 244.350458 
L 193.288903 242.468112 
L 190.780631 241.411919 
L 188.349297 240.212728 
L 186.007814 238.809989 
L 183.827717 237.19266 
L 181.841314 235.347098 
L 180.072939 233.267477 
L 178.569417 230.999112 
L 177.350255 228.586569 
L 176.404715 226.0232 
L 175.75055 223.373256 
L 175.39244 220.686031 
L 175.331775 217.987921 
L 175.54233 215.298763 
L 175.986149 212.627334 
L 176.671165 209.983387 
L 177.606847 207.437587 
L 178.803211 205.01581 
L 180.279401 202.719008 
L 182.014378 200.605496 
L 183.959987 198.729472 
L 186.127016 197.068121 
L 188.44951 195.657463 
L 190.903262 194.485402 
L 193.463228 193.544136 
L 196.083182 192.831719 
L 198.759946 192.330501 
L 201.462545 192.030396 
L 204.181137 191.915707 
L 206.898752 191.971774 
L 209.611567 192.183821 
L 212.304495 192.537079 
L 214.98208 193.019475 
L 220.258611 194.322326 
L 225.426908 196.013002 
L 230.475511 198.028534 
L 235.408505 200.31579 
L 240.24431 202.807581 
L 259.416005 213.089236 
L 264.400023 215.282248 
L 266.944093 216.237598 
L 269.537378 217.077108 
L 272.154825 217.777198 
L 274.825086 218.332104 
L 277.518051 218.724865 
L 280.214188 218.947556 
L 282.945985 218.996836 
L 285.663994 218.867177 
L 288.354576 218.559292 
L 291.03251 218.069237 
L 293.671715 217.397177 
L 296.248785 216.544066 
L 298.753097 215.503879 
L 301.170643 214.263108 
L 303.467162 212.809356 
L 305.605199 211.136573 
L 307.567875 209.259975 
L 309.353744 207.208372 
L 310.959229 205.015743 
L 312.381561 202.708924 
L 313.625295 200.294011 
L 314.687407 197.781469 
L 315.555252 195.209617 
L 316.232501 192.583535 
L 316.723362 189.900785 
L 317.026888 187.199453 
L 317.152435 184.488932 
L 317.111152 181.759265 
L 316.917618 179.053463 
L 316.588327 176.352869 
L 315.604895 171.003318 
L 314.30586 165.718727 
L 312.681377 160.5256 
L 311.704315 157.984308 
L 310.59768 155.502681 
L 309.342064 153.083375 
L 307.934521 150.755507 
L 306.368952 148.534037 
L 304.634576 146.424895 
L 302.760808 144.47336 
L 300.717035 142.655582 
L 298.541674 141.009274 
L 296.271086 139.552853 
L 293.8727 138.258167 
L 291.387932 137.143287 
L 288.845542 136.219025 
L 286.24201 135.4926 
L 283.577538 134.964917 
L 280.880539 134.620201 
L 278.18736 134.448755 
L 275.468396 134.445383 
L 272.732122 134.612042 
L 270.042304 134.941254 
L 267.362214 135.431139 
L 264.709853 136.073292 
L 262.106069 136.852487 
L 257.010807 138.75694 
L 252.034866 140.958581 
L 244.593629 144.300819 
L 239.496241 146.196046 
L 234.265418 147.669075 
L 228.942791 148.773759 
L 223.562355 149.552027 
L 218.143728 150.022086 
L 212.707972 150.196947 
L 207.271678 150.09025 
L 201.845391 149.718369 
L 196.440989 149.102249 
L 191.067671 148.268654 
L 185.72547 147.249379 
L 177.767108 145.456499 
L 143.404467 137.155953 
L 130.180456 133.990957 
L 119.661717 131.216202 
L 111.825675 128.943082 
L 106.647972 127.275775 
L 101.555924 125.371042 
L 96.602408 123.126104 
L 94.199228 121.8527 
L 91.855147 120.468793 
L 89.586852 118.975078 
L 87.394793 117.363366 
L 85.291483 115.63445 
L 83.293956 113.795362 
L 81.404225 111.840121 
L 79.63397 109.770585 
L 78.000415 107.60075 
L 76.503147 105.337909 
L 75.129095 102.987573 
L 73.878424 100.577717 
L 72.741384 98.111211 
L 71.71634 95.592132 
L 70.811889 93.03613 
L 70.031403 90.432718 
L 69.385528 87.780858 
L 68.892851 85.116572 
L 68.558719 82.417351 
L 68.395412 79.694432 
L 68.412476 76.979451 
L 68.615574 74.263917 
L 69.007053 71.572799 
L 69.588077 68.911676 
L 70.353891 66.300355 
L 71.296622 63.756723 
L 72.418588 61.270726 
L 73.703579 58.875807 
L 75.145115 56.58067 
L 76.749763 54.378869 
L 78.497077 52.299486 
L 80.374271 50.338054 
L 82.362812 48.485019 
L 84.438421 46.7392 
L 86.5988 45.0889 
L 88.837119 43.53451 
L 91.129867 42.091155 
L 93.497386 40.746929 
L 95.926485 39.511408 
L 98.398301 38.393443 
L 100.929111 37.384684 
L 103.498169 36.492429 
L 106.103148 35.714825 
L 108.744092 35.049144 
L 114.088629 34.050027 
L 119.496193 33.465311 
L 124.930859 33.253322 
L 130.366644 33.361168 
L 135.795098 33.733791 
L 141.203367 34.324526 
L 146.586748 35.089247 
L 154.627234 36.466941 
L 162.651316 37.943414 
L 165.347176 38.276111 
L 165.347176 38.276111 
" clip-path="url(#pd96ddb7fc9)" style="fill: none; stroke: #ff0000; stroke-width: 2; stroke-linecap: square"/>
   </g>
   <g id="line2d_3">
    <path d="M 167.2407 51.204815 
L 175.57627 51.199184 
L 179.82726 50.558245 
L 192.675229 50.480503 
L 214.806693 50.470719 
L 219.334884 50.643866 
L 223.907011 51.180926 
L 254.3554 51.269696 
L 258.261405 51.231441 
L 262.033819 50.486413 
L 272.50547 50.164157 
L 282.237686 49.761841 
L 285.292933 50.174864 
L 288.565004 50.276614 
L 292.214423 50.087929 
L 295.050396 51.502734 
L 297.257817 53.793875 
L 298.34564 57.213339 
L 299.15838 60.656996 
L 300.97544 67.033188 
L 302.323803 69.947295 
L 304.326225 76.478112 
L 305.605134 79.756602 
L 307.131783 83.052358 
L 308.825676 86.415487 
L 309.674114 90.202899 
L 312.934756 97.521592 
L 314.387669 101.372959 
L 315.986429 105.258456 
L 317.433087 109.247874 
L 318.428003 113.394784 
L 319.703255 117.51051 
L 320.680139 121.720475 
L 322.765784 130.160069 
L 323.781676 134.397347 
L 324.908692 138.613156 
L 326.540565 147.149184 
L 327.799436 151.313711 
L 329.264416 159.805824 
L 331.085398 168.159376 
L 331.731021 172.369638 
L 333.729022 180.588012 
L 334.891179 184.635641 
L 335.793099 188.739515 
L 336.477739 192.901504 
L 338.60296 201.026946 
L 339.3059 205.218402 
L 340.491657 209.276708 
L 341.410244 213.451033 
L 343.904636 221.673296 
L 345.543081 225.693517 
L 348.277911 234.084302 
L 350.174226 238.119624 
L 351.86503 242.273784 
L 356.236009 250.18486 
L 358.055441 254.296596 
L 360.10111 258.273771 
L 362.498843 262.037948 
L 364.301547 265.982776 
L 366.294013 269.726751 
L 367.986094 273.439547 
L 369.877815 276.879037 
L 371.813159 280.081307 
L 373.159443 283.203639 
L 376.417485 288.367613 
L 376.988052 290.567573 
L 377.106964 292.264385 
L 376.987295 293.36693 
L 376.289962 293.654864 
L 374.316052 293.11139 
L 372.834603 292.878218 
L 368.180675 290.859497 
L 358.092057 288.501585 
L 354.101425 287.872498 
L 350.118364 286.611872 
L 345.9349 285.654326 
L 338.098141 281.997651 
L 330.153798 278.65521 
L 326.208808 276.924183 
L 322.383007 274.947021 
L 318.380348 273.296066 
L 314.546454 271.317987 
L 310.582352 269.583446 
L 306.698533 267.704263 
L 302.689877 266.077597 
L 298.889465 264.061364 
L 294.906233 262.427011 
L 291.082498 260.476429 
L 287.066466 258.957341 
L 283.194633 257.12317 
L 279.213461 255.551412 
L 275.368711 253.617964 
L 271.424476 251.917223 
L 267.390174 250.456392 
L 255.387951 245.643393 
L 247.265309 242.752412 
L 243.197701 241.3069 
L 239.159211 239.751643 
L 235.055957 238.430359 
L 231.016307 236.92995 
L 222.915363 234.252711 
L 219.012795 232.692629 
L 211.267761 230.094331 
L 193.574514 225.233311 
L 190.52605 224.410527 
L 187.509862 223.767343 
L 185.126504 222.681023 
L 183.341813 221.353272 
L 182.73441 219.687026 
L 182.738528 218.197562 
L 183.578702 216.947629 
L 185.114201 216.084169 
L 186.659675 215.37972 
L 187.91641 214.334807 
L 189.322577 212.919006 
L 191.835923 212.181737 
L 194.202055 210.981057 
L 196.973164 210.154022 
L 199.878018 209.55222 
L 202.718455 208.77106 
L 205.666913 208.294048 
L 208.678854 207.979868 
L 211.803403 207.21983 
L 215.13604 207.069629 
L 218.648685 207.318155 
L 222.346525 207.911118 
L 226.427753 208.234004 
L 230.608509 209.172667 
L 239.318692 211.777984 
L 243.668143 213.553306 
L 247.960677 215.607352 
L 252.151695 217.98563 
L 256.522329 219.982951 
L 260.734868 222.421181 
L 265.074714 224.587962 
L 274.214245 227.5054 
L 278.870608 228.657627 
L 283.627014 229.221858 
L 288.431734 229.559454 
L 293.289837 229.431661 
L 298.205835 228.937582 
L 303.221097 228.119279 
L 308.160556 226.532596 
L 312.77521 224.02012 
L 317.152524 220.972764 
L 321.010884 217.233847 
L 323.739846 212.612035 
L 325.258281 207.463929 
L 326.359776 202.369505 
L 327.328633 197.361553 
L 327.592556 192.255266 
L 327.239017 187.13861 
L 325.080986 177.081716 
L 323.620398 172.168563 
L 322.417736 167.226023 
L 321.4105 162.185299 
L 320.63586 156.959923 
L 319.50828 151.718171 
L 318.068227 146.467035 
L 316.000123 141.40876 
L 310.535207 131.666635 
L 306.618821 127.505634 
L 302.289198 123.49734 
L 296.978581 120.736644 
L 291.191329 119.155765 
L 285.326481 118.617458 
L 274.303983 119.940833 
L 269.191558 120.920903 
L 264.717246 123.179113 
L 260.636186 125.60338 
L 256.844986 128.059901 
L 253.296459 130.584732 
L 249.605902 132.354682 
L 242.954014 136.77491 
L 239.512209 138.299834 
L 235.973714 139.200334 
L 232.382395 139.485951 
L 228.806849 139.539127 
L 225.225824 139.465706 
L 221.617874 139.151103 
L 217.990131 138.532037 
L 214.35488 137.615497 
L 210.709646 136.522078 
L 206.960098 135.923526 
L 203.23555 134.76836 
L 199.39136 134.020132 
L 195.602633 132.684515 
L 191.685268 131.758347 
L 187.783295 130.533144 
L 183.767843 129.625712 
L 179.787975 128.388487 
L 175.648107 127.687405 
L 171.615783 126.406356 
L 167.428088 125.672501 
L 163.364074 124.346077 
L 159.122413 123.692286 
L 150.871592 121.323539 
L 146.65984 120.478748 
L 142.500755 119.443531 
L 138.313765 118.571255 
L 134.259714 117.264778 
L 130.173449 116.212024 
L 126.059726 115.412618 
L 122.059413 114.388765 
L 118.072294 113.533626 
L 114.227598 112.46037 
L 110.375173 111.665027 
L 103.129555 109.608222 
L 99.528519 108.881565 
L 92.621421 107.267039 
L 88.965964 106.809632 
L 86.069872 105.254101 
L 83.82 103.053313 
L 82.447271 100.224462 
L 82.359127 96.75712 
L 82.497641 93.595169 
L 83.107022 90.531871 
L 83.570722 85.168268 
L 83.707539 82.50649 
L 83.189588 79.789339 
L 82.874123 73.988002 
L 83.191497 71.112804 
L 82.513154 61.413974 
L 83.228219 58.269177 
L 85.425364 56.259101 
L 88.002924 54.765605 
L 90.819041 53.696551 
L 93.837142 53.010032 
L 110.713343 51.41297 
L 118.258158 51.506677 
L 126.084114 51.261881 
L 130.101735 50.665355 
L 134.166906 50.491652 
L 146.498774 50.492134 
L 150.582301 51.157749 
L 162.985995 51.203075 
L 162.985995 51.203075 
" clip-path="url(#pd96ddb7fc9)" style="fill: none; stroke: #008000; stroke-linecap: square"/>
   </g>
   <g id="line2d_4">
    <path d="M 168.89306 25.398765 
L 176.777056 25.368182 
L 180.634576 25.98226 
L 196.35746 25.981195 
L 217.285329 25.911105 
L 221.64391 25.421249 
L 244.417254 25.475476 
L 258.286454 25.372556 
L 262.864433 26.002596 
L 276.559011 26.003942 
L 285.821388 26.349185 
L 290.557578 26.719996 
L 295.620969 26.75066 
L 300.664599 27.423117 
L 305.341478 29.162692 
L 310.038384 31.118434 
L 313.020434 35.335166 
L 315.640156 39.636697 
L 317.905411 44.004365 
L 321.690118 52.700581 
L 323.075062 57.153411 
L 328.347624 69.460954 
L 329.787734 73.69827 
L 331.098824 77.987697 
L 333.275337 81.979986 
L 336.037172 90.600427 
L 337.540119 94.894487 
L 340.193829 103.605263 
L 341.905068 107.870948 
L 343.231967 112.225154 
L 344.74663 116.526725 
L 347.276213 125.179988 
L 348.393593 129.49453 
L 349.287715 133.817963 
L 351.411912 142.277895 
L 351.912028 146.552591 
L 353.801182 154.788247 
L 355.202184 162.939224 
L 356.1505 166.894937 
L 357.372206 174.843114 
L 357.860793 178.803154 
L 358.649384 182.664346 
L 359.710281 186.430557 
L 361.293036 194.080523 
L 362.581544 197.751948 
L 363.499511 201.550855 
L 364.804185 205.239548 
L 365.917033 209.024414 
L 367.226715 212.778851 
L 368.30603 216.677307 
L 369.826514 220.468602 
L 371.630533 224.213141 
L 373.095917 228.178632 
L 374.987396 232.039408 
L 376.618523 236.091811 
L 378.382061 240.155478 
L 380.690706 244.030707 
L 382.878737 248.006984 
L 384.760564 252.152225 
L 387.228972 256.055018 
L 389.428472 260.081755 
L 391.769339 264.046924 
L 393.67115 268.172722 
L 395.217803 272.397459 
L 397.000085 276.53109 
L 397.982692 280.892599 
L 398.745476 285.32912 
L 401.497365 295.135541 
L 402.71235 301.569507 
L 402.835412 309.64758 
L 397.706954 315.883825 
L 389.170803 316.731818 
L 382.191293 315.702774 
L 376.671536 314.347997 
L 371.937809 314.047478 
L 367.254139 314.250834 
L 362.45158 314.024152 
L 357.544837 313.504794 
L 352.571589 312.692746 
L 347.705706 311.138544 
L 342.750486 309.820029 
L 338.00756 307.865581 
L 333.090108 306.496774 
L 328.275693 304.970389 
L 319.2421 301.16522 
L 314.927921 299.219278 
L 310.636174 297.48063 
L 306.645619 295.408749 
L 302.601215 293.674169 
L 298.791891 291.72314 
L 294.994514 289.962217 
L 291.403757 288.003771 
L 287.674094 286.497502 
L 284.182814 284.675932 
L 280.571608 283.239433 
L 277.175235 281.439186 
L 273.640265 280.015718 
L 270.199387 278.391847 
L 266.590099 277.181611 
L 263.028626 275.789996 
L 259.491521 274.198565 
L 248.259961 270.049266 
L 236.319935 265.566525 
L 232.125842 264.184952 
L 227.920698 262.569646 
L 223.59584 261.129674 
L 214.883444 257.950132 
L 210.390986 256.600718 
L 201.49501 253.50194 
L 188.319181 248.486099 
L 179.263187 245.331155 
L 174.591669 243.553579 
L 169.996475 241.202002 
L 165.265232 238.284884 
L 161.403463 233.88554 
L 159.006414 228.091154 
L 158.688824 221.503934 
L 159.607286 215.091736 
L 161.353003 209.165906 
L 164.192281 204.003435 
L 168.147886 199.946079 
L 172.634105 196.83515 
L 176.597419 193.47529 
L 185.929949 188.534343 
L 190.826767 186.33423 
L 196.054759 184.836016 
L 201.384756 183.569168 
L 206.837341 182.661255 
L 223.463951 182.892441 
L 229.016593 183.291148 
L 239.460566 185.819097 
L 244.424074 187.308284 
L 253.49248 191.192751 
L 261.834637 194.953743 
L 265.544257 197.161036 
L 269.251671 198.799669 
L 272.714372 200.452229 
L 275.875081 202.403177 
L 278.985571 203.836718 
L 284.781741 206.225111 
L 287.520595 207.019323 
L 290.178989 207.608127 
L 292.758149 207.831504 
L 295.189711 207.530392 
L 297.546487 206.985123 
L 299.85892 206.175248 
L 301.682717 204.573381 
L 302.933543 202.396777 
L 304.014936 200.10556 
L 305.026605 197.693746 
L 305.304076 194.857063 
L 304.69627 191.73286 
L 303.90226 188.611243 
L 302.956942 185.472412 
L 302.14467 182.302369 
L 300.880248 179.092513 
L 297.270626 165.563183 
L 295.339851 154.75044 
L 294.511196 151.272524 
L 291.288052 146.152127 
L 289.192118 144.77394 
L 287.271834 143.661672 
L 285.325848 142.980031 
L 283.272622 142.759786 
L 281.031682 142.657226 
L 278.621206 143.721149 
L 276.104869 145.420424 
L 273.094895 146.638368 
L 269.81694 148.321867 
L 262.483213 152.375603 
L 258.692793 155.063771 
L 254.400239 157.00027 
L 245.129669 159.794226 
L 240.391735 161.031836 
L 235.613321 162.073254 
L 230.807687 162.589358 
L 226.053532 162.587803 
L 216.826299 161.951321 
L 207.877273 161.085248 
L 203.565168 159.915315 
L 199.242309 159.155958 
L 195.040475 157.878979 
L 190.773631 157.110583 
L 186.617306 155.880432 
L 182.418697 154.930019 
L 178.303394 153.654743 
L 174.116803 152.728965 
L 170.054377 151.292823 
L 165.846764 150.477898 
L 161.759026 149.156789 
L 157.514008 148.470081 
L 153.416125 147.147405 
L 144.921284 145.592132 
L 140.740477 144.447486 
L 136.504858 143.451501 
L 132.303229 142.245052 
L 127.98339 141.426937 
L 123.719125 140.318622 
L 119.513214 138.938917 
L 115.230665 137.790405 
L 110.975787 136.505147 
L 106.617672 135.500703 
L 102.297892 134.309402 
L 93.274356 132.577829 
L 84.202709 130.069057 
L 79.688054 128.350612 
L 75.640004 125.639715 
L 71.398447 122.972858 
L 67.559947 119.564658 
L 64.562727 115.216093 
L 62.055196 110.525012 
L 60.550565 105.340988 
L 59.223376 100.275767 
L 58.557554 95.112144 
L 58.169415 90.011419 
L 57.964588 84.952516 
L 58.457487 79.892146 
L 58.74918 69.729554 
L 58.486578 64.339897 
L 58.859606 58.845808 
L 59.700639 53.222963 
L 61.419349 47.717926 
L 63.845223 42.356604 
L 67.38862 37.686797 
L 72.503262 34.806974 
L 77.988003 33.030944 
L 88.131467 30.089801 
L 93.000789 28.929705 
L 97.828694 28.033452 
L 102.606336 27.272303 
L 107.385348 26.877353 
L 116.771784 25.690534 
L 126.073016 25.402987 
L 130.640952 25.882628 
L 135.149971 26.013482 
L 148.321337 26.062122 
L 152.627747 25.438048 
L 165.009642 25.423483 
L 165.009642 25.423483 
" clip-path="url(#pd96ddb7fc9)" style="fill: none; stroke: #008000; stroke-linecap: square"/>
   </g>
   <g id="patch_3">
    <path d="M 40.721047 331.3 
L 40.721047 10.8 
" style="fill: none; stroke: #000000; stroke-width: 0.8; stroke-linejoin: miter; stroke-linecap: square"/>
   </g>
   <g id="patch_4">
    <path d="M 420.078953 331.3 
L 420.078953 10.8 
" style="fill: none; stroke: #000000; stroke-width: 0.8; stroke-linejoin: miter; stroke-linecap: square"/>
   </g>
   <g id="patch_5">
    <path d="M 40.721047 331.3 
L 420.078953 331.3 
" style="fill: none; stroke: #000000; stroke-width: 0.8; stroke-linejoin: miter; stroke-linecap: square"/>
   </g>
   <g id="patch_6">
    <path d="M 40.721047 10.8 
L 420.078953 10.8 
" style="fill: none; stroke: #000000; stroke-width: 0.8; stroke-linejoin: miter; stroke-linecap: square"/>
   </g>
   <g id="legend_1">
    <g id="patch_7">
     <path d="M 47.721047 326.3 
L 136.10386 326.3 
Q 138.10386 326.3 138.10386 324.3 
L 138.10386 281.265625 
Q 138.10386 279.265625 136.10386 279.265625 
L 47.721047 279.265625 
Q 45.721047 279.265625 45.721047 281.265625 
L 45.721047 324.3 
Q 45.721047 326.3 47.721047 326.3 
z
" style="fill: #ffffff; opacity: 0.8; stroke: #cccccc; stroke-linejoin: miter"/>
    </g>
    <g id="line2d_5">
     <path d="M 49.721047 287.364062 
L 59.721047 287.364062 
L 69.721047 287.364062 
" style="fill: none; stroke: #0000ff; stroke-width: 2; stroke-linecap: square"/>
    </g>
    <g id="text_1">
     <!-- Track -->
     <g transform="translate(77.721047 290.864062)scale(0.1 -0.1)">
      <defs>
       <path id="DejaVuSans-54" d="M -19 4666 
L 3928 4666 
L 3928 4134 
L 2272 4134 
L 2272 0 
L 1638 0 
L 1638 4134 
L -19 4134 
L -19 4666 
z
" transform="scale(0.015625)"/>
       <path id="DejaVuSans-72" d="M 2631 2963 
Q 2534 3019 2420 3045 
Q 2306 3072 2169 3072 
Q 1681 3072 1420 2755 
Q 1159 2438 1159 1844 
L 1159 0 
L 581 0 
L 581 3500 
L 1159 3500 
L 1159 2956 
Q 1341 3275 1631 3429 
Q 1922 3584 2338 3584 
Q 2397 3584 2469 3576 
Q 2541 3569 2628 3553 
L 2631 2963 
z
" transform="scale(0.015625)"/>
       <path id="DejaVuSans-61" d="M 2194 1759 
Q 1497 1759 1228 1600 
Q 959 1441 959 1056 
Q 959 750 1161 570 
Q 1363 391 1709 391 
Q 2188 391 2477 730 
Q 2766 1069 2766 1631 
L 2766 1759 
L 2194 1759 
z
M 3341 1997 
L 3341 0 
L 2766 0 
L 2766 531 
Q 2569 213 2275 61 
Q 1981 -91 1556 -91 
Q 1019 -91 701 211 
Q 384 513 384 1019 
Q 384 1609 779 1909 
Q 1175 2209 1959 2209 
L 2766 2209 
L 2766 2266 
Q 2766 2663 2505 2880 
Q 2244 3097 1772 3097 
Q 1472 3097 1187 3025 
Q 903 2953 641 2809 
L 641 3341 
Q 956 3463 1253 3523 
Q 1550 3584 1831 3584 
Q 2591 3584 2966 3190 
Q 3341 2797 3341 1997 
z
" transform="scale(0.015625)"/>
       <path id="DejaVuSans-63" d="M 3122 3366 
L 3122 2828 
Q 2878 2963 2633 3030 
Q 2388 3097 2138 3097 
Q 1578 3097 1268 2742 
Q 959 2388 959 1747 
Q 959 1106 1268 751 
Q 1578 397 2138 397 
Q 2388 397 2633 464 
Q 2878 531 3122 666 
L 3122 134 
Q 2881 22 2623 -34 
Q 2366 -91 2075 -91 
Q 1284 -91 818 406 
Q 353 903 353 1747 
Q 353 2603 823 3093 
Q 1294 3584 2113 3584 
Q 2378 3584 2631 3529 
Q 2884 3475 3122 3366 
z
" transform="scale(0.015625)"/>
       <path id="DejaVuSans-6b" d="M 581 4863 
L 1159 4863 
L 1159 1991 
L 2875 3500 
L 3609 3500 
L 1753 1863 
L 3688 0 
L 2938 0 
L 1159 1709 
L 1159 0 
L 581 0 
L 581 4863 
z
" transform="scale(0.015625)"/>
      </defs>
      <use xlink:href="#DejaVuSans-54"/>
      <use xlink:href="#DejaVuSans-72" x="46.333984"/>
      <use xlink:href="#DejaVuSans-61" x="87.447266"/>
      <use xlink:href="#DejaVuSans-63" x="148.726562"/>
      <use xlink:href="#DejaVuSans-6b" x="203.707031"/>
     </g>
    </g>
    <g id="line2d_6">
     <path d="M 49.721047 302.042187 
L 59.721047 302.042187 
L 69.721047 302.042187 
" style="fill: none; stroke: #ff0000; stroke-width: 2; stroke-linecap: square"/>
    </g>
    <g id="text_2">
     <!-- Raceline -->
     <g transform="translate(77.721047 305.542187)scale(0.1 -0.1)">
      <defs>
       <path id="DejaVuSans-52" d="M 2841 2188 
Q 3044 2119 3236 1894 
Q 3428 1669 3622 1275 
L 4263 0 
L 3584 0 
L 2988 1197 
Q 2756 1666 2539 1819 
Q 2322 1972 1947 1972 
L 1259 1972 
L 1259 0 
L 628 0 
L 628 4666 
L 2053 4666 
Q 2853 4666 3247 4331 
Q 3641 3997 3641 3322 
Q 3641 2881 3436 2590 
Q 3231 2300 2841 2188 
z
M 1259 4147 
L 1259 2491 
L 2053 2491 
Q 2509 2491 2742 2702 
Q 2975 2913 2975 3322 
Q 2975 3731 2742 3939 
Q 2509 4147 2053 4147 
L 1259 4147 
z
" transform="scale(0.015625)"/>
       <path id="DejaVuSans-65" d="M 3597 1894 
L 3597 1613 
L 953 1613 
Q 991 1019 1311 708 
Q 1631 397 2203 397 
Q 2534 397 2845 478 
Q 3156 559 3463 722 
L 3463 178 
Q 3153 47 2828 -22 
Q 2503 -91 2169 -91 
Q 1331 -91 842 396 
Q 353 884 353 1716 
Q 353 2575 817 3079 
Q 1281 3584 2069 3584 
Q 2775 3584 3186 3129 
Q 3597 2675 3597 1894 
z
M 3022 2063 
Q 3016 2534 2758 2815 
Q 2500 3097 2075 3097 
Q 1594 3097 1305 2825 
Q 1016 2553 972 2059 
L 3022 2063 
z
" transform="scale(0.015625)"/>
       <path id="DejaVuSans-6c" d="M 603 4863 
L 1178 4863 
L 1178 0 
L 603 0 
L 603 4863 
z
" transform="scale(0.015625)"/>
       <path id="DejaVuSans-69" d="M 603 3500 
L 1178 3500 
L 1178 0 
L 603 0 
L 603 3500 
z
M 603 4863 
L 1178 4863 
L 1178 4134 
L 603 4134 
L 603 4863 
z
" transform="scale(0.015625)"/>
       <path id="DejaVuSans-6e" d="M 3513 2113 
L 3513 0 
L 2938 0 
L 2938 2094 
Q 2938 2591 2744 2837 
Q 2550 3084 2163 3084 
Q 1697 3084 1428 2787 
Q 1159 2491 1159 1978 
L 1159 0 
L 581 0 
L 581 3500 
L 1159 3500 
L 1159 2956 
Q 1366 3272 1645 3428 
Q 1925 3584 2291 3584 
Q 2894 3584 3203 3211 
Q 3513 2838 3513 2113 
z
" transform="scale(0.015625)"/>
      </defs>
      <use xlink:href="#DejaVuSans-52"/>
      <use xlink:href="#DejaVuSans-61" x="67.232422"/>
      <use xlink:href="#DejaVuSans-63" x="128.511719"/>
      <use xlink:href="#DejaVuSans-65" x="183.492188"/>
      <use xlink:href="#DejaVuSans-6c" x="245.015625"/>
      <use xlink:href="#DejaVuSans-69" x="272.798828"/>
      <use xlink:href="#DejaVuSans-6e" x="300.582031"/>
      <use xlink:href="#DejaVuSans-65" x="363.960938"/>
     </g>
    </g>
    <g id="line2d_7">
     <path d="M 49.721047 316.720312 
L 59.721047 316.720312 
L 69.721047 316.720312 
" style="fill: none; stroke: #008000; stroke-linecap: square"/>
    </g>
    <g id="text_3">
     <!-- Boundaries -->
     <g transform="translate(77.721047 320.220312)scale(0.1 -0.1)">
      <defs>
       <path id="DejaVuSans-42" d="M 1259 2228 
L 1259 519 
L 2272 519 
Q 2781 519 3026 730 
Q 3272 941 3272 1375 
Q 3272 1813 3026 2020 
Q 2781 2228 2272 2228 
L 1259 2228 
z
M 1259 4147 
L 1259 2741 
L 2194 2741 
Q 2656 2741 2882 2914 
Q 3109 3088 3109 3444 
Q 3109 3797 2882 3972 
Q 2656 4147 2194 4147 
L 1259 4147 
z
M 628 4666 
L 2241 4666 
Q 2963 4666 3353 4366 
Q 3744 4066 3744 3513 
Q 3744 3084 3544 2831 
Q 3344 2578 2956 2516 
Q 3422 2416 3680 2098 
Q 3938 1781 3938 1306 
Q 3938 681 3513 340 
Q 3088 0 2303 0 
L 628 0 
L 628 4666 
z
" transform="scale(0.015625)"/>
       <path id="DejaVuSans-6f" d="M 1959 3097 
Q 1497 3097 1228 2736 
Q 959 2375 959 1747 
Q 959 1119 1226 758 
Q 1494 397 1959 397 
Q 2419 397 2687 759 
Q 2956 1122 2956 1747 
Q 2956 2369 2687 2733 
Q 2419 3097 1959 3097 
z
M 1959 3584 
Q 2709 3584 3137 3096 
Q 3566 2609 3566 1747 
Q 3566 888 3137 398 
Q 2709 -91 1959 -91 
Q 1206 -91 779 398 
Q 353 888 353 1747 
Q 353 2609 779 3096 
Q 1206 3584 1959 3584 
z
" transform="scale(0.015625)"/>
       <path id="DejaVuSans-75" d="M 544 1381 
L 544 3500 
L 1119 3500 
L 1119 1403 
Q 1119 906 1312 657 
Q 1506 409 1894 409 
Q 2359 409 2629 706 
Q 2900 1003 2900 1516 
L 2900 3500 
L 3475 3500 
L 3475 0 
L 2900 0 
L 2900 538 
Q 2691 219 2414 64 
Q 2138 -91 1772 -91 
Q 1169 -91 856 284 
Q 544 659 544 1381 
z
M 1991 3584 
L 1991 3584 
z
" transform="scale(0.015625)"/>
       <path id="DejaVuSans-64" d="M 2906 2969 
L 2906 4863 
L 3481 4863 
L 3481 0 
L 2906 0 
L 2906 525 
Q 2725 213 2448 61 
Q 2172 -91 1784 -91 
Q 1150 -91 751 415 
Q 353 922 353 1747 
Q 353 2572 751 3078 
Q 1150 3584 1784 3584 
Q 2172 3584 2448 3432 
Q 2725 3281 2906 2969 
z
M 947 1747 
Q 947 1113 1208 752 
Q 1469 391 1925 391 
Q 2381 391 2643 752 
Q 2906 1113 2906 1747 
Q 2906 2381 2643 2742 
Q 2381 3103 1925 3103 
Q 1469 3103 1208 2742 
Q 947 2381 947 1747 
z
" transform="scale(0.015625)"/>
       <path id="DejaVuSans-73" d="M 2834 3397 
L 2834 2853 
Q 2591 2978 2328 3040 
Q 2066 3103 1784 3103 
Q 1356 3103 1142 2972 
Q 928 2841 928 2578 
Q 928 2378 1081 2264 
Q 1234 2150 1697 2047 
L 1894 2003 
Q 2506 1872 2764 1633 
Q 3022 1394 3022 966 
Q 3022 478 2636 193 
Q 2250 -91 1575 -91 
Q 1294 -91 989 -36 
Q 684 19 347 128 
L 347 722 
Q 666 556 975 473 
Q 1284 391 1588 391 
Q 1994 391 2212 530 
Q 2431 669 2431 922 
Q 2431 1156 2273 1281 
Q 2116 1406 1581 1522 
L 1381 1569 
Q 847 1681 609 1914 
Q 372 2147 372 2553 
Q 372 3047 722 3315 
Q 1072 3584 1716 3584 
Q 2034 3584 2315 3537 
Q 2597 3491 2834 3397 
z
" transform="scale(0.015625)"/>
      </defs>
      <use xlink:href="#DejaVuSans-42"/>
      <use xlink:href="#DejaVuSans-6f" x="68.603516"/>
      <use xlink:href="#DejaVuSans-75" x="129.785156"/>
      <use xlink:href="#DejaVuSans-6e" x="193.164062"/>
      <use xlink:href="#DejaVuSans-64" x="256.542969"/>
      <use xlink:href="#DejaVuSans-61" x="320.019531"/>
      <use xlink:href="#DejaVuSans-72" x="381.298828"/>
      <use xlink:href="#DejaVuSans-69" x="422.412109"/>
      <use xlink:href="#DejaVuSans-65" x="450.195312"/>
      <use xlink:href="#DejaVuSans-73" x="511.71875"/>
     </g>
    </g>
   </g>
  </g>
 </g>
 <defs>
  <clipPath id="pd96ddb7fc9">
   <rect x="40.721047" y="10.8" width="379.357906" height="320.5"/>
  </clipPath>
 </defs>
</svg>
