<?xml version="1.0" encoding="utf-8" standalone="no"?>
<!DOCTYPE svg PUBLIC "-//W3C//DTD SVG 1.1//EN"
  "http://www.w3.org/Graphics/SVG/1.1/DTD/svg11.dtd">
<svg xmlns:xlink="http://www.w3.org/1999/xlink" width="460.8pt" height="345.6pt" viewBox="0 0 460.8 345.6" xmlns="http://www.w3.org/2000/svg" version="1.1">
 <metadata>
  <rdf:RDF xmlns:dc="http://purl.org/dc/elements/1.1/" xmlns:cc="http://creativecommons.org/ns#" xmlns:rdf="http://www.w3.org/1999/02/22-rdf-syntax-ns#">
   <cc:Work>
    <dc:type rdf:resource="http://purl.org/dc/dcmitype/StillImage"/>
    <dc:date>2023-11-06T15:10:22.292470</dc:date>
    <dc:format>image/svg+xml</dc:format>
    <dc:creator>
     <cc:Agent>
      <dc:title>Matplotlib v3.5.2, https://matplotlib.org/</dc:title>
     </cc:Agent>
    </dc:creator>
   </cc:Work>
  </rdf:RDF>
 </metadata>
 <defs>
  <style type="text/css">*{stroke-linejoin: round; stroke-linecap: butt}</style>
 </defs>
 <g id="figure_1">
  <g id="patch_1">
   <path d="M 0 345.6 
L 460.8 345.6 
L 460.8 0 
L 0 0 
z
" style="fill: #ffffff"/>
  </g>
  <g id="axes_1">
   <g id="patch_2">
    <path d="M 47.369228 331.3 
L 413.430772 331.3 
L 413.430772 10.8 
L 47.369228 10.8 
z
" style="fill: #ffffff"/>
   </g>
   <g id="matplotlib.axis_1"/>
   <g id="matplotlib.axis_2"/>
   <g id="line2d_1">
    <path d="M 143.099476 32.501065 
L 148.084788 32.015012 
L 153.11913 31.744762 
L 159.511177 31.630517 
L 167.356171 31.718561 
L 178.118074 32.081566 
L 189.144109 32.675913 
L 197.473658 33.33038 
L 204.357333 34.093277 
L 209.762028 34.909173 
L 213.720511 35.678342 
L 217.569113 36.613602 
L 221.280662 37.745208 
L 224.829869 39.099204 
L 228.194712 40.69491 
L 231.356467 42.544857 
L 233.343725 43.922518 
L 235.230041 45.415896 
L 237.012312 47.02368 
L 238.688084 48.743215 
L 240.255555 50.57051 
L 242.401359 53.501466 
L 244.29992 56.638959 
L 245.953557 59.954887 
L 247.368401 63.422124 
L 248.554489 67.01596 
L 249.525766 70.714116 
L 250.300087 74.496738 
L 250.899211 78.346403 
L 251.470446 83.55801 
L 251.92159 90.159832 
L 253.184634 112.861224 
L 253.907832 119.506291 
L 254.679861 124.787712 
L 255.633872 130.031641 
L 257.075432 136.527817 
L 258.760433 142.955634 
L 261.011579 150.580976 
L 265.559894 165.599256 
L 267.158114 171.807207 
L 268.495725 178.023921 
L 269.611477 184.285892 
L 272.204619 199.774939 
L 273.411907 205.130889 
L 274.532889 209.171623 
L 275.871755 213.181003 
L 277.450772 217.093903 
L 279.285213 220.828055 
L 280.654455 223.1698 
L 282.141773 225.354583 
L 283.746513 227.345334 
L 285.466666 229.102338 
L 287.299058 230.589271 
L 289.239508 231.77794 
L 291.282835 232.648599 
L 293.422857 233.189946 
L 295.652394 233.399124 
L 297.963267 233.28172 
L 300.346295 232.851767 
L 302.791301 232.131742 
L 305.287106 231.152567 
L 307.821533 229.953608 
L 311.66649 227.849971 
L 321.823399 221.939811 
L 324.268448 220.737518 
L 326.658049 219.745327 
L 328.98815 218.997594 
L 331.257471 218.519701 
L 333.467498 218.328064 
L 335.622491 218.430126 
L 337.729477 218.824359 
L 339.798255 219.500267 
L 341.841393 220.43838 
L 343.874228 221.610262 
L 346.944277 223.722598 
L 352.262361 227.835866 
L 357.96262 232.224164 
L 362.795919 235.684085 
L 367.779966 238.99199 
L 378.57785 245.942392 
L 381.638433 248.265925 
L 383.417793 249.86272 
L 384.949329 251.505544 
L 386.203477 253.194388 
L 387.154107 254.923284 
L 387.778524 256.680301 
L 388.057469 258.447551 
L 387.975116 260.201183 
L 387.519076 261.911389 
L 386.680392 263.542398 
L 385.453546 265.052482 
L 383.836452 266.393951 
L 381.830819 267.513875 
L 379.449549 268.368907 
L 376.728169 268.948192 
L 373.726641 269.276981 
L 368.890356 269.444579 
L 364.00724 269.554503 
L 360.971398 269.85244 
L 359.578226 270.129697 
L 358.290728 270.511745 
L 357.123161 271.007643 
L 356.087679 271.622147 
L 355.194332 272.355701 
L 354.451072 273.204441 
L 353.863746 274.160195 
L 353.436103 275.210482 
L 353.169787 276.338514 
L 353.064342 277.523191 
L 353.117211 278.739108 
L 353.323734 279.95655 
L 353.677289 281.142351 
L 354.170166 282.26527 
L 354.794129 283.299429 
L 355.540439 284.224485 
L 356.399857 285.025624 
L 357.362642 285.693567 
L 358.418553 286.224565 
L 359.556849 286.620402 
L 360.766286 286.888392 
L 363.351108 287.097756 
L 367.452027 286.953893 
L 370.176898 286.942209 
L 371.496802 287.062148 
L 372.772386 287.29899 
L 373.992701 287.670446 
L 375.14762 288.188567 
L 376.227834 288.859741 
L 377.224857 289.684699 
L 378.131022 290.658508 
L 378.939482 291.770578 
L 379.644213 293.004654 
L 380.240008 294.338825 
L 380.722482 295.74552 
L 381.088095 297.192639 
L 381.334252 298.648812 
L 381.459363 300.086015 
L 381.46284 301.479652 
L 381.345095 302.808559 
L 381.107547 304.054996 
L 380.752615 305.204653 
L 380.283724 306.246651 
L 379.705298 307.173536 
L 379.022768 307.981284 
L 378.242564 308.6693 
L 377.372122 309.240416 
L 376.41988 309.700895 
L 374.308233 310.330814 
L 371.983935 310.649782 
L 369.513521 310.739253 
L 365.649843 310.584682 
L 360.394491 310.071655 
L 355.146535 309.35746 
L 349.926742 308.460251 
L 344.737813 307.373931 
L 339.585078 306.093521 
L 334.476539 304.615215 
L 329.422866 302.936374 
L 324.437401 301.055531 
L 319.535986 298.972367 
L 314.73514 296.687464 
L 310.050251 294.202071 
L 305.495411 291.518077 
L 301.083422 288.638013 
L 296.825789 285.565052 
L 292.732726 282.303008 
L 288.813151 278.856339 
L 285.07469 275.230142 
L 281.523676 271.430157 
L 278.165147 267.462766 
L 275.002847 263.334993 
L 272.039228 259.054502 
L 269.275448 254.629601 
L 266.71137 250.069239 
L 264.345565 245.383006 
L 262.175309 240.581135 
L 260.196586 235.6745 
L 258.404086 230.674617 
L 256.791204 225.593643 
L 255.350042 220.444378 
L 253.775947 213.932301 
L 252.434916 207.362231 
L 251.302996 200.763398 
L 250.182325 192.850301 
L 249.133566 183.697794 
L 248.258835 176.031763 
L 247.625609 172.341795 
L 247.036579 169.969497 
L 246.252598 167.689401 
L 245.234215 165.515418 
L 243.972365 163.45033 
L 242.489528 161.485375 
L 239.977726 158.678116 
L 236.622937 154.999589 
L 235.240867 153.077154 
L 234.202074 151.042626 
L 233.562127 148.871253 
L 233.331649 146.553003 
L 233.476316 144.092569 
L 233.916855 141.509365 
L 236.012119 132.000985 
L 236.360348 129.27279 
L 236.505835 126.570685 
L 236.448985 123.898812 
L 236.056973 119.938344 
L 235.203836 114.705301 
L 233.37223 104.250552 
L 232.675365 99.004252 
L 230.891406 83.540089 
L 230.364889 81.089583 
L 229.689902 78.703489 
L 228.843979 76.392861 
L 227.810014 74.168791 
L 226.576262 72.042407 
L 225.136339 70.024874 
L 223.48922 68.127396 
L 221.639241 66.36121 
L 219.596099 64.737596 
L 217.374851 63.267865 
L 214.995914 61.963371 
L 212.485066 60.8355 
L 209.87284 59.895416 
L 207.189917 59.152063 
L 204.463677 58.610673 
L 201.717988 58.272674 
L 198.973203 58.135688 
L 196.246162 58.193534 
L 193.550193 58.436229 
L 190.895112 58.849982 
L 187.001979 59.75182 
L 183.220647 60.922637 
L 178.330629 62.735712 
L 172.348344 65.011453 
L 168.751442 66.169242 
L 165.106606 67.062815 
L 162.638306 67.483927 
L 160.13389 67.754512 
L 157.590945 67.871928 
L 153.703831 67.769638 
L 149.736207 67.367471 
L 145.704738 66.731374 
L 130.866566 64.115431 
L 126.947802 63.80278 
L 124.392356 63.773746 
L 121.889701 63.908838 
L 119.445026 64.221948 
L 117.062697 64.723619 
L 114.746252 65.421041 
L 112.498404 66.318058 
L 110.321039 67.415157 
L 108.215217 68.709481 
L 106.181173 70.194819 
L 104.218316 71.861609 
L 102.325228 73.69694 
L 99.611281 76.729463 
L 97.038018 80.034809 
L 94.590201 83.526997 
L 90.734641 89.475239 
L 87.056167 95.068262 
L 84.873986 97.962909 
L 83.409788 99.597818 
L 81.933276 100.943636 
L 80.446915 101.96083 
L 78.959031 102.615301 
L 77.48381 102.878384 
L 76.041303 102.726844 
L 74.657085 102.143224 
L 73.358157 101.120067 
L 72.16847 99.664514 
L 71.108477 97.798773 
L 70.195129 95.560116 
L 69.441875 93.000883 
L 68.858663 90.188478 
L 68.452082 87.20379 
L 68.226458 84.128597 
L 68.184723 81.035765 
L 68.328463 77.988624 
L 68.657921 75.040962 
L 69.171999 72.237031 
L 69.868253 69.61154 
L 70.742897 67.189662 
L 71.790801 64.987029 
L 73.005493 63.009734 
L 74.379155 61.254331 
L 75.902629 59.707835 
L 77.565411 58.347721 
L 79.355671 57.142036 
L 82.252609 55.541572 
L 85.367493 54.090531 
L 92.104889 51.287605 
L 100.539068 47.711526 
L 108.029015 44.2694 
L 118.130289 39.633316 
L 123.169889 37.571246 
L 128.183853 35.796934 
L 131.925976 34.684293 
L 135.655041 33.767839 
L 139.376673 33.044577 
L 141.857758 32.663523 
L 141.857758 32.663523 
" clip-path="url(#p893f377562)" style="fill: none; stroke: #0000ff; stroke-width: 2; stroke-linecap: square"/>
   </g>
   <g id="line2d_2">
    <path d="M 143.062073 32.18051 
L 145.641938 32.199973 
L 152.076496 31.743705 
L 173.928069 29.85574 
L 180.376128 29.668275 
L 185.53661 29.739617 
L 190.689259 30.033661 
L 195.822668 30.563414 
L 200.92522 31.337361 
L 205.983651 32.358733 
L 210.985577 33.631216 
L 214.684552 34.772312 
L 218.325387 36.086548 
L 221.897668 37.576507 
L 225.391473 39.241758 
L 228.795598 41.082746 
L 232.094377 43.105851 
L 235.261859 45.329083 
L 238.253571 47.783161 
L 240.117725 49.56667 
L 241.846436 51.481693 
L 243.409142 53.534328 
L 244.795981 55.709835 
L 246.013724 57.984457 
L 247.072045 60.337599 
L 247.982554 62.751874 
L 249.100515 66.456897 
L 249.966328 70.229141 
L 250.825639 75.317616 
L 251.628565 81.718656 
L 252.749436 90.680678 
L 254.485369 102.163065 
L 258.441624 127.663359 
L 261.293089 146.806164 
L 263.682575 160.796897 
L 271.28275 202.691709 
L 272.40829 207.727479 
L 273.482626 211.446051 
L 274.359602 213.873033 
L 275.392439 216.237476 
L 276.599481 218.518249 
L 277.992256 220.690624 
L 279.574641 222.728633 
L 281.342643 224.607203 
L 283.285184 226.304672 
L 285.38486 227.805866 
L 287.615546 229.10561 
L 289.940543 230.213916 
L 292.342059 231.151563 
L 294.818643 231.865933 
L 297.363393 232.261548 
L 299.943237 232.29994 
L 302.505238 231.99738 
L 305.009927 231.383175 
L 307.431868 230.495553 
L 309.76126 229.384221 
L 313.104191 227.430716 
L 319.656261 223.305 
L 321.937832 222.104011 
L 324.310272 221.088081 
L 326.767979 220.304701 
L 329.294364 219.783907 
L 331.8648 219.540929 
L 334.439953 219.584078 
L 337.002735 219.858947 
L 340.810034 220.542151 
L 343.306522 221.189614 
L 345.753824 222.010861 
L 348.134292 223.009225 
L 350.4358 224.177121 
L 352.655457 225.493687 
L 355.85742 227.66874 
L 367.423024 235.895476 
L 377.938919 243.375997 
L 382.019046 246.536162 
L 383.889171 248.31318 
L 385.51974 250.311316 
L 386.828568 252.530751 
L 387.758354 254.935128 
L 388.067774 256.187628 
L 388.265988 257.459197 
L 388.343869 258.746689 
L 388.281309 260.033726 
L 388.047295 261.30064 
L 387.624882 262.516959 
L 387.037122 263.666152 
L 386.315108 264.73231 
L 385.478563 265.710492 
L 384.542265 266.596526 
L 383.521411 267.385354 
L 382.430434 268.074196 
L 381.282097 268.66154 
L 378.857445 269.533549 
L 376.327146 270.03625 
L 373.752172 270.264525 
L 366.016066 270.573399 
L 363.470479 271.027924 
L 361.027972 271.855923 
L 359.870492 272.431816 
L 358.773996 273.121689 
L 356.796483 274.745445 
L 355.91868 275.674144 
L 355.234168 276.77238 
L 354.798674 277.981166 
L 354.626147 279.261926 
L 354.73703 280.548118 
L 355.138267 281.771233 
L 355.823126 282.863748 
L 356.737116 283.771726 
L 357.78547 284.517013 
L 360.063464 285.709883 
L 362.472128 286.629979 
L 364.95971 287.342033 
L 372.465466 289.250852 
L 374.863396 290.176769 
L 376.000815 290.785209 
L 377.078724 291.49999 
L 378.07497 292.319783 
L 378.972599 293.242561 
L 379.756298 294.26508 
L 380.407869 295.379485 
L 380.907979 296.570975 
L 381.24123 297.81897 
L 381.399474 299.099986 
L 381.382296 300.389722 
L 381.196176 301.665547 
L 380.852649 302.909022 
L 380.366975 304.106522 
L 379.064929 306.329081 
L 377.469502 308.336402 
L 376.544007 309.233746 
L 375.532914 310.041237 
L 374.450571 310.748225 
L 373.308924 311.350499 
L 372.118148 311.846513 
L 369.630267 312.520737 
L 367.067174 312.804006 
L 364.487262 312.795035 
L 360.628622 312.494257 
L 356.797277 311.947632 
L 351.738466 310.927884 
L 346.729315 309.685695 
L 341.769961 308.257594 
L 336.867965 306.64356 
L 332.031485 304.842667 
L 327.269126 302.854 
L 322.589778 300.677197 
L 318.002396 298.312842 
L 313.515992 295.762193 
L 309.139827 293.026805 
L 304.883575 290.108239 
L 300.757778 287.007948 
L 296.774099 283.727133 
L 292.941197 280.271367 
L 289.259624 276.654783 
L 285.729055 272.890615 
L 282.350097 268.98974 
L 279.124871 264.960796 
L 276.057489 260.810452 
L 273.154311 256.543662 
L 270.424147 252.164172 
L 267.878288 247.675057 
L 265.530436 243.079308 
L 263.396557 238.380418 
L 261.491305 233.584268 
L 259.808012 228.705686 
L 258.329166 223.761207 
L 257.036635 218.764808 
L 255.654472 212.463532 
L 254.496853 206.116987 
L 253.350479 198.460748 
L 251.579013 185.680714 
L 250.84931 181.879868 
L 249.880971 178.132616 
L 248.632484 174.468806 
L 247.110692 170.909078 
L 245.37676 167.44967 
L 243.462677 164.089089 
L 241.281625 160.890419 
L 239.114725 157.683513 
L 237.854935 155.430961 
L 236.854362 153.049313 
L 236.202675 150.554309 
L 234.807549 142.948234 
L 234.537923 140.382061 
L 234.39862 136.511142 
L 234.501623 132.640767 
L 234.994284 124.919388 
L 235.81669 114.629561 
L 235.926552 109.469549 
L 235.790694 105.601511 
L 235.448336 101.746773 
L 234.711447 96.639606 
L 233.719909 91.57521 
L 232.762711 87.824298 
L 231.601054 84.131279 
L 230.234216 80.509936 
L 228.654085 76.977689 
L 226.828898 73.566601 
L 225.437901 71.393801 
L 223.866024 69.348831 
L 222.080085 67.488715 
L 220.09002 65.848226 
L 217.931502 64.435952 
L 215.637658 63.255383 
L 213.239096 62.304956 
L 210.764212 61.576332 
L 208.237641 61.053351 
L 205.679697 60.713313 
L 201.816226 60.48577 
L 197.946107 60.506686 
L 192.792094 60.758686 
L 185.074069 61.355062 
L 174.802182 62.402989 
L 167.122447 63.375911 
L 160.756616 64.403573 
L 150.57552 66.08872 
L 146.723151 66.480499 
L 142.854471 66.614273 
L 138.98747 66.444265 
L 132.566889 65.803977 
L 127.421872 65.404811 
L 124.842112 65.373043 
L 122.266696 65.513586 
L 119.71327 65.872473 
L 117.206415 66.482674 
L 114.766196 67.318002 
L 112.398415 68.341428 
L 110.110018 69.533468 
L 107.914322 70.885788 
L 105.819046 72.390231 
L 103.829911 74.033368 
L 101.951474 75.802573 
L 100.186018 77.684997 
L 97.747024 80.690986 
L 95.542962 83.872213 
L 93.539031 87.184325 
L 91.10516 91.735825 
L 87.66308 98.666796 
L 86.943603 99.737652 
L 86.109237 100.721501 
L 85.154986 101.589515 
L 84.090915 102.31935 
L 82.936795 102.89754 
L 81.716592 103.318236 
L 80.455428 103.580471 
L 79.171442 103.68651 
L 77.880578 103.63688 
L 76.612197 103.43367 
L 75.370877 103.094175 
L 74.1676 102.636271 
L 73.018096 102.060556 
L 71.936123 101.352365 
L 70.952838 100.511143 
L 70.097794 99.547888 
L 69.387754 98.472758 
L 68.836292 97.307367 
L 68.443375 96.078229 
L 68.192837 94.811862 
L 67.987044 92.243541 
L 67.93318 87.080108 
L 68.062369 78.049425 
L 68.302492 75.478014 
L 68.739118 72.934313 
L 69.409521 70.443596 
L 70.334239 68.035965 
L 71.51826 65.744166 
L 72.955605 63.603031 
L 74.640117 61.653908 
L 76.582721 59.95986 
L 78.759739 58.579698 
L 81.076965 57.447786 
L 90.534335 53.323079 
L 105.531847 45.81441 
L 110.304756 43.851664 
L 115.162932 42.107848 
L 124.979282 38.916585 
L 131.08615 36.837892 
L 135.901745 34.982779 
L 139.462965 33.466459 
L 141.788557 32.351231 
L 141.788557 32.351231 
" clip-path="url(#p893f377562)" style="fill: none; stroke: #ff0000; stroke-width: 2; stroke-linecap: square"/>
   </g>
   <g id="line2d_3">
    <path d="M 143.899649 39.358827 
L 148.569532 38.590951 
L 149.751355 38.47514 
L 150.950028 38.521427 
L 153.34595 38.078456 
L 154.568478 38.150657 
L 157.025364 37.701052 
L 158.272294 37.754003 
L 162.062287 37.338698 
L 164.630442 37.340025 
L 167.233551 37.139881 
L 173.856039 37.093065 
L 177.894687 37.211917 
L 179.239185 37.491885 
L 181.956652 37.647865 
L 183.326505 37.602154 
L 184.685821 37.797439 
L 188.791462 38.028437 
L 191.511549 38.435056 
L 192.888787 38.380132 
L 196.934251 39.08374 
L 200.925232 39.816028 
L 204.850395 40.47276 
L 206.129085 40.755182 
L 207.37139 41.183292 
L 213.43816 42.722241 
L 223.071802 45.945892 
L 223.986147 46.463394 
L 226.817372 47.695014 
L 228.541398 48.731074 
L 231.23857 50.137833 
L 233.13177 51.056292 
L 235.513679 51.645286 
L 236.802528 51.945126 
L 238.625162 53.315996 
L 239.426471 54.122133 
L 240.093358 55.037576 
L 241.028583 57.133987 
L 241.403151 58.230821 
L 241.799543 60.582674 
L 242.49236 67.61504 
L 242.560509 73.513754 
L 242.830045 75.833268 
L 242.803569 77.031077 
L 243.245441 79.373297 
L 243.487901 81.785945 
L 243.760567 84.237115 
L 244.403398 86.706213 
L 245.007812 91.833773 
L 246.837252 103.806401 
L 247.264206 105.14633 
L 247.881511 110.583992 
L 250.127986 125.533737 
L 250.510609 126.861552 
L 251.368652 133.685449 
L 252.37851 140.490283 
L 253.046112 143.1392 
L 253.772701 148.58285 
L 255.186621 156.540812 
L 256.385135 160.26893 
L 257.81623 163.8429 
L 258.41549 164.982502 
L 259.363448 167.316974 
L 260.054093 168.41823 
L 260.595938 169.558223 
L 261.024435 170.725573 
L 261.269472 171.935707 
L 262.183623 174.247621 
L 262.45233 175.446622 
L 263.22448 177.796358 
L 263.489274 180.254968 
L 264.615119 186.384931 
L 266.686434 198.042763 
L 267.096129 200.802172 
L 267.528959 202.158169 
L 268.08862 204.975974 
L 269.029339 210.844624 
L 269.944664 215.353881 
L 270.134032 216.935596 
L 271.317231 219.819375 
L 273.405476 224.028528 
L 275.14253 226.641419 
L 277.154729 229.039427 
L 281.448988 233.492406 
L 284.013794 235.212875 
L 289.410395 238.191342 
L 292.392864 239.191937 
L 293.936708 239.626758 
L 295.524616 239.897434 
L 300.316764 239.591535 
L 301.891899 239.306908 
L 303.437407 238.895574 
L 307.929945 237.229441 
L 309.393141 236.587144 
L 310.690567 235.616054 
L 314.678634 233.059435 
L 315.893947 232.069014 
L 317.193848 231.264735 
L 319.612155 229.516098 
L 322.059234 228.097137 
L 324.108914 226.31102 
L 325.209001 225.700492 
L 327.36297 224.77065 
L 328.353007 224.324052 
L 331.957057 223.178637 
L 333.565943 223.084466 
L 335.76758 223.475294 
L 336.444271 223.818485 
L 337.045843 224.398946 
L 339.065274 225.774816 
L 342.312964 228.075433 
L 343.221832 228.784296 
L 345.329145 230.097441 
L 346.343612 230.926906 
L 348.633867 232.448179 
L 349.747648 233.3313 
L 351.010397 234.069052 
L 353.370664 235.867671 
L 354.679116 236.640805 
L 355.800366 237.689198 
L 359.528932 240.43056 
L 360.865448 241.218279 
L 364.53066 244.044749 
L 365.795972 244.881437 
L 368.190564 246.660894 
L 373.8506 250.530957 
L 374.937306 251.116814 
L 376.764988 252.480434 
L 378.561775 253.51093 
L 379.311623 254.070109 
L 380.784277 254.99596 
L 381.847722 256.010213 
L 384.072814 257.633372 
L 384.390463 258.127773 
L 384.630157 259.166614 
L 384.657449 260.227303 
L 384.448034 260.726456 
L 383.142497 261.89986 
L 381.640765 262.067208 
L 378.517862 261.939166 
L 377.624502 261.852858 
L 374.488094 262.11494 
L 368.790113 262.583245 
L 361.840908 263.420605 
L 360.006646 263.861664 
L 356.355081 265.098954 
L 354.60144 266.004524 
L 352.939785 267.118074 
L 351.372292 268.402467 
L 349.973524 269.902817 
L 348.78642 271.591292 
L 347.830032 273.424525 
L 347.146209 275.370243 
L 346.740406 277.384689 
L 346.632991 279.430313 
L 346.808532 281.474921 
L 347.248038 283.49947 
L 348.042739 285.437784 
L 349.182196 287.22441 
L 350.632732 288.789694 
L 352.418621 289.963821 
L 354.303139 290.844953 
L 356.203355 291.46887 
L 358.048557 291.954723 
L 359.857741 292.236889 
L 363.271301 292.412935 
L 364.851026 292.440982 
L 369.844246 293.016581 
L 370.709441 292.789984 
L 371.43334 292.793208 
L 373.027532 293.303057 
L 373.811128 294.209529 
L 374.090823 294.897812 
L 375.014949 300.378744 
L 375.389357 301.224741 
L 375.810146 303.866999 
L 375.903234 304.409703 
L 375.598569 305.203185 
L 375.280509 305.54483 
L 374.730692 305.628495 
L 373.41979 306.060441 
L 371.590215 305.793284 
L 370.583939 305.766206 
L 369.512348 305.924123 
L 368.380338 305.860695 
L 367.216961 305.556188 
L 366.01503 305.422905 
L 364.796739 305.173906 
L 363.574248 304.799307 
L 358.556569 303.934231 
L 353.567356 302.913122 
L 352.307222 302.746659 
L 348.612691 301.804237 
L 347.361099 301.592596 
L 344.921241 300.886878 
L 343.673771 300.651391 
L 341.269231 299.825104 
L 338.793752 299.265225 
L 325.613494 294.714916 
L 323.299022 293.690076 
L 317.386551 291.413114 
L 311.766955 288.553883 
L 309.461375 287.510249 
L 303.808584 284.668427 
L 302.734825 284.008496 
L 297.93599 279.969827 
L 297.033901 279.103557 
L 296.242705 278.1104 
L 295.361658 277.233093 
L 294.392502 276.460959 
L 292.847169 274.488371 
L 292.004847 273.588498 
L 291.071741 272.78593 
L 284.702942 265.333547 
L 283.356937 263.281232 
L 282.595188 262.330074 
L 281.724579 261.46145 
L 278.838454 257.514707 
L 278.189534 256.475375 
L 276.752016 254.485829 
L 276.095192 253.447695 
L 274.611814 251.46654 
L 272.030513 247.234626 
L 270.85609 245.039467 
L 269.608643 242.868299 
L 268.587469 240.577617 
L 267.420728 238.341074 
L 265.869949 234.875147 
L 262.523717 225.2262 
L 262.26599 223.961333 
L 261.527493 221.494044 
L 261.304728 220.217397 
L 260.607494 217.728443 
L 260.143221 215.17558 
L 259.735398 212.608525 
L 259.042292 210.10009 
L 256.945865 198.556873 
L 256.838768 197.254005 
L 256.858586 195.934444 
L 256.014887 190.795376 
L 252.745473 171.255036 
L 252.321144 166.874459 
L 251.203685 160.454626 
L 250.733784 158.825207 
L 250.076123 157.309535 
L 248.849978 156.272516 
L 247.173106 155.727955 
L 245.258179 155.546597 
L 243.7358 155.136787 
L 242.667472 154.396373 
L 240.867238 152.896432 
L 240.252792 152.067507 
L 239.852922 151.204285 
L 239.620083 150.370872 
L 239.347049 147.138972 
L 239.304111 145.68913 
L 239.449336 143.80076 
L 240.158433 140.189299 
L 240.581531 138.852895 
L 240.907528 137.433626 
L 241.500952 131.309486 
L 241.880162 129.778285 
L 242.368802 125.106179 
L 241.660978 117.749479 
L 240.830874 113.686583 
L 239.506939 105.914007 
L 239.384393 104.635682 
L 239.373568 103.34663 
L 238.61548 98.315739 
L 238.159325 95.789292 
L 238.125685 94.496231 
L 237.749755 91.915336 
L 237.522594 90.613571 
L 236.738673 88.013832 
L 234.222967 74.168607 
L 233.749641 72.759664 
L 233.087424 71.422398 
L 231.983963 68.556893 
L 231.485939 67.019962 
L 230.767122 65.587505 
L 229.868263 64.260307 
L 227.69379 61.880321 
L 226.408189 60.884373 
L 223.555607 59.278463 
L 222.017028 58.677351 
L 215.790593 56.845394 
L 214.228748 56.514587 
L 212.634213 56.327281 
L 203.564755 54.575218 
L 195.994768 53.699375 
L 194.486083 53.765679 
L 192.941585 53.502752 
L 191.406416 53.420739 
L 188.348013 53.428324 
L 185.211401 53.20207 
L 183.604334 52.997771 
L 182.084702 53.088233 
L 180.638212 53.362211 
L 179.27535 53.80928 
L 178.075804 54.613165 
L 173.741035 58.023606 
L 172.632805 58.597595 
L 169.16218 59.447748 
L 167.982639 59.471163 
L 164.735502 59.905066 
L 162.71292 60.470177 
L 159.593511 60.72399 
L 149.108362 62.456671 
L 147.738755 62.829243 
L 144.98836 63.082047 
L 143.593617 63.129344 
L 142.220729 62.984489 
L 138.170599 61.92344 
L 131.453015 58.988169 
L 127.190792 57.823891 
L 124.260179 57.228024 
L 122.774822 57.164253 
L 121.291925 57.263605 
L 118.3643 57.800625 
L 115.44442 58.373871 
L 112.601124 59.277467 
L 109.870093 60.485859 
L 107.282337 61.97503 
L 102.347051 65.337783 
L 101.086192 66.172428 
L 98.814203 68.17017 
L 96.664557 70.319654 
L 93.596703 73.720332 
L 91.708489 76.11824 
L 89.173617 79.878536 
L 88.473874 81.201602 
L 85.083986 85.871815 
L 84.536248 87.147881 
L 83.140094 89.366137 
L 82.083025 91.578389 
L 81.258487 93.686674 
L 80.085491 97.470617 
L 79.736926 98.19917 
L 78.920475 99.255101 
L 78.124455 99.935219 
L 77.749081 100.16386 
L 76.792082 99.819301 
L 76.577064 99.556187 
L 76.449628 99.142516 
L 76.052812 98.412617 
L 75.843333 97.175743 
L 75.669833 95.60749 
L 75.851302 88.997363 
L 75.737387 86.445088 
L 75.360319 83.819573 
L 75.365867 82.48327 
L 75.607187 81.158507 
L 75.735964 78.572273 
L 75.640048 76.063753 
L 75.238476 72.422618 
L 74.876987 71.169945 
L 74.834015 70.017311 
L 75.028601 67.860117 
L 75.459957 66.974553 
L 76.542147 65.465507 
L 78.703906 62.788549 
L 79.420971 62.311566 
L 80.224353 61.942088 
L 82.295364 61.899885 
L 84.459546 62.053716 
L 86.604975 62.057456 
L 87.678784 61.967363 
L 90.890779 61.149259 
L 91.901278 60.540946 
L 92.859423 59.711443 
L 93.792945 58.737174 
L 95.865839 57.087483 
L 96.901248 56.179096 
L 97.894816 55.130268 
L 100.051018 53.343427 
L 103.606529 51.228114 
L 104.812469 50.534682 
L 107.304856 49.291594 
L 109.72914 47.885883 
L 115.017816 46.100397 
L 122.626738 43.389237 
L 123.918552 43.116429 
L 128.789172 41.693272 
L 131.19099 41.153572 
L 142.856863 39.517291 
L 142.856863 39.517291 
" clip-path="url(#p893f377562)" style="fill: none; stroke: #008000; stroke-linecap: square"/>
   </g>
   <g id="line2d_4">
    <path d="M 142.502784 27.387209 
L 149.005856 26.673724 
L 150.300716 26.352564 
L 152.92372 26.28816 
L 154.227704 25.985391 
L 156.859519 26.014229 
L 158.175262 25.773396 
L 162.147463 25.720751 
L 164.815419 25.490042 
L 167.496267 25.524591 
L 174.279029 25.482507 
L 178.402655 25.545809 
L 179.795808 25.368958 
L 181.186124 25.368182 
L 186.767272 25.824826 
L 188.162891 26.086801 
L 192.400501 26.365687 
L 193.796041 26.756542 
L 199.46558 27.382529 
L 202.286972 27.878702 
L 207.876003 29.153645 
L 209.286649 29.343483 
L 214.779141 30.798831 
L 217.479736 31.602804 
L 220.17812 32.347823 
L 222.795874 33.30278 
L 226.615622 34.903062 
L 227.847797 35.504797 
L 229.160813 35.929563 
L 230.40371 36.504188 
L 231.578424 37.201784 
L 234.140953 38.248355 
L 236.583005 39.551394 
L 237.750854 40.295583 
L 244.514664 43.4165 
L 245.85137 44.182943 
L 247.382117 44.833453 
L 248.700954 45.703128 
L 249.89772 46.696429 
L 250.953114 47.809773 
L 251.797113 49.069856 
L 252.459761 50.43582 
L 252.936704 51.892785 
L 253.492505 54.941272 
L 253.628191 56.489769 
L 253.621005 61.124402 
L 253.506428 62.650949 
L 253.831856 68.309186 
L 254.37065 73.768438 
L 254.657087 75.098474 
L 254.796786 77.823471 
L 255.605161 83.193814 
L 255.692282 85.904119 
L 256.81317 92.597527 
L 258.45122 103.197907 
L 258.437425 104.518077 
L 259.465514 109.692461 
L 261.620711 123.650149 
L 261.632853 124.938493 
L 262.921258 132.476214 
L 263.750243 138.878682 
L 263.819093 140.197693 
L 265.512933 149.19853 
L 268.177022 158.016196 
L 272.032788 167.934676 
L 272.68521 169.138314 
L 273.777915 172.963802 
L 274.202794 175.57149 
L 274.645854 176.825451 
L 275.184692 179.396579 
L 278.013177 194.676351 
L 278.616514 197.175267 
L 278.816449 198.445409 
L 278.906573 201.06484 
L 279.602835 206.263097 
L 280.225834 210.190198 
L 280.637858 211.433745 
L 281.211684 212.608854 
L 281.960496 215.089984 
L 282.434693 216.273676 
L 283.018591 217.387637 
L 285.206374 220.302828 
L 286.698707 221.987541 
L 288.199074 223.404812 
L 289.723034 224.451455 
L 291.323295 226.215219 
L 293.647192 227.797976 
L 294.299444 228.081888 
L 295.751807 228.343351 
L 296.557998 228.652362 
L 297.427685 228.724423 
L 299.297338 228.470849 
L 301.342215 227.937391 
L 302.378091 227.452605 
L 304.35857 225.944787 
L 305.490745 225.35347 
L 308.793436 222.88106 
L 310.042084 222.175361 
L 311.231278 221.309947 
L 313.779459 219.729122 
L 316.20928 217.834826 
L 318.934246 216.414101 
L 321.45903 214.573646 
L 324.226779 213.177544 
L 325.656173 212.562861 
L 327.153161 212.140675 
L 330.221871 211.623066 
L 333.325481 211.46643 
L 334.87302 211.553482 
L 336.401057 211.767591 
L 339.305427 212.700443 
L 340.748944 213.064712 
L 342.079078 213.715984 
L 345.755212 215.971557 
L 346.846954 216.868294 
L 350.317107 219.1363 
L 352.469873 220.853892 
L 353.65237 221.581824 
L 355.865429 223.255874 
L 357.051455 224.004039 
L 358.112638 224.920573 
L 360.463683 226.485075 
L 361.539542 227.412847 
L 362.808928 228.088184 
L 366.318289 230.566574 
L 367.40388 231.534763 
L 371.007495 233.973093 
L 372.155347 234.879578 
L 374.55165 236.541557 
L 378.128649 239.045694 
L 380.464147 240.759158 
L 381.585128 241.668053 
L 384.024997 243.180217 
L 386.274456 244.916441 
L 387.438101 245.743308 
L 389.616217 247.594578 
L 390.818071 248.478968 
L 391.890089 249.518217 
L 392.837828 250.689586 
L 393.643532 251.984532 
L 395.031607 254.814882 
L 396.191641 257.986102 
L 396.594618 259.728481 
L 396.791611 261.561543 
L 396.649689 263.425133 
L 396.341336 265.315374 
L 395.855397 267.216706 
L 394.579674 268.716029 
L 392.98656 269.897528 
L 391.153731 270.712123 
L 387.307927 271.477095 
L 385.529028 271.725663 
L 377.435727 273.475431 
L 372.348075 273.986201 
L 365.755048 274.679181 
L 364.303178 274.985449 
L 361.072482 276.205202 
L 359.808285 276.94567 
L 358.841859 277.250281 
L 358.537771 277.643066 
L 358.289154 278.187789 
L 358.123963 278.837853 
L 358.320334 280.116495 
L 358.589212 280.645152 
L 359.415255 281.285421 
L 359.883697 281.448783 
L 361.015846 281.46042 
L 362.489678 281.429381 
L 364.542903 281.396558 
L 368.798472 280.859144 
L 370.51435 280.780188 
L 374.226455 281.33282 
L 376.248939 281.646125 
L 378.26137 282.336656 
L 380.178476 283.37465 
L 381.804854 284.838827 
L 382.95872 286.690064 
L 384.343107 290.625199 
L 384.879123 292.513775 
L 385.769167 298.079738 
L 385.93086 299.882903 
L 385.866648 301.664486 
L 386.124785 305.295602 
L 385.982227 307.170416 
L 385.69723 309.126284 
L 385.22433 311.185484 
L 384.416327 313.255741 
L 382.899461 314.774207 
L 380.984929 315.62374 
L 379.077805 316.108785 
L 377.243216 316.255187 
L 375.539895 316.250899 
L 374.000027 316.585013 
L 372.476879 316.730202 
L 370.981083 316.731818 
L 369.514921 316.489106 
L 368.078177 316.398347 
L 366.648629 316.494799 
L 363.838391 316.316285 
L 362.434985 316.356752 
L 354.253342 315.167343 
L 352.894226 314.95532 
L 348.877441 313.972033 
L 346.185499 313.400018 
L 344.865974 312.988793 
L 342.175583 312.398489 
L 340.864371 311.958817 
L 338.16219 311.38951 
L 335.54682 310.486912 
L 331.523392 309.456507 
L 318.439315 304.800841 
L 314.650746 303.047893 
L 308.330158 300.12831 
L 307.029351 299.603341 
L 300.848702 296.363032 
L 293.674288 292.028676 
L 287.435044 286.471458 
L 286.555793 285.373045 
L 284.480682 283.547464 
L 283.542421 282.529537 
L 282.704584 281.412155 
L 280.772086 279.453493 
L 279.099355 277.253899 
L 276.430762 274.128782 
L 275.623918 273.019088 
L 273.753083 271.016299 
L 272.930585 269.921913 
L 272.227936 268.73661 
L 268.106359 263.279934 
L 266.584058 261.003181 
L 265.788157 259.885023 
L 264.418821 257.508303 
L 260.782711 251.667926 
L 257.582253 245.550899 
L 255.54453 240.405361 
L 254.384098 237.885286 
L 252.510277 232.663492 
L 250.58459 225.996478 
L 250.271518 224.643449 
L 249.844323 223.322477 
L 248.995243 219.247271 
L 247.977528 215.220308 
L 247.666326 212.460464 
L 246.985846 208.381373 
L 245.800658 200.245841 
L 245.502008 198.912995 
L 245.081942 197.598929 
L 244.325077 192.238242 
L 242.959788 183.036008 
L 241.867823 175.777278 
L 241.355585 172.634229 
L 241.107512 171.700934 
L 240.905887 167.845787 
L 240.404779 165.890723 
L 239.668541 165.163528 
L 238.801139 164.508282 
L 237.761679 163.96451 
L 236.47374 163.605767 
L 233.227341 163.326652 
L 231.926717 162.697658 
L 231.107176 161.469495 
L 230.521861 159.927845 
L 228.591108 153.29555 
L 227.963675 149.953118 
L 227.695086 146.637417 
L 227.810219 143.407474 
L 228.249813 140.336702 
L 229.181182 136.115988 
L 229.540135 134.81159 
L 230.548694 132.380422 
L 230.918275 131.182011 
L 231.097368 129.981565 
L 230.414146 123.086283 
L 229.285099 115.776827 
L 228.446732 109.14556 
L 228.121932 106.42874 
L 227.814216 105.087701 
L 226.897979 96.94758 
L 226.244751 94.33441 
L 225.800656 91.766697 
L 225.666207 89.259789 
L 223.80598 78.476114 
L 223.695031 77.434029 
L 223.696159 76.309664 
L 223.476945 75.263663 
L 223.096906 74.285014 
L 221.244733 71.746021 
L 220.53279 70.948661 
L 217.600181 69.357414 
L 213.240269 67.998335 
L 209.793141 67.506198 
L 208.729312 67.17789 
L 205.390018 66.734252 
L 203.180358 66.605172 
L 198.865003 65.81809 
L 197.770422 65.866217 
L 196.67107 65.789617 
L 195.542243 65.498014 
L 194.422944 65.51088 
L 193.264208 65.342317 
L 190.823742 64.810954 
L 189.577563 64.656404 
L 188.331486 64.615014 
L 183.335303 65.123914 
L 182.16583 65.586436 
L 178.941769 67.849647 
L 176.465599 68.687371 
L 175.260851 69.250876 
L 172.686289 70.024252 
L 171.41966 70.519541 
L 168.725136 71.052662 
L 167.365546 71.285717 
L 164.574901 71.383964 
L 160.469865 72.125675 
L 147.377286 73.96635 
L 144.417453 73.965388 
L 141.50657 73.905013 
L 138.707596 73.678626 
L 137.366909 73.462977 
L 131.266488 71.184461 
L 128.984586 70.111532 
L 125.600496 69.343696 
L 123.435847 69.410144 
L 120.31171 69.3715 
L 118.370518 69.855204 
L 116.512362 70.47912 
L 112.910917 72.051766 
L 111.128589 73.045366 
L 109.490943 74.38761 
L 107.912571 75.924386 
L 105.404225 78.346783 
L 103.753956 80.170374 
L 98.837955 86.388166 
L 97.910491 87.428272 
L 95.789663 91.038964 
L 95.145735 92.288195 
L 94.273051 93.389241 
L 91.78219 98.384722 
L 90.085248 102.27559 
L 88.870053 104.965544 
L 88.089675 106.252097 
L 87.172455 107.490293 
L 86.036594 108.576208 
L 84.708884 109.515488 
L 83.181948 110.245744 
L 81.492163 110.749978 
L 75.839008 111.593909 
L 73.790533 111.443407 
L 71.71868 111.079202 
L 69.664516 110.500759 
L 68.113842 109.153284 
L 66.929696 107.579053 
L 66.08712 105.889775 
L 65.553152 104.144684 
L 65.242623 102.404787 
L 64.951706 99.040865 
L 64.595743 94.204254 
L 64.181621 87.648522 
L 64.394065 82.631325 
L 64.187815 80.96967 
L 64.153601 77.659679 
L 64.099969 72.740057 
L 64.008389 69.44451 
L 64.221197 67.854529 
L 64.253916 64.491547 
L 64.537142 62.868799 
L 64.779479 59.302435 
L 65.32978 57.679891 
L 66.14687 56.215437 
L 67.262183 54.996082 
L 68.797655 54.22518 
L 70.529804 53.799054 
L 72.319499 53.629791 
L 75.714655 53.673175 
L 78.590427 53.603299 
L 81.152698 53.348371 
L 83.434802 52.64767 
L 84.53836 52.20344 
L 85.529461 51.474383 
L 88.417034 48.86541 
L 89.437809 48.077356 
L 91.354413 46.130886 
L 92.376259 45.28591 
L 94.563979 43.887205 
L 100.026846 40.029055 
L 101.158795 39.279882 
L 102.36134 38.65772 
L 104.91578 37.646966 
L 107.366372 36.301948 
L 111.331239 34.736375 
L 116.867629 33.102828 
L 118.289154 32.800419 
L 119.643655 32.348242 
L 125.214373 31.133677 
L 127.937093 30.513093 
L 131.915221 29.424132 
L 138.532345 28.062968 
L 141.117473 27.585237 
L 141.117473 27.585237 
" clip-path="url(#p893f377562)" style="fill: none; stroke: #008000; stroke-linecap: square"/>
   </g>
   <g id="patch_3">
    <path d="M 47.369228 331.3 
L 47.369228 10.8 
" style="fill: none; stroke: #000000; stroke-width: 0.8; stroke-linejoin: miter; stroke-linecap: square"/>
   </g>
   <g id="patch_4">
    <path d="M 413.430772 331.3 
L 413.430772 10.8 
" style="fill: none; stroke: #000000; stroke-width: 0.8; stroke-linejoin: miter; stroke-linecap: square"/>
   </g>
   <g id="patch_5">
    <path d="M 47.369228 331.3 
L 413.430772 331.3 
" style="fill: none; stroke: #000000; stroke-width: 0.8; stroke-linejoin: miter; stroke-linecap: square"/>
   </g>
   <g id="patch_6">
    <path d="M 47.369228 10.8 
L 413.430772 10.8 
" style="fill: none; stroke: #000000; stroke-width: 0.8; stroke-linejoin: miter; stroke-linecap: square"/>
   </g>
   <g id="legend_1">
    <g id="patch_7">
     <path d="M 318.047959 62.834375 
L 406.430772 62.834375 
Q 408.430772 62.834375 408.430772 60.834375 
L 408.430772 17.8 
Q 408.430772 15.8 406.430772 15.8 
L 318.047959 15.8 
Q 316.047959 15.8 316.047959 17.8 
L 316.047959 60.834375 
Q 316.047959 62.834375 318.047959 62.834375 
z
" style="fill: #ffffff; opacity: 0.8; stroke: #cccccc; stroke-linejoin: miter"/>
    </g>
    <g id="line2d_5">
     <path d="M 320.047959 23.898437 
L 330.047959 23.898437 
L 340.047959 23.898437 
" style="fill: none; stroke: #0000ff; stroke-width: 2; stroke-linecap: square"/>
    </g>
    <g id="text_1">
     <!-- Track -->
     <g transform="translate(348.047959 27.398437)scale(0.1 -0.1)">
      <defs>
       <path id="DejaVuSans-54" d="M -19 4666 
L 3928 4666 
L 3928 4134 
L 2272 4134 
L 2272 0 
L 1638 0 
L 1638 4134 
L -19 4134 
L -19 4666 
z
" transform="scale(0.015625)"/>
       <path id="DejaVuSans-72" d="M 2631 2963 
Q 2534 3019 2420 3045 
Q 2306 3072 2169 3072 
Q 1681 3072 1420 2755 
Q 1159 2438 1159 1844 
L 1159 0 
L 581 0 
L 581 3500 
L 1159 3500 
L 1159 2956 
Q 1341 3275 1631 3429 
Q 1922 3584 2338 3584 
Q 2397 3584 2469 3576 
Q 2541 3569 2628 3553 
L 2631 2963 
z
" transform="scale(0.015625)"/>
       <path id="DejaVuSans-61" d="M 2194 1759 
Q 1497 1759 1228 1600 
Q 959 1441 959 1056 
Q 959 750 1161 570 
Q 1363 391 1709 391 
Q 2188 391 2477 730 
Q 2766 1069 2766 1631 
L 2766 1759 
L 2194 1759 
z
M 3341 1997 
L 3341 0 
L 2766 0 
L 2766 531 
Q 2569 213 2275 61 
Q 1981 -91 1556 -91 
Q 1019 -91 701 211 
Q 384 513 384 1019 
Q 384 1609 779 1909 
Q 1175 2209 1959 2209 
L 2766 2209 
L 2766 2266 
Q 2766 2663 2505 2880 
Q 2244 3097 1772 3097 
Q 1472 3097 1187 3025 
Q 903 2953 641 2809 
L 641 3341 
Q 956 3463 1253 3523 
Q 1550 3584 1831 3584 
Q 2591 3584 2966 3190 
Q 3341 2797 3341 1997 
z
" transform="scale(0.015625)"/>
       <path id="DejaVuSans-63" d="M 3122 3366 
L 3122 2828 
Q 2878 2963 2633 3030 
Q 2388 3097 2138 3097 
Q 1578 3097 1268 2742 
Q 959 2388 959 1747 
Q 959 1106 1268 751 
Q 1578 397 2138 397 
Q 2388 397 2633 464 
Q 2878 531 3122 666 
L 3122 134 
Q 2881 22 2623 -34 
Q 2366 -91 2075 -91 
Q 1284 -91 818 406 
Q 353 903 353 1747 
Q 353 2603 823 3093 
Q 1294 3584 2113 3584 
Q 2378 3584 2631 3529 
Q 2884 3475 3122 3366 
z
" transform="scale(0.015625)"/>
       <path id="DejaVuSans-6b" d="M 581 4863 
L 1159 4863 
L 1159 1991 
L 2875 3500 
L 3609 3500 
L 1753 1863 
L 3688 0 
L 2938 0 
L 1159 1709 
L 1159 0 
L 581 0 
L 581 4863 
z
" transform="scale(0.015625)"/>
      </defs>
      <use xlink:href="#DejaVuSans-54"/>
      <use xlink:href="#DejaVuSans-72" x="46.333984"/>
      <use xlink:href="#DejaVuSans-61" x="87.447266"/>
      <use xlink:href="#DejaVuSans-63" x="148.726562"/>
      <use xlink:href="#DejaVuSans-6b" x="203.707031"/>
     </g>
    </g>
    <g id="line2d_6">
     <path d="M 320.047959 38.576562 
L 330.047959 38.576562 
L 340.047959 38.576562 
" style="fill: none; stroke: #ff0000; stroke-width: 2; stroke-linecap: square"/>
    </g>
    <g id="text_2">
     <!-- Raceline -->
     <g transform="translate(348.047959 42.076562)scale(0.1 -0.1)">
      <defs>
       <path id="DejaVuSans-52" d="M 2841 2188 
Q 3044 2119 3236 1894 
Q 3428 1669 3622 1275 
L 4263 0 
L 3584 0 
L 2988 1197 
Q 2756 1666 2539 1819 
Q 2322 1972 1947 1972 
L 1259 1972 
L 1259 0 
L 628 0 
L 628 4666 
L 2053 4666 
Q 2853 4666 3247 4331 
Q 3641 3997 3641 3322 
Q 3641 2881 3436 2590 
Q 3231 2300 2841 2188 
z
M 1259 4147 
L 1259 2491 
L 2053 2491 
Q 2509 2491 2742 2702 
Q 2975 2913 2975 3322 
Q 2975 3731 2742 3939 
Q 2509 4147 2053 4147 
L 1259 4147 
z
" transform="scale(0.015625)"/>
       <path id="DejaVuSans-65" d="M 3597 1894 
L 3597 1613 
L 953 1613 
Q 991 1019 1311 708 
Q 1631 397 2203 397 
Q 2534 397 2845 478 
Q 3156 559 3463 722 
L 3463 178 
Q 3153 47 2828 -22 
Q 2503 -91 2169 -91 
Q 1331 -91 842 396 
Q 353 884 353 1716 
Q 353 2575 817 3079 
Q 1281 3584 2069 3584 
Q 2775 3584 3186 3129 
Q 3597 2675 3597 1894 
z
M 3022 2063 
Q 3016 2534 2758 2815 
Q 2500 3097 2075 3097 
Q 1594 3097 1305 2825 
Q 1016 2553 972 2059 
L 3022 2063 
z
" transform="scale(0.015625)"/>
       <path id="DejaVuSans-6c" d="M 603 4863 
L 1178 4863 
L 1178 0 
L 603 0 
L 603 4863 
z
" transform="scale(0.015625)"/>
       <path id="DejaVuSans-69" d="M 603 3500 
L 1178 3500 
L 1178 0 
L 603 0 
L 603 3500 
z
M 603 4863 
L 1178 4863 
L 1178 4134 
L 603 4134 
L 603 4863 
z
" transform="scale(0.015625)"/>
       <path id="DejaVuSans-6e" d="M 3513 2113 
L 3513 0 
L 2938 0 
L 2938 2094 
Q 2938 2591 2744 2837 
Q 2550 3084 2163 3084 
Q 1697 3084 1428 2787 
Q 1159 2491 1159 1978 
L 1159 0 
L 581 0 
L 581 3500 
L 1159 3500 
L 1159 2956 
Q 1366 3272 1645 3428 
Q 1925 3584 2291 3584 
Q 2894 3584 3203 3211 
Q 3513 2838 3513 2113 
z
" transform="scale(0.015625)"/>
      </defs>
      <use xlink:href="#DejaVuSans-52"/>
      <use xlink:href="#DejaVuSans-61" x="67.232422"/>
      <use xlink:href="#DejaVuSans-63" x="128.511719"/>
      <use xlink:href="#DejaVuSans-65" x="183.492188"/>
      <use xlink:href="#DejaVuSans-6c" x="245.015625"/>
      <use xlink:href="#DejaVuSans-69" x="272.798828"/>
      <use xlink:href="#DejaVuSans-6e" x="300.582031"/>
      <use xlink:href="#DejaVuSans-65" x="363.960938"/>
     </g>
    </g>
    <g id="line2d_7">
     <path d="M 320.047959 53.254687 
L 330.047959 53.254687 
L 340.047959 53.254687 
" style="fill: none; stroke: #008000; stroke-linecap: square"/>
    </g>
    <g id="text_3">
     <!-- Boundaries -->
     <g transform="translate(348.047959 56.754687)scale(0.1 -0.1)">
      <defs>
       <path id="DejaVuSans-42" d="M 1259 2228 
L 1259 519 
L 2272 519 
Q 2781 519 3026 730 
Q 3272 941 3272 1375 
Q 3272 1813 3026 2020 
Q 2781 2228 2272 2228 
L 1259 2228 
z
M 1259 4147 
L 1259 2741 
L 2194 2741 
Q 2656 2741 2882 2914 
Q 3109 3088 3109 3444 
Q 3109 3797 2882 3972 
Q 2656 4147 2194 4147 
L 1259 4147 
z
M 628 4666 
L 2241 4666 
Q 2963 4666 3353 4366 
Q 3744 4066 3744 3513 
Q 3744 3084 3544 2831 
Q 3344 2578 2956 2516 
Q 3422 2416 3680 2098 
Q 3938 1781 3938 1306 
Q 3938 681 3513 340 
Q 3088 0 2303 0 
L 628 0 
L 628 4666 
z
" transform="scale(0.015625)"/>
       <path id="DejaVuSans-6f" d="M 1959 3097 
Q 1497 3097 1228 2736 
Q 959 2375 959 1747 
Q 959 1119 1226 758 
Q 1494 397 1959 397 
Q 2419 397 2687 759 
Q 2956 1122 2956 1747 
Q 2956 2369 2687 2733 
Q 2419 3097 1959 3097 
z
M 1959 3584 
Q 2709 3584 3137 3096 
Q 3566 2609 3566 1747 
Q 3566 888 3137 398 
Q 2709 -91 1959 -91 
Q 1206 -91 779 398 
Q 353 888 353 1747 
Q 353 2609 779 3096 
Q 1206 3584 1959 3584 
z
" transform="scale(0.015625)"/>
       <path id="DejaVuSans-75" d="M 544 1381 
L 544 3500 
L 1119 3500 
L 1119 1403 
Q 1119 906 1312 657 
Q 1506 409 1894 409 
Q 2359 409 2629 706 
Q 2900 1003 2900 1516 
L 2900 3500 
L 3475 3500 
L 3475 0 
L 2900 0 
L 2900 538 
Q 2691 219 2414 64 
Q 2138 -91 1772 -91 
Q 1169 -91 856 284 
Q 544 659 544 1381 
z
M 1991 3584 
L 1991 3584 
z
" transform="scale(0.015625)"/>
       <path id="DejaVuSans-64" d="M 2906 2969 
L 2906 4863 
L 3481 4863 
L 3481 0 
L 2906 0 
L 2906 525 
Q 2725 213 2448 61 
Q 2172 -91 1784 -91 
Q 1150 -91 751 415 
Q 353 922 353 1747 
Q 353 2572 751 3078 
Q 1150 3584 1784 3584 
Q 2172 3584 2448 3432 
Q 2725 3281 2906 2969 
z
M 947 1747 
Q 947 1113 1208 752 
Q 1469 391 1925 391 
Q 2381 391 2643 752 
Q 2906 1113 2906 1747 
Q 2906 2381 2643 2742 
Q 2381 3103 1925 3103 
Q 1469 3103 1208 2742 
Q 947 2381 947 1747 
z
" transform="scale(0.015625)"/>
       <path id="DejaVuSans-73" d="M 2834 3397 
L 2834 2853 
Q 2591 2978 2328 3040 
Q 2066 3103 1784 3103 
Q 1356 3103 1142 2972 
Q 928 2841 928 2578 
Q 928 2378 1081 2264 
Q 1234 2150 1697 2047 
L 1894 2003 
Q 2506 1872 2764 1633 
Q 3022 1394 3022 966 
Q 3022 478 2636 193 
Q 2250 -91 1575 -91 
Q 1294 -91 989 -36 
Q 684 19 347 128 
L 347 722 
Q 666 556 975 473 
Q 1284 391 1588 391 
Q 1994 391 2212 530 
Q 2431 669 2431 922 
Q 2431 1156 2273 1281 
Q 2116 1406 1581 1522 
L 1381 1569 
Q 847 1681 609 1914 
Q 372 2147 372 2553 
Q 372 3047 722 3315 
Q 1072 3584 1716 3584 
Q 2034 3584 2315 3537 
Q 2597 3491 2834 3397 
z
" transform="scale(0.015625)"/>
      </defs>
      <use xlink:href="#DejaVuSans-42"/>
      <use xlink:href="#DejaVuSans-6f" x="68.603516"/>
      <use xlink:href="#DejaVuSans-75" x="129.785156"/>
      <use xlink:href="#DejaVuSans-6e" x="193.164062"/>
      <use xlink:href="#DejaVuSans-64" x="256.542969"/>
      <use xlink:href="#DejaVuSans-61" x="320.019531"/>
      <use xlink:href="#DejaVuSans-72" x="381.298828"/>
      <use xlink:href="#DejaVuSans-69" x="422.412109"/>
      <use xlink:href="#DejaVuSans-65" x="450.195312"/>
      <use xlink:href="#DejaVuSans-73" x="511.71875"/>
     </g>
    </g>
   </g>
  </g>
 </g>
 <defs>
  <clipPath id="p893f377562">
   <rect x="47.369228" y="10.8" width="366.061543" height="320.5"/>
  </clipPath>
 </defs>
</svg>
