<?xml version="1.0" encoding="utf-8" standalone="no"?>
<!DOCTYPE svg PUBLIC "-//W3C//DTD SVG 1.1//EN"
  "http://www.w3.org/Graphics/SVG/1.1/DTD/svg11.dtd">
<svg xmlns:xlink="http://www.w3.org/1999/xlink" width="460.8pt" height="345.6pt" viewBox="0 0 460.8 345.6" xmlns="http://www.w3.org/2000/svg" version="1.1">
 <metadata>
  <rdf:RDF xmlns:dc="http://purl.org/dc/elements/1.1/" xmlns:cc="http://creativecommons.org/ns#" xmlns:rdf="http://www.w3.org/1999/02/22-rdf-syntax-ns#">
   <cc:Work>
    <dc:type rdf:resource="http://purl.org/dc/dcmitype/StillImage"/>
    <dc:date>2023-11-01T13:48:43.310764</dc:date>
    <dc:format>image/svg+xml</dc:format>
    <dc:creator>
     <cc:Agent>
      <dc:title>Matplotlib v3.5.2, https://matplotlib.org/</dc:title>
     </cc:Agent>
    </dc:creator>
   </cc:Work>
  </rdf:RDF>
 </metadata>
 <defs>
  <style type="text/css">*{stroke-linejoin: round; stroke-linecap: butt}</style>
 </defs>
 <g id="figure_1">
  <g id="patch_1">
   <path d="M 0 345.6 
L 460.8 345.6 
L 460.8 0 
L 0 0 
z
" style="fill: #ffffff"/>
  </g>
  <g id="axes_1">
   <g id="patch_2">
    <path d="M 14.3 241.537946 
L 450 241.537946 
L 450 104.062054 
L 14.3 104.062054 
z
" style="fill: #ffffff"/>
   </g>
   <g id="matplotlib.axis_1"/>
   <g id="matplotlib.axis_2"/>
   <g id="line2d_1">
    <path d="M 235.84494 115.793598 
L 266.216585 115.706937 
L 311.713785 115.452504 
L 323.305304 115.675283 
L 339.919875 116.133557 
L 345.169437 116.050538 
L 357.803985 115.703841 
L 361.22043 115.940145 
L 362.830369 116.196748 
L 364.354967 116.569792 
L 365.780901 117.075011 
L 367.09614 117.72616 
L 368.289942 118.535026 
L 369.352871 119.5114 
L 370.277946 120.661776 
L 371.064052 121.985472 
L 371.717038 123.473385 
L 372.249736 125.10797 
L 373.04043 128.704842 
L 374.327995 136.189373 
L 375.214814 139.596243 
L 375.777946 141.146904 
L 376.434305 142.581897 
L 377.189709 143.896692 
L 378.046581 145.091421 
L 379.00395 146.170882 
L 380.057457 147.144533 
L 381.199865 148.025713 
L 383.719434 149.56614 
L 386.500214 150.896068 
L 391.030673 152.695208 
L 399.073751 155.785148 
L 402.311217 157.217227 
L 405.487667 158.819767 
L 408.558159 160.615812 
L 411.480253 162.616852 
L 414.214009 164.822817 
L 416.722002 167.222107 
L 418.969831 169.793834 
L 420.927756 172.514843 
L 422.571255 175.362132 
L 423.881031 178.31288 
L 424.843014 181.344452 
L 425.448361 184.434396 
L 425.693454 187.560443 
L 425.579901 190.700509 
L 425.114537 193.832693 
L 424.309422 196.935279 
L 423.181845 199.986733 
L 421.754317 202.965707 
L 420.053829 205.851257 
L 418.108026 208.623981 
L 415.943129 211.266635 
L 413.583863 213.764152 
L 411.053456 216.103648 
L 408.373637 218.274417 
L 405.564637 220.267931 
L 402.645191 222.077845 
L 399.632537 223.69999 
L 396.542414 225.132379 
L 393.389064 226.375203 
L 390.185232 227.430834 
L 386.942165 228.303823 
L 383.669612 229.0009 
L 380.375827 229.530976 
L 375.409703 230.037816 
L 370.427132 230.240988 
L 365.437012 230.198148 
L 358.772963 229.878657 
L 345.314836 229.103058 
L 340.171456 229.039326 
L 334.967984 229.170694 
L 327.971686 229.595492 
L 317.561798 230.277434 
L 314.191739 230.317511 
L 310.913883 230.150451 
L 307.758741 229.692466 
L 306.237772 229.326209 
L 304.761024 228.855313 
L 303.33408 228.272649 
L 301.963113 227.573339 
L 300.654879 226.754758 
L 299.416724 225.816532 
L 298.256578 224.76054 
L 297.18296 223.590912 
L 296.204974 222.31403 
L 295.33231 220.938528 
L 294.575246 219.475292 
L 293.944642 217.937452 
L 293.451416 216.339884 
L 293.104829 214.697531 
L 292.911859 213.024808 
L 292.877196 211.335586 
L 293.003238 209.643198 
L 293.290093 207.960435 
L 293.735579 206.299545 
L 294.335222 204.672239 
L 295.082259 203.089685 
L 295.967638 201.562509 
L 296.980013 200.100798 
L 298.10575 198.714097 
L 299.32931 197.411274 
L 300.635337 196.199782 
L 302.009847 195.085237 
L 304.915484 193.160192 
L 307.962751 191.644015 
L 311.090891 190.51494 
L 314.261864 189.721557 
L 317.460263 189.183004 
L 322.313977 188.64377 
L 333.921682 187.711437 
L 338.982657 187.473681 
L 342.365005 187.482673 
L 345.748932 187.654595 
L 350.832319 188.172595 
L 357.672429 188.976111 
L 361.150238 189.163152 
L 364.658887 189.045498 
L 368.147093 188.546001 
L 369.856742 188.139966 
L 371.524212 187.627791 
L 373.132022 187.01116 
L 374.660231 186.294275 
L 376.086436 185.483856 
L 377.385786 184.589134 
L 378.532183 183.62129 
L 379.502451 182.591498 
L 380.277909 181.510195 
L 380.844397 180.387057 
L 381.192282 179.231009 
L 381.31645 178.050221 
L 381.216315 176.852106 
L 380.89581 175.643323 
L 380.363392 174.429776 
L 379.632044 173.216614 
L 378.719268 172.008231 
L 376.441372 169.619653 
L 373.730115 167.286241 
L 370.763141 165.024901 
L 366.125736 161.794854 
L 360.013195 157.825067 
L 354.129078 154.242708 
L 348.36931 151.024864 
L 344.060888 148.838756 
L 339.713217 146.840766 
L 335.28692 145.027053 
L 330.747002 143.39579 
L 326.062846 141.947163 
L 321.208332 140.683439 
L 316.168724 139.612926 
L 310.959515 138.760808 
L 305.632047 138.172376 
L 302.056309 137.958063 
L 298.500766 137.913971 
L 295.007225 138.068437 
L 291.624588 138.453778 
L 288.408849 139.106289 
L 285.423092 140.066243 
L 284.038111 140.675185 
L 282.737496 141.377891 
L 281.530838 142.180303 
L 280.426157 143.08712 
L 279.428854 144.101033 
L 278.541656 145.222679 
L 277.764625 146.450649 
L 277.09515 147.781484 
L 276.527951 149.209674 
L 275.665915 152.325843 
L 275.082887 155.714107 
L 273.892701 164.56959 
L 273.15649 167.961521 
L 272.143934 171.163968 
L 270.831193 174.159975 
L 269.23902 176.970518 
L 267.429569 179.651655 
L 264.469698 183.572037 
L 259.352412 190.223888 
L 256.369867 194.426563 
L 253.511041 198.800411 
L 246.084721 210.592249 
L 244.051388 213.280776 
L 241.83423 215.723892 
L 239.395583 217.862396 
L 236.720936 219.654047 
L 233.81893 221.073566 
L 230.721361 222.112635 
L 227.482642 222.779669 
L 224.167589 223.094652 
L 220.831273 223.080625 
L 217.515588 222.762228 
L 214.249248 222.165702 
L 211.04778 221.318888 
L 207.913647 220.251196 
L 204.840097 218.992624 
L 201.819106 217.57172 
L 197.369813 215.193773 
L 192.998557 212.592044 
L 187.255857 208.898601 
L 163.142678 192.979162 
L 155.980268 188.699617 
L 147.314892 183.817856 
L 134.258163 176.540495 
L 128.481147 173.07967 
L 121.289778 168.46698 
L 105.291708 157.937846 
L 100.761683 155.352321 
L 97.68906 153.822297 
L 94.619027 152.529431 
L 91.6293 151.570007 
L 90.198425 151.251698 
L 88.832658 151.063251 
L 87.551577 151.023156 
L 86.376948 151.151334 
L 85.332426 151.468814 
L 84.439146 151.993011 
L 83.71037 152.731992 
L 83.150859 153.683802 
L 82.756875 154.836465 
L 82.516178 156.167981 
L 82.408136 157.646445 
L 82.493725 160.896841 
L 82.870777 164.334993 
L 83.489552 167.789967 
L 84.379553 171.165262 
L 85.582204 174.398989 
L 87.120145 177.445707 
L 88.99642 180.275946 
L 91.194473 182.876198 
L 93.678149 185.248929 
L 96.391699 187.412567 
L 99.259772 189.40151 
L 107.74367 194.903666 
L 110.084387 196.85716 
L 111.073369 197.914339 
L 111.914697 199.041576 
L 112.592464 200.246667 
L 113.094409 201.533453 
L 113.41192 202.901815 
L 113.54003 204.347673 
L 113.47742 205.862993 
L 113.226418 207.435779 
L 112.792997 209.050076 
L 112.186781 210.685973 
L 111.421037 212.319598 
L 110.51268 213.923121 
L 109.481904 215.465292 
L 108.349223 216.915773 
L 107.133142 218.24854 
L 105.850014 219.442099 
L 104.514031 220.479491 
L 103.137232 221.34829 
L 101.7295 222.040605 
L 100.298558 222.553075 
L 98.849976 222.886874 
L 97.387166 223.047709 
L 95.911384 223.04582 
L 94.42173 222.895982 
L 91.38808 222.230789 
L 88.259981 221.211138 
L 83.360693 219.311177 
L 74.693579 215.94985 
L 69.343925 214.105784 
L 59.184924 210.759349 
L 56.259629 209.542209 
L 54.940744 208.861362 
L 53.737425 208.111123 
L 52.664516 207.274622 
L 51.733813 206.337629 
L 50.953105 205.2896 
L 50.326169 204.123697 
L 49.852763 202.836782 
L 49.528633 201.42942 
L 49.345508 199.905879 
L 49.2911 198.274129 
L 49.499211 194.736394 
L 50.80962 183.399763 
L 50.802313 179.931411 
L 50.645649 178.313738 
L 50.380746 176.779348 
L 50.008366 175.328068 
L 49.533611 173.956213 
L 48.319133 171.418497 
L 46.860321 169.070292 
L 43.027202 163.328469 
L 41.690901 160.863072 
L 40.572314 158.212304 
L 39.708331 155.341395 
L 39.11608 152.234992 
L 38.807585 148.902371 
L 38.795128 145.379337 
L 39.091332 141.728253 
L 39.70916 138.038044 
L 40.661911 134.424151 
L 41.961482 131.01971 
L 42.742764 129.432834 
L 43.610959 127.937854 
L 44.564541 126.543067 
L 45.601216 125.25441 
L 46.717919 124.075458 
L 47.910819 123.007426 
L 49.175314 122.049168 
L 50.506032 121.197176 
L 53.340814 119.78617 
L 56.359096 118.704291 
L 59.507262 117.877104 
L 62.741329 117.242112 
L 67.681683 116.544248 
L 72.667843 116.054123 
L 79.34607 115.632807 
L 86.050512 115.420856 
L 94.458873 115.370836 
L 106.264363 115.546049 
L 141.727458 116.250371 
L 156.891553 116.259347 
L 185.464774 115.984646 
L 213.9983 115.797782 
L 234.162351 115.792416 
L 234.162351 115.792416 
" clip-path="url(#p33c382248b)" style="fill: none; stroke: #0000ff; stroke-width: 2; stroke-linecap: square"/>
   </g>
   <g id="line2d_2">
    <path d="M 235.844778 116.071194 
L 242.504977 116.023593 
L 311.333868 115.389507 
L 322.427019 114.949901 
L 342.382543 113.985761 
L 349.044875 114.022726 
L 352.372811 114.180832 
L 355.676842 114.594262 
L 357.844826 115.070204 
L 359.970354 115.732388 
L 362.026245 116.586187 
L 363.979193 117.61837 
L 365.855272 118.823031 
L 368.496025 120.811543 
L 370.10539 122.346869 
L 371.484427 124.073916 
L 372.637942 125.973533 
L 373.569445 127.996287 
L 374.304271 130.095598 
L 375.166797 133.31904 
L 376.299729 137.606713 
L 377.047837 139.70785 
L 377.983117 141.708952 
L 379.12076 143.616424 
L 381.038913 146.327764 
L 383.174493 148.877551 
L 384.736377 150.462831 
L 386.397603 151.937268 
L 389.064303 153.933352 
L 391.911638 155.659745 
L 394.900428 157.127217 
L 397.983656 158.385714 
L 407.308756 161.966262 
L 409.291195 162.965676 
L 411.194818 164.108891 
L 413.000914 165.399675 
L 414.694403 166.833204 
L 416.266708 168.402656 
L 417.706275 170.092782 
L 419.006013 171.890095 
L 420.163212 173.787199 
L 421.167973 175.765497 
L 422.016171 177.817222 
L 422.700112 179.928914 
L 423.218917 182.086614 
L 423.57748 184.277154 
L 423.777227 186.487345 
L 423.814537 188.706534 
L 423.684415 190.921997 
L 423.393461 193.122591 
L 422.677641 196.374962 
L 421.647918 199.540279 
L 420.31994 202.592925 
L 418.709107 205.506877 
L 416.836164 208.259993 
L 414.725755 210.835759 
L 412.404428 213.223296 
L 409.899173 215.417129 
L 407.236216 217.416661 
L 404.440129 219.225423 
L 401.533217 220.850193 
L 398.535179 222.300048 
L 395.462968 223.585374 
L 391.275794 225.061569 
L 387.009719 226.293503 
L 382.691354 227.326327 
L 377.246223 228.402811 
L 370.669451 229.457847 
L 362.960224 230.436188 
L 355.22392 231.177559 
L 348.577283 231.613692 
L 341.919993 231.832616 
L 335.259565 231.829292 
L 327.492359 231.578815 
L 317.514555 231.051088 
L 314.210322 230.638973 
L 310.946914 229.978082 
L 307.754815 229.026682 
L 305.683353 228.222012 
L 303.68026 227.273591 
L 301.765062 226.153292 
L 299.989156 224.823923 
L 298.416848 223.260847 
L 297.098959 221.474775 
L 296.065827 219.512066 
L 295.336366 217.415829 
L 294.926813 215.234395 
L 294.844873 213.018233 
L 295.066403 210.810056 
L 295.546367 208.644207 
L 296.24887 206.540808 
L 297.153795 204.513951 
L 298.24817 202.58328 
L 299.519187 200.763582 
L 300.952809 199.066194 
L 302.528679 197.502134 
L 304.22739 196.072563 
L 306.028659 194.775838 
L 308.881565 193.059922 
L 311.861691 191.576316 
L 314.937043 190.300146 
L 318.096641 189.247091 
L 321.331708 188.458054 
L 324.624129 187.966709 
L 327.947678 187.780121 
L 331.276507 187.866868 
L 335.697681 188.292676 
L 346.718624 189.607081 
L 351.152027 189.838986 
L 358.924118 189.937257 
L 366.694286 189.974327 
L 368.904399 189.765258 
L 371.0818 189.329587 
L 373.18061 188.607692 
L 375.134287 187.560416 
L 376.870126 186.175168 
L 378.310995 184.479513 
L 379.38835 182.55467 
L 380.092533 180.439715 
L 380.433386 178.26229 
L 380.486272 176.056477 
L 380.217495 173.860995 
L 379.587406 171.724411 
L 378.610455 169.724736 
L 377.323365 167.920598 
L 375.778086 166.328412 
L 374.054224 164.928241 
L 370.387919 162.419513 
L 364.779482 158.819998 
L 360.000112 155.997816 
L 355.119766 153.356126 
L 349.151608 150.399789 
L 343.084716 147.652055 
L 336.931054 145.103247 
L 330.691342 142.77414 
L 325.419512 141.040516 
L 320.073222 139.54737 
L 315.743101 138.565391 
L 311.368316 137.799758 
L 306.959802 137.266861 
L 302.528809 136.968372 
L 298.088196 136.914779 
L 294.766425 137.137911 
L 292.570422 137.477042 
L 290.412477 137.99902 
L 288.316642 138.718835 
L 286.294506 139.648049 
L 284.385415 140.776407 
L 282.599666 142.096927 
L 280.962435 143.587726 
L 279.500196 145.253146 
L 278.237568 147.074765 
L 277.1575 149.011751 
L 276.25187 151.041145 
L 275.515015 153.132552 
L 274.66837 156.357116 
L 272.574287 166.126357 
L 271.509468 169.281504 
L 269.057372 175.471634 
L 266.895099 180.584316 
L 264.992875 184.598693 
L 262.908516 188.519769 
L 260.079978 193.295122 
L 257.05868 197.949912 
L 254.444305 201.54033 
L 251.630307 204.973876 
L 249.377206 207.428345 
L 246.997213 209.76069 
L 244.496868 211.962269 
L 241.003841 214.700185 
L 237.355912 217.230184 
L 234.508243 218.953751 
L 232.53605 219.967344 
L 230.489377 220.832531 
L 228.378371 221.514976 
L 226.214303 222.011695 
L 224.016545 222.331526 
L 221.802344 222.486702 
L 218.472983 222.44141 
L 215.160361 222.104367 
L 211.882534 221.518576 
L 208.650323 220.718192 
L 205.471015 219.727496 
L 202.34972 218.56626 
L 198.281433 216.786037 
L 194.317003 214.786341 
L 189.481641 212.060189 
L 182.852252 208.004738 
L 167.874595 198.454943 
L 160.502368 193.502368 
L 153.256419 188.366942 
L 141.649799 179.788388 
L 134.451276 174.586707 
L 128.939574 170.847312 
L 122.378634 166.681607 
L 108.1375 158.049354 
L 97.614187 151.850225 
L 94.672879 150.283543 
L 92.577355 149.562495 
L 91.482418 149.377896 
L 90.376226 149.333461 
L 89.269383 149.434617 
L 88.179936 149.67964 
L 87.13377 150.057119 
L 86.148286 150.549651 
L 84.337363 151.820111 
L 82.73758 153.342517 
L 82.049621 154.199536 
L 81.45519 155.142314 
L 80.981347 156.158505 
L 80.653668 157.216938 
L 80.477845 158.311517 
L 80.452532 159.424049 
L 80.768147 161.616804 
L 81.684588 164.822022 
L 82.787109 167.96431 
L 84.052886 171.04583 
L 85.486466 174.05219 
L 87.101108 176.963711 
L 88.929869 179.744817 
L 90.295711 181.494769 
L 91.801648 183.124243 
L 93.46201 184.596914 
L 95.252334 185.910798 
L 99.02028 188.260264 
L 102.760954 190.652175 
L 104.524994 192.002246 
L 106.166136 193.498667 
L 107.648398 195.148356 
L 108.952718 196.958615 
L 110.040587 198.881353 
L 110.936727 200.911213 
L 111.657693 203.003259 
L 112.15262 205.153819 
L 112.337608 207.376428 
L 112.16368 209.581526 
L 111.610787 211.733628 
L 110.679982 213.751277 
L 109.401569 215.565608 
L 107.827261 217.134416 
L 106.024824 218.4361 
L 104.066875 219.47127 
L 101.992845 220.275281 
L 98.792174 221.154783 
L 95.532228 221.772467 
L 93.323227 222.025759 
L 91.102837 222.116243 
L 88.884713 222.036169 
L 86.676055 221.787654 
L 84.491409 221.380365 
L 81.276377 220.517382 
L 77.076268 219.075667 
L 63.537161 214.073903 
L 60.477974 212.756139 
L 58.531591 211.685673 
L 56.700967 210.421915 
L 55.026247 208.972646 
L 53.504172 207.343597 
L 52.14066 205.607575 
L 50.901894 203.771529 
L 49.836304 201.8386 
L 48.983752 199.778295 
L 48.393733 197.643908 
L 48.070641 195.445056 
L 48.008997 193.22268 
L 48.176402 191.006831 
L 48.72959 187.71876 
L 49.803309 182.269763 
L 50.06679 180.071927 
L 50.15402 177.850497 
L 50.026463 175.637514 
L 49.642533 173.452565 
L 48.937112 171.3506 
L 47.853681 169.41647 
L 46.475572 167.67915 
L 41.945516 162.803236 
L 40.711654 160.959859 
L 39.700747 158.985134 
L 38.892445 156.917188 
L 38.277823 154.787098 
L 37.850591 152.605739 
L 37.608337 150.400166 
L 37.541483 148.182981 
L 37.638447 145.9642 
L 37.897583 143.757337 
L 38.325876 141.577601 
L 38.927072 139.440689 
L 39.700767 137.358227 
L 40.640284 135.344202 
L 41.732996 133.410526 
L 42.961435 131.565931 
L 45.027642 128.95417 
L 47.293222 126.514239 
L 49.696579 124.213604 
L 52.246281 122.076818 
L 54.962451 120.147461 
L 57.838048 118.466556 
L 60.854844 117.05673 
L 63.987486 115.927581 
L 67.206968 115.077229 
L 70.484295 114.488336 
L 73.794403 114.125351 
L 78.229139 113.904836 
L 84.890087 113.871855 
L 114.865586 113.913769 
L 139.289838 114.010843 
L 155.939951 114.318971 
L 216.984796 115.71188 
L 234.742406 115.93676 
L 234.742406 115.93676 
" clip-path="url(#p33c382248b)" style="fill: none; stroke: #ff0000; stroke-width: 2; stroke-linecap: square"/>
   </g>
   <g id="line2d_3">
    <path d="M 235.842025 120.800942 
L 251.02363 120.725423 
L 252.71455 120.90092 
L 259.48145 120.835257 
L 261.172798 120.576823 
L 281.488779 120.575282 
L 283.180111 120.659317 
L 284.871632 120.859102 
L 301.686777 120.862138 
L 306.689716 120.576703 
L 316.611914 120.572666 
L 321.516723 120.867779 
L 324.783955 120.819185 
L 326.424806 120.675487 
L 331.37115 120.697072 
L 341.698358 120.961215 
L 343.505188 121.162106 
L 348.97571 120.94871 
L 354.346068 121.073569 
L 356.041602 121.425441 
L 357.645082 121.505593 
L 359.151637 121.393688 
L 360.48638 121.768017 
L 361.732838 121.660522 
L 364.536914 122.124199 
L 365.282132 122.337214 
L 365.981778 122.662568 
L 366.672359 123.155564 
L 367.381801 123.870193 
L 368.061763 124.861376 
L 368.445165 126.190931 
L 368.678474 127.743322 
L 368.7164 129.486737 
L 368.874781 131.325839 
L 368.792238 133.289859 
L 369.067789 135.252722 
L 370.811259 143.175548 
L 371.567451 145.080578 
L 372.520436 146.896526 
L 373.735092 148.530923 
L 375.086104 150.008132 
L 376.530728 151.319788 
L 381.128566 154.405583 
L 382.656023 155.321773 
L 392.103832 159.48315 
L 395.212359 160.727019 
L 398.258558 161.994759 
L 401.32706 163.115088 
L 404.461229 164.099307 
L 405.89293 164.830908 
L 407.425664 165.408577 
L 411.402803 168.025072 
L 412.474312 169.160629 
L 413.619454 170.191934 
L 415.56198 172.503219 
L 417.116998 174.98075 
L 418.303513 177.536877 
L 418.992595 178.724138 
L 419.529389 179.965923 
L 420.42012 183.818105 
L 420.69365 186.380217 
L 420.753402 188.951894 
L 419.989805 194.15287 
L 419.595711 195.452407 
L 419.335253 196.824586 
L 417.778455 200.842138 
L 416.950806 202.072645 
L 416.310381 203.436409 
L 414.682061 206.021316 
L 413.631079 207.160601 
L 412.686112 208.398097 
L 406.818218 213.614965 
L 402.899817 216.252611 
L 400.163884 217.787042 
L 395.990109 219.896354 
L 394.596085 220.586993 
L 391.630749 221.50784 
L 390.232006 222.18943 
L 382.722647 223.922018 
L 381.165668 223.946972 
L 379.665947 224.329299 
L 378.093537 224.169967 
L 362.372947 224.623296 
L 359.094914 224.672476 
L 357.451601 224.447226 
L 354.09517 224.437596 
L 352.379073 224.691694 
L 340.144746 224.95647 
L 338.359747 224.720055 
L 327.621547 224.808497 
L 325.845235 224.73225 
L 322.366 224.795354 
L 320.654985 224.640643 
L 310.103733 224.556816 
L 306.276069 224.679735 
L 303.025512 223.318664 
L 301.213301 221.792998 
L 299.77994 219.819666 
L 299.262247 218.682341 
L 298.627996 217.60134 
L 298.076271 215.141085 
L 297.872256 213.921592 
L 297.907379 212.686568 
L 298.345216 210.296706 
L 299.993716 205.667895 
L 301.423903 203.436528 
L 302.269489 202.35112 
L 306.315165 198.41072 
L 307.421197 197.510098 
L 309.83227 196.032357 
L 315.194809 194.264798 
L 316.654796 194.160217 
L 318.101871 193.780365 
L 319.6469 193.857877 
L 321.181775 193.590974 
L 324.373942 193.392009 
L 326.017395 193.462496 
L 329.307874 193.167775 
L 332.62578 193.054866 
L 334.260654 192.825856 
L 337.509518 192.99842 
L 342.217393 193.01973 
L 343.766338 193.265606 
L 348.547924 193.295308 
L 353.666623 193.277269 
L 355.492145 193.000391 
L 363.03437 193.066166 
L 365.024783 193.302623 
L 367.035191 193.210697 
L 369.045437 192.926681 
L 373.235999 192.594616 
L 375.325137 192.168691 
L 379.389983 190.764357 
L 381.32776 189.765365 
L 382.999483 188.354774 
L 384.495521 186.720412 
L 385.505603 184.692535 
L 386.148781 182.515092 
L 386.415821 180.286193 
L 386.388936 175.948114 
L 385.351913 171.831886 
L 384.550377 169.877278 
L 383.344413 168.196203 
L 381.909328 166.743535 
L 378.786836 164.193477 
L 375.443908 161.980067 
L 373.721309 160.973999 
L 372.16234 159.768326 
L 368.860674 157.72237 
L 365.666357 155.71371 
L 361.01025 152.882643 
L 349.076897 146.117192 
L 347.58932 145.363883 
L 346.176032 144.467656 
L 338.812569 140.531372 
L 334.194318 138.450572 
L 332.63076 137.759854 
L 331.007707 137.210197 
L 325.957149 135.945455 
L 317.126871 134.528077 
L 313.439828 134.333883 
L 311.557482 134.427885 
L 309.715263 134.182878 
L 304.096836 133.826893 
L 302.206904 133.899913 
L 292.783374 133.706306 
L 287.078052 133.940486 
L 285.131871 134.098598 
L 281.352577 135.176563 
L 279.505849 135.994512 
L 277.732172 137.043481 
L 276.135252 138.391295 
L 273.548203 141.685826 
L 272.572739 143.515646 
L 271.156168 147.313307 
L 270.723582 149.252793 
L 270.262804 153.117679 
L 270.207068 155.02417 
L 270.43474 156.923179 
L 270.437563 158.746288 
L 270.625707 160.548635 
L 270.404405 162.253097 
L 269.604801 165.429121 
L 268.988424 166.864973 
L 267.597077 169.458398 
L 265.12119 172.783838 
L 263.595259 175.109611 
L 261.924765 177.578349 
L 261.129101 178.937449 
L 259.239052 181.589219 
L 258.425482 183.084431 
L 255.46939 187.356763 
L 254.580408 188.894895 
L 252.527755 191.812111 
L 247.630212 199.310124 
L 243.497014 204.852633 
L 239.719205 209.714621 
L 238.863946 210.812008 
L 238.112246 211.957365 
L 237.246985 212.960416 
L 236.242089 213.768949 
L 235.364234 214.737766 
L 234.329836 215.503228 
L 233.226046 216.177657 
L 229.598128 217.920478 
L 225.428019 218.739566 
L 221.048396 218.811768 
L 218.102525 218.567208 
L 216.642035 218.296887 
L 212.366457 216.972789 
L 209.644708 215.647949 
L 205.526147 213.617725 
L 202.883829 211.918483 
L 193.205172 205.975238 
L 190.38424 204.170925 
L 184.576165 200.647087 
L 183.049352 199.853406 
L 181.663708 198.846104 
L 172.828134 193.544022 
L 171.333277 192.701688 
L 165.583459 189.019002 
L 159.727982 185.597666 
L 154.048474 181.978618 
L 148.277434 178.632912 
L 141.290538 174.21817 
L 127.119013 165.775843 
L 101.302506 150.397799 
L 96.431198 147.692497 
L 94.794645 146.744937 
L 93.092405 145.889845 
L 91.306884 145.134425 
L 89.383314 144.685852 
L 87.312961 144.370654 
L 85.017894 144.38393 
L 82.518621 144.990556 
L 79.983832 146.27191 
L 77.976101 148.362807 
L 76.870258 150.838188 
L 76.459197 153.227475 
L 76.231147 155.387962 
L 76.344256 157.431868 
L 76.79298 159.382062 
L 81.35119 174.137716 
L 85.790651 185.211502 
L 86.569951 187.242851 
L 89.377511 190.198826 
L 90.984877 191.403812 
L 92.743468 192.347568 
L 96.427585 193.696603 
L 101.580647 195.444169 
L 103.047134 196.186734 
L 104.360801 197.019057 
L 105.441745 198.006402 
L 107.152538 199.860448 
L 108.21599 202.31859 
L 108.877339 204.45081 
L 109.086063 205.417029 
L 108.679173 207.734191 
L 108.15391 208.993695 
L 107.700161 210.395335 
L 107.073569 211.803115 
L 106.228907 213.113626 
L 105.281633 214.327058 
L 104.185378 215.332415 
L 101.984999 216.88032 
L 98.052981 218.195803 
L 97.124321 218.188259 
L 94.051885 217.433561 
L 92.864983 216.952453 
L 90.061305 216.199162 
L 86.973081 215.035243 
L 80.005172 212.647015 
L 78.163345 212.071173 
L 70.899315 209.380685 
L 67.320742 208.258185 
L 64.0247 206.95077 
L 54.752135 203.735344 
L 54.192796 203.229766 
L 53.850597 202.542628 
L 53.812042 201.664792 
L 53.908391 200.671409 
L 53.728644 198.278882 
L 53.93075 196.815363 
L 53.995309 195.185851 
L 54.190695 193.426853 
L 54.600641 191.58442 
L 54.619768 189.610492 
L 55.283429 183.61556 
L 55.737788 175.635902 
L 55.410175 171.663133 
L 55.202058 169.672159 
L 54.823134 167.78982 
L 54.11017 166.190416 
L 53.130644 164.902559 
L 51.639969 164.11442 
L 47.877737 163.403533 
L 46.23891 162.920101 
L 45.207958 162.030067 
L 44.377116 161.009244 
L 44.066707 159.714955 
L 44.161303 154.254096 
L 44.094702 152.91831 
L 44.513741 147.141049 
L 44.996117 144.059117 
L 44.926566 142.449651 
L 45.209193 140.860868 
L 45.617552 137.656651 
L 45.849721 136.079661 
L 47.3671 131.907882 
L 49.572855 128.720291 
L 52.054161 126.176345 
L 53.951435 124.573379 
L 56.227292 123.105607 
L 57.558526 122.62153 
L 60.414277 121.880637 
L 65.008339 121.174068 
L 66.630213 121.312549 
L 73.079259 121.077377 
L 74.687647 120.825506 
L 86.151567 120.81472 
L 92.769588 120.910011 
L 94.430667 121.140962 
L 114.574041 121.141294 
L 119.657254 120.845402 
L 133.217635 120.851143 
L 136.604983 121.148038 
L 139.996131 121.127718 
L 143.386627 120.929213 
L 158.605258 121.116025 
L 161.981015 121.427147 
L 177.127064 121.460955 
L 182.164279 121.426748 
L 183.840139 121.200353 
L 187.194442 121.098768 
L 203.954756 120.936931 
L 205.631372 121.137006 
L 212.334547 121.158207 
L 227.433681 121.13969 
L 229.114007 120.874289 
L 234.158555 120.816871 
L 234.158555 120.816871 
" clip-path="url(#p33c382248b)" style="fill: none; stroke: #008000; stroke-linecap: square"/>
   </g>
   <g id="line2d_4">
    <path d="M 235.847843 110.80751 
L 250.99734 110.572296 
L 252.681633 110.352347 
L 259.425534 110.34238 
L 261.114096 110.583562 
L 283.081541 110.504383 
L 284.770815 110.310959 
L 303.350445 110.421659 
L 305.034757 110.585842 
L 318.460319 110.47671 
L 320.134495 110.314 
L 325.122804 110.421417 
L 328.419988 110.662808 
L 341.591828 110.771105 
L 343.281538 110.615852 
L 348.563954 110.963762 
L 354.121638 111.082656 
L 356.016854 110.881711 
L 357.932709 111.003932 
L 359.844312 111.379104 
L 361.799923 111.339344 
L 363.701058 111.862249 
L 367.639315 112.669636 
L 369.60151 113.420674 
L 371.559047 114.402535 
L 373.433128 115.697333 
L 375.079449 117.340837 
L 376.254167 119.328966 
L 377.503023 123.612636 
L 379.198699 131.581496 
L 379.556391 136.684271 
L 380.267973 139.312952 
L 380.732261 140.375293 
L 381.775162 142.116934 
L 383.082173 143.563608 
L 383.83276 144.326853 
L 385.85256 145.581704 
L 392.516845 148.740003 
L 397.28678 150.679345 
L 405.995903 153.86081 
L 409.512259 155.464144 
L 411.379597 156.153672 
L 413.083445 157.14659 
L 414.879275 158.04102 
L 418.121218 160.372101 
L 419.732502 161.573602 
L 422.380741 164.554337 
L 424.663987 167.771529 
L 426.672886 171.105736 
L 427.420132 172.891253 
L 429.413491 180.17415 
L 429.975175 183.81543 
L 430.195455 187.466776 
L 430.119037 192.97148 
L 429.721549 194.773373 
L 429.089386 198.438992 
L 427.25815 203.764819 
L 426.387154 205.440176 
L 425.697793 207.227345 
L 423.650163 210.439041 
L 422.505055 211.964353 
L 421.446362 213.562983 
L 420.148246 214.970188 
L 418.942943 216.460935 
L 416.163814 219.091674 
L 414.706156 220.325219 
L 410.03364 223.590822 
L 405.1642 226.433844 
L 403.503567 227.284553 
L 401.793468 228.019736 
L 400.148187 228.866664 
L 398.428405 229.536852 
L 395.089724 231.082964 
L 393.289123 231.467756 
L 389.850346 232.653733 
L 382.751862 233.803265 
L 380.945242 233.703397 
L 379.21347 234.072139 
L 373.95857 234.310854 
L 372.217544 234.294433 
L 368.757744 234.461708 
L 358.478097 234.646856 
L 356.768079 234.902625 
L 353.399175 234.963235 
L 351.744557 234.733153 
L 346.783905 234.76795 
L 340.210121 234.94969 
L 338.56215 235.266738 
L 333.540824 235.260584 
L 331.831167 235.147343 
L 330.092217 234.857613 
L 321.275333 234.549537 
L 315.918615 234.657595 
L 312.299126 234.980417 
L 310.464276 234.954555 
L 306.781658 234.416723 
L 304.944117 233.958593 
L 303.146257 233.305732 
L 301.234899 232.854114 
L 299.416102 232.069018 
L 295.87322 230.078047 
L 294.232794 228.799048 
L 292.664271 227.380214 
L 291.32031 225.722212 
L 290.099429 223.942738 
L 288.570593 219.863683 
L 288.128303 217.719677 
L 287.888764 213.364915 
L 287.95743 211.202643 
L 288.202523 209.055906 
L 288.600257 206.933248 
L 289.272135 204.880872 
L 290.169324 202.924458 
L 292.259251 199.207919 
L 293.465147 197.462424 
L 296.138074 194.200653 
L 299.153349 191.320724 
L 302.487182 188.94467 
L 304.164826 187.80759 
L 307.620359 185.771639 
L 309.435814 185.039023 
L 311.273233 184.488051 
L 313.129254 184.205997 
L 314.909136 183.792957 
L 316.710853 183.81321 
L 318.420186 183.479484 
L 321.836521 183.514826 
L 323.508515 183.436118 
L 325.162121 183.212078 
L 328.512215 183.206065 
L 331.894509 183.088223 
L 333.625633 183.244652 
L 335.355255 183.07109 
L 338.894057 183.011339 
L 342.483713 183.029846 
L 344.297842 182.804093 
L 353.233325 182.815948 
L 354.945528 182.806457 
L 356.576748 183.065988 
L 362.697123 183.008855 
L 364.121468 182.792746 
L 365.557189 182.88916 
L 367.037867 183.136973 
L 373.072022 183.222047 
L 374.444721 182.859683 
L 375.616317 182.265634 
L 376.51506 181.483976 
L 377.167424 179.616698 
L 377.397606 178.01063 
L 377.100523 177.571401 
L 376.998763 177.015506 
L 376.594735 176.392393 
L 374.522737 173.787845 
L 373.446017 172.8125 
L 367.816393 169.060166 
L 366.207771 168.205923 
L 360.159514 164.200104 
L 344.409243 155.177479 
L 343.123614 154.300476 
L 341.767686 153.577827 
L 337.810532 151.215924 
L 335.066665 149.862802 
L 333.70301 149.145305 
L 332.289394 148.537377 
L 324.881553 146.096873 
L 320.168303 145.083016 
L 316.885366 144.756037 
L 310.248183 143.915176 
L 306.842783 144.006873 
L 305.162042 143.961357 
L 303.484453 144.044319 
L 301.83631 143.886473 
L 290.9863 143.643981 
L 287.000204 144.03671 
L 284.754655 144.738138 
L 283.817281 145.272191 
L 283.012345 145.917359 
L 282.305178 146.639214 
L 281.445134 148.531262 
L 281.076255 149.56593 
L 280.719961 152.018124 
L 280.604315 153.396607 
L 280.639168 156.500331 
L 280.405732 158.167504 
L 280.358081 159.951297 
L 279.98589 161.768007 
L 279.775063 163.656901 
L 279.441107 165.562853 
L 278.220539 169.293788 
L 277.475206 171.102231 
L 274.059726 177.847519 
L 265.413922 190.610283 
L 263.706635 193.438937 
L 262.747557 194.772335 
L 261.065669 197.621927 
L 258.173266 201.741696 
L 255.006621 205.878521 
L 253.942669 207.294976 
L 252.991872 208.800212 
L 251.865202 210.213161 
L 247.622983 216.220833 
L 246.425391 217.674114 
L 243.723069 220.345432 
L 242.414021 221.78053 
L 237.623935 225.168515 
L 235.883558 226.120968 
L 234.02331 226.802623 
L 230.180368 227.661908 
L 226.313896 228.063002 
L 224.394771 228.226337 
L 220.568966 228.237827 
L 218.670166 228.149945 
L 213.071141 227.420716 
L 211.267036 226.962215 
L 206.066688 225.162643 
L 204.423636 224.396684 
L 201.29912 222.604828 
L 199.700966 221.827385 
L 193.605118 218.267345 
L 192.111861 217.347774 
L 190.695554 216.310988 
L 184.685316 212.783253 
L 178.803157 209.166144 
L 177.407044 208.174039 
L 175.872252 207.396482 
L 167.289861 202.032892 
L 165.903202 201.109497 
L 160.190184 197.769575 
L 154.664484 194.231202 
L 149.008891 190.93926 
L 143.454413 187.403056 
L 136.248646 183.230897 
L 102.305997 162.868797 
L 99.448475 161.259497 
L 89.471097 155.265613 
L 88.522325 154.657362 
L 86.99477 154.227777 
L 86.491769 154.137983 
L 86.19354 154.245841 
L 85.993073 154.471281 
L 85.806237 154.886901 
L 85.714555 155.592121 
L 86.441843 157.789182 
L 87.980008 162.020694 
L 89.163833 164.990625 
L 92.720025 175.771 
L 93.378578 178.797256 
L 94.090327 180.141821 
L 94.716524 181.669187 
L 95.931434 182.65547 
L 97.343189 183.429467 
L 100.436238 184.641776 
L 105.330922 186.247565 
L 108.474311 187.79108 
L 110.001711 188.751223 
L 111.504415 189.834603 
L 112.887884 191.160551 
L 115.239941 194.423191 
L 116.181785 196.262331 
L 116.979509 198.169739 
L 117.552386 200.157591 
L 117.851085 202.19889 
L 118.011972 204.248756 
L 117.93019 206.315194 
L 117.973824 208.455279 
L 117.383133 212.866473 
L 116.57878 214.986942 
L 115.527874 217.014689 
L 114.306244 218.952917 
L 112.846449 220.710948 
L 111.262127 222.333206 
L 109.529132 223.761341 
L 105.694899 225.910354 
L 103.665125 226.601264 
L 101.622861 227.059163 
L 95.688799 227.396142 
L 93.795571 227.274232 
L 90.114635 226.781982 
L 84.9273 225.137594 
L 72.882541 220.944245 
L 67.669764 219.191699 
L 64.330059 217.6306 
L 59.201195 215.836995 
L 53.988064 214.295571 
L 52.28297 213.545529 
L 50.598796 212.613584 
L 49.019714 211.392351 
L 46.5058 208.11725 
L 45.381388 206.341941 
L 44.365064 204.461201 
L 43.642665 202.448113 
L 43.458491 200.34906 
L 43.625138 198.26806 
L 43.674196 196.212008 
L 44.216482 192.173856 
L 44.231633 190.171491 
L 44.630002 188.285402 
L 45.11869 183.125256 
L 46.038132 177.706267 
L 46.395346 176.412223 
L 46.612593 175.096016 
L 46.535648 173.819656 
L 46.17048 172.617262 
L 45.496678 171.541511 
L 44.3846 170.715844 
L 41.681713 169.291978 
L 40.018536 168.687994 
L 38.397746 167.938682 
L 36.859806 167.000483 
L 35.942254 165.58113 
L 35.217626 163.991306 
L 34.600836 162.306652 
L 34.253562 160.490858 
L 34.104545 158.612276 
L 34.294511 152.91115 
L 34.490941 143.206858 
L 34.847202 141.20356 
L 34.92026 139.138258 
L 35.588409 135.012612 
L 36.71769 130.950891 
L 37.599283 129.043115 
L 39.621679 125.422918 
L 40.777469 123.734272 
L 44.832126 119.273724 
L 47.952308 116.863129 
L 51.220143 114.754972 
L 56.375705 112.385955 
L 59.928665 111.492212 
L 61.718808 111.265877 
L 63.515277 111.216777 
L 65.248309 110.854833 
L 70.49024 110.649961 
L 72.225865 110.657707 
L 73.96938 110.857917 
L 84.257163 110.816802 
L 92.779791 110.804985 
L 94.482232 110.592463 
L 116.52652 110.69231 
L 118.211569 110.860633 
L 135.054456 110.727458 
L 136.735437 110.600219 
L 140.091396 110.674687 
L 143.444908 110.935949 
L 158.542352 111.122789 
L 161.897343 110.878854 
L 177.011801 110.91296 
L 182.051922 110.878721 
L 183.734291 111.07271 
L 187.095412 111.105824 
L 203.900637 110.892485 
L 205.580498 110.670388 
L 210.623707 110.611624 
L 227.438433 110.591066 
L 229.120093 110.839726 
L 234.166105 110.82344 
L 234.166105 110.82344 
" clip-path="url(#p33c382248b)" style="fill: none; stroke: #008000; stroke-linecap: square"/>
   </g>
   <g id="patch_3">
    <path d="M 14.3 241.537946 
L 14.3 104.062054 
" style="fill: none; stroke: #000000; stroke-width: 0.8; stroke-linejoin: miter; stroke-linecap: square"/>
   </g>
   <g id="patch_4">
    <path d="M 450 241.537946 
L 450 104.062054 
" style="fill: none; stroke: #000000; stroke-width: 0.8; stroke-linejoin: miter; stroke-linecap: square"/>
   </g>
   <g id="patch_5">
    <path d="M 14.3 241.537946 
L 450 241.537946 
" style="fill: none; stroke: #000000; stroke-width: 0.8; stroke-linejoin: miter; stroke-linecap: square"/>
   </g>
   <g id="patch_6">
    <path d="M 14.3 104.062054 
L 450 104.062054 
" style="fill: none; stroke: #000000; stroke-width: 0.8; stroke-linejoin: miter; stroke-linecap: square"/>
   </g>
   <g id="legend_1">
    <g id="patch_7">
     <path d="M 187.958594 196.317187 
L 276.341406 196.317187 
Q 278.341406 196.317187 278.341406 194.317187 
L 278.341406 151.282812 
Q 278.341406 149.282812 276.341406 149.282812 
L 187.958594 149.282812 
Q 185.958594 149.282812 185.958594 151.282812 
L 185.958594 194.317187 
Q 185.958594 196.317187 187.958594 196.317187 
z
" style="fill: #ffffff; opacity: 0.8; stroke: #cccccc; stroke-linejoin: miter"/>
    </g>
    <g id="line2d_5">
     <path d="M 189.958594 157.38125 
L 199.958594 157.38125 
L 209.958594 157.38125 
" style="fill: none; stroke: #0000ff; stroke-width: 2; stroke-linecap: square"/>
    </g>
    <g id="text_1">
     <!-- Track -->
     <g transform="translate(217.958594 160.88125)scale(0.1 -0.1)">
      <defs>
       <path id="DejaVuSans-54" d="M -19 4666 
L 3928 4666 
L 3928 4134 
L 2272 4134 
L 2272 0 
L 1638 0 
L 1638 4134 
L -19 4134 
L -19 4666 
z
" transform="scale(0.015625)"/>
       <path id="DejaVuSans-72" d="M 2631 2963 
Q 2534 3019 2420 3045 
Q 2306 3072 2169 3072 
Q 1681 3072 1420 2755 
Q 1159 2438 1159 1844 
L 1159 0 
L 581 0 
L 581 3500 
L 1159 3500 
L 1159 2956 
Q 1341 3275 1631 3429 
Q 1922 3584 2338 3584 
Q 2397 3584 2469 3576 
Q 2541 3569 2628 3553 
L 2631 2963 
z
" transform="scale(0.015625)"/>
       <path id="DejaVuSans-61" d="M 2194 1759 
Q 1497 1759 1228 1600 
Q 959 1441 959 1056 
Q 959 750 1161 570 
Q 1363 391 1709 391 
Q 2188 391 2477 730 
Q 2766 1069 2766 1631 
L 2766 1759 
L 2194 1759 
z
M 3341 1997 
L 3341 0 
L 2766 0 
L 2766 531 
Q 2569 213 2275 61 
Q 1981 -91 1556 -91 
Q 1019 -91 701 211 
Q 384 513 384 1019 
Q 384 1609 779 1909 
Q 1175 2209 1959 2209 
L 2766 2209 
L 2766 2266 
Q 2766 2663 2505 2880 
Q 2244 3097 1772 3097 
Q 1472 3097 1187 3025 
Q 903 2953 641 2809 
L 641 3341 
Q 956 3463 1253 3523 
Q 1550 3584 1831 3584 
Q 2591 3584 2966 3190 
Q 3341 2797 3341 1997 
z
" transform="scale(0.015625)"/>
       <path id="DejaVuSans-63" d="M 3122 3366 
L 3122 2828 
Q 2878 2963 2633 3030 
Q 2388 3097 2138 3097 
Q 1578 3097 1268 2742 
Q 959 2388 959 1747 
Q 959 1106 1268 751 
Q 1578 397 2138 397 
Q 2388 397 2633 464 
Q 2878 531 3122 666 
L 3122 134 
Q 2881 22 2623 -34 
Q 2366 -91 2075 -91 
Q 1284 -91 818 406 
Q 353 903 353 1747 
Q 353 2603 823 3093 
Q 1294 3584 2113 3584 
Q 2378 3584 2631 3529 
Q 2884 3475 3122 3366 
z
" transform="scale(0.015625)"/>
       <path id="DejaVuSans-6b" d="M 581 4863 
L 1159 4863 
L 1159 1991 
L 2875 3500 
L 3609 3500 
L 1753 1863 
L 3688 0 
L 2938 0 
L 1159 1709 
L 1159 0 
L 581 0 
L 581 4863 
z
" transform="scale(0.015625)"/>
      </defs>
      <use xlink:href="#DejaVuSans-54"/>
      <use xlink:href="#DejaVuSans-72" x="46.333984"/>
      <use xlink:href="#DejaVuSans-61" x="87.447266"/>
      <use xlink:href="#DejaVuSans-63" x="148.726562"/>
      <use xlink:href="#DejaVuSans-6b" x="203.707031"/>
     </g>
    </g>
    <g id="line2d_6">
     <path d="M 189.958594 172.059375 
L 199.958594 172.059375 
L 209.958594 172.059375 
" style="fill: none; stroke: #ff0000; stroke-width: 2; stroke-linecap: square"/>
    </g>
    <g id="text_2">
     <!-- Raceline -->
     <g transform="translate(217.958594 175.559375)scale(0.1 -0.1)">
      <defs>
       <path id="DejaVuSans-52" d="M 2841 2188 
Q 3044 2119 3236 1894 
Q 3428 1669 3622 1275 
L 4263 0 
L 3584 0 
L 2988 1197 
Q 2756 1666 2539 1819 
Q 2322 1972 1947 1972 
L 1259 1972 
L 1259 0 
L 628 0 
L 628 4666 
L 2053 4666 
Q 2853 4666 3247 4331 
Q 3641 3997 3641 3322 
Q 3641 2881 3436 2590 
Q 3231 2300 2841 2188 
z
M 1259 4147 
L 1259 2491 
L 2053 2491 
Q 2509 2491 2742 2702 
Q 2975 2913 2975 3322 
Q 2975 3731 2742 3939 
Q 2509 4147 2053 4147 
L 1259 4147 
z
" transform="scale(0.015625)"/>
       <path id="DejaVuSans-65" d="M 3597 1894 
L 3597 1613 
L 953 1613 
Q 991 1019 1311 708 
Q 1631 397 2203 397 
Q 2534 397 2845 478 
Q 3156 559 3463 722 
L 3463 178 
Q 3153 47 2828 -22 
Q 2503 -91 2169 -91 
Q 1331 -91 842 396 
Q 353 884 353 1716 
Q 353 2575 817 3079 
Q 1281 3584 2069 3584 
Q 2775 3584 3186 3129 
Q 3597 2675 3597 1894 
z
M 3022 2063 
Q 3016 2534 2758 2815 
Q 2500 3097 2075 3097 
Q 1594 3097 1305 2825 
Q 1016 2553 972 2059 
L 3022 2063 
z
" transform="scale(0.015625)"/>
       <path id="DejaVuSans-6c" d="M 603 4863 
L 1178 4863 
L 1178 0 
L 603 0 
L 603 4863 
z
" transform="scale(0.015625)"/>
       <path id="DejaVuSans-69" d="M 603 3500 
L 1178 3500 
L 1178 0 
L 603 0 
L 603 3500 
z
M 603 4863 
L 1178 4863 
L 1178 4134 
L 603 4134 
L 603 4863 
z
" transform="scale(0.015625)"/>
       <path id="DejaVuSans-6e" d="M 3513 2113 
L 3513 0 
L 2938 0 
L 2938 2094 
Q 2938 2591 2744 2837 
Q 2550 3084 2163 3084 
Q 1697 3084 1428 2787 
Q 1159 2491 1159 1978 
L 1159 0 
L 581 0 
L 581 3500 
L 1159 3500 
L 1159 2956 
Q 1366 3272 1645 3428 
Q 1925 3584 2291 3584 
Q 2894 3584 3203 3211 
Q 3513 2838 3513 2113 
z
" transform="scale(0.015625)"/>
      </defs>
      <use xlink:href="#DejaVuSans-52"/>
      <use xlink:href="#DejaVuSans-61" x="67.232422"/>
      <use xlink:href="#DejaVuSans-63" x="128.511719"/>
      <use xlink:href="#DejaVuSans-65" x="183.492188"/>
      <use xlink:href="#DejaVuSans-6c" x="245.015625"/>
      <use xlink:href="#DejaVuSans-69" x="272.798828"/>
      <use xlink:href="#DejaVuSans-6e" x="300.582031"/>
      <use xlink:href="#DejaVuSans-65" x="363.960938"/>
     </g>
    </g>
    <g id="line2d_7">
     <path d="M 189.958594 186.7375 
L 199.958594 186.7375 
L 209.958594 186.7375 
" style="fill: none; stroke: #008000; stroke-linecap: square"/>
    </g>
    <g id="text_3">
     <!-- Boundaries -->
     <g transform="translate(217.958594 190.2375)scale(0.1 -0.1)">
      <defs>
       <path id="DejaVuSans-42" d="M 1259 2228 
L 1259 519 
L 2272 519 
Q 2781 519 3026 730 
Q 3272 941 3272 1375 
Q 3272 1813 3026 2020 
Q 2781 2228 2272 2228 
L 1259 2228 
z
M 1259 4147 
L 1259 2741 
L 2194 2741 
Q 2656 2741 2882 2914 
Q 3109 3088 3109 3444 
Q 3109 3797 2882 3972 
Q 2656 4147 2194 4147 
L 1259 4147 
z
M 628 4666 
L 2241 4666 
Q 2963 4666 3353 4366 
Q 3744 4066 3744 3513 
Q 3744 3084 3544 2831 
Q 3344 2578 2956 2516 
Q 3422 2416 3680 2098 
Q 3938 1781 3938 1306 
Q 3938 681 3513 340 
Q 3088 0 2303 0 
L 628 0 
L 628 4666 
z
" transform="scale(0.015625)"/>
       <path id="DejaVuSans-6f" d="M 1959 3097 
Q 1497 3097 1228 2736 
Q 959 2375 959 1747 
Q 959 1119 1226 758 
Q 1494 397 1959 397 
Q 2419 397 2687 759 
Q 2956 1122 2956 1747 
Q 2956 2369 2687 2733 
Q 2419 3097 1959 3097 
z
M 1959 3584 
Q 2709 3584 3137 3096 
Q 3566 2609 3566 1747 
Q 3566 888 3137 398 
Q 2709 -91 1959 -91 
Q 1206 -91 779 398 
Q 353 888 353 1747 
Q 353 2609 779 3096 
Q 1206 3584 1959 3584 
z
" transform="scale(0.015625)"/>
       <path id="DejaVuSans-75" d="M 544 1381 
L 544 3500 
L 1119 3500 
L 1119 1403 
Q 1119 906 1312 657 
Q 1506 409 1894 409 
Q 2359 409 2629 706 
Q 2900 1003 2900 1516 
L 2900 3500 
L 3475 3500 
L 3475 0 
L 2900 0 
L 2900 538 
Q 2691 219 2414 64 
Q 2138 -91 1772 -91 
Q 1169 -91 856 284 
Q 544 659 544 1381 
z
M 1991 3584 
L 1991 3584 
z
" transform="scale(0.015625)"/>
       <path id="DejaVuSans-64" d="M 2906 2969 
L 2906 4863 
L 3481 4863 
L 3481 0 
L 2906 0 
L 2906 525 
Q 2725 213 2448 61 
Q 2172 -91 1784 -91 
Q 1150 -91 751 415 
Q 353 922 353 1747 
Q 353 2572 751 3078 
Q 1150 3584 1784 3584 
Q 2172 3584 2448 3432 
Q 2725 3281 2906 2969 
z
M 947 1747 
Q 947 1113 1208 752 
Q 1469 391 1925 391 
Q 2381 391 2643 752 
Q 2906 1113 2906 1747 
Q 2906 2381 2643 2742 
Q 2381 3103 1925 3103 
Q 1469 3103 1208 2742 
Q 947 2381 947 1747 
z
" transform="scale(0.015625)"/>
       <path id="DejaVuSans-73" d="M 2834 3397 
L 2834 2853 
Q 2591 2978 2328 3040 
Q 2066 3103 1784 3103 
Q 1356 3103 1142 2972 
Q 928 2841 928 2578 
Q 928 2378 1081 2264 
Q 1234 2150 1697 2047 
L 1894 2003 
Q 2506 1872 2764 1633 
Q 3022 1394 3022 966 
Q 3022 478 2636 193 
Q 2250 -91 1575 -91 
Q 1294 -91 989 -36 
Q 684 19 347 128 
L 347 722 
Q 666 556 975 473 
Q 1284 391 1588 391 
Q 1994 391 2212 530 
Q 2431 669 2431 922 
Q 2431 1156 2273 1281 
Q 2116 1406 1581 1522 
L 1381 1569 
Q 847 1681 609 1914 
Q 372 2147 372 2553 
Q 372 3047 722 3315 
Q 1072 3584 1716 3584 
Q 2034 3584 2315 3537 
Q 2597 3491 2834 3397 
z
" transform="scale(0.015625)"/>
      </defs>
      <use xlink:href="#DejaVuSans-42"/>
      <use xlink:href="#DejaVuSans-6f" x="68.603516"/>
      <use xlink:href="#DejaVuSans-75" x="129.785156"/>
      <use xlink:href="#DejaVuSans-6e" x="193.164062"/>
      <use xlink:href="#DejaVuSans-64" x="256.542969"/>
      <use xlink:href="#DejaVuSans-61" x="320.019531"/>
      <use xlink:href="#DejaVuSans-72" x="381.298828"/>
      <use xlink:href="#DejaVuSans-69" x="422.412109"/>
      <use xlink:href="#DejaVuSans-65" x="450.195312"/>
      <use xlink:href="#DejaVuSans-73" x="511.71875"/>
     </g>
    </g>
   </g>
  </g>
 </g>
 <defs>
  <clipPath id="p33c382248b">
   <rect x="14.3" y="104.062054" width="435.7" height="137.475891"/>
  </clipPath>
 </defs>
</svg>
