<?xml version="1.0" encoding="utf-8" standalone="no"?>
<!DOCTYPE svg PUBLIC "-//W3C//DTD SVG 1.1//EN"
  "http://www.w3.org/Graphics/SVG/1.1/DTD/svg11.dtd">
<svg xmlns:xlink="http://www.w3.org/1999/xlink" width="460.8pt" height="345.6pt" viewBox="0 0 460.8 345.6" xmlns="http://www.w3.org/2000/svg" version="1.1">
 <metadata>
  <rdf:RDF xmlns:dc="http://purl.org/dc/elements/1.1/" xmlns:cc="http://creativecommons.org/ns#" xmlns:rdf="http://www.w3.org/1999/02/22-rdf-syntax-ns#">
   <cc:Work>
    <dc:type rdf:resource="http://purl.org/dc/dcmitype/StillImage"/>
    <dc:date>2023-11-01T13:48:45.924136</dc:date>
    <dc:format>image/svg+xml</dc:format>
    <dc:creator>
     <cc:Agent>
      <dc:title>Matplotlib v3.5.2, https://matplotlib.org/</dc:title>
     </cc:Agent>
    </dc:creator>
   </cc:Work>
  </rdf:RDF>
 </metadata>
 <defs>
  <style type="text/css">*{stroke-linejoin: round; stroke-linecap: butt}</style>
 </defs>
 <g id="figure_1">
  <g id="patch_1">
   <path d="M 0 345.6 
L 460.8 345.6 
L 460.8 0 
L 0 0 
z
" style="fill: #ffffff"/>
  </g>
  <g id="axes_1">
   <g id="patch_2">
    <path d="M 14.3 308.580912 
L 450 308.580912 
L 450 37.019088 
L 14.3 37.019088 
z
" style="fill: #ffffff"/>
   </g>
   <g id="matplotlib.axis_1"/>
   <g id="matplotlib.axis_2"/>
   <g id="line2d_1">
    <path d="M 149.471844 276.786257 
L 161.492722 277.138869 
L 171.512271 277.201511 
L 181.516996 277.007722 
L 209.312606 276.135492 
L 215.201928 276.28924 
L 219.110653 276.560342 
L 223.004067 277.004953 
L 226.881027 277.659346 
L 230.740383 278.562609 
L 234.580922 279.755036 
L 238.400586 281.252809 
L 242.195451 283.015227 
L 253.362027 288.568751 
L 255.178246 289.257917 
L 256.976614 289.802658 
L 258.754201 290.181623 
L 260.507551 290.378169 
L 262.232677 290.380362 
L 263.925065 290.180977 
L 265.579669 289.777498 
L 267.190918 289.172115 
L 268.752708 288.371729 
L 270.258655 287.387755 
L 271.703883 286.234719 
L 273.086314 284.929238 
L 274.406744 283.489968 
L 276.87916 280.294862 
L 279.184984 276.839357 
L 282.584153 271.663469 
L 283.779908 270.06696 
L 285.039793 268.583138 
L 286.378206 267.231997 
L 287.805471 266.026835 
L 289.327839 264.974262 
L 290.947445 264.074311 
L 292.66216 263.320845 
L 294.465535 262.701703 
L 298.290892 261.787684 
L 304.321845 260.828629 
L 308.348821 260.172006 
L 312.259378 259.31668 
L 315.975558 258.146943 
L 317.742758 257.418408 
L 319.442711 256.585135 
L 321.072628 255.643651 
L 322.631842 254.593342 
L 324.121832 253.436467 
L 326.910771 250.826424 
L 329.494159 247.889076 
L 337.024598 238.495074 
L 339.816773 235.657431 
L 342.84216 233.100096 
L 346.090559 230.818166 
L 349.508572 228.750668 
L 356.558431 224.903995 
L 363.561332 221.033537 
L 370.384116 216.959411 
L 377.072603 212.710404 
L 385.304982 207.184599 
L 391.796542 202.568869 
L 396.594208 198.956033 
L 401.305817 195.170774 
L 405.891387 191.168227 
L 408.84366 188.362183 
L 411.676706 185.438957 
L 414.351615 182.396261 
L 416.821864 179.235138 
L 419.03332 175.959959 
L 420.924239 172.578421 
L 422.425269 169.101555 
L 423.005821 167.33173 
L 423.459443 165.543716 
L 423.775522 163.739824 
L 423.944917 161.922514 
L 423.961481 160.094359 
L 423.822165 158.258038 
L 423.527022 156.416334 
L 423.079207 154.572139 
L 422.484978 152.728452 
L 421.753691 150.888377 
L 419.932882 147.232016 
L 417.752222 143.629784 
L 414.13504 138.3757 
L 402.382482 122.029663 
L 398.125202 115.550984 
L 394.006745 108.884623 
L 381.423865 88.100379 
L 377.970249 83.079907 
L 375.553225 79.862554 
L 373.032956 76.774673 
L 370.401202 73.835975 
L 367.6512 71.06405 
L 364.777663 68.474375 
L 361.776782 66.08031 
L 358.646224 63.893096 
L 355.385135 61.921862 
L 351.994136 60.173618 
L 348.475327 58.653258 
L 344.832283 57.36356 
L 341.070058 56.305184 
L 337.195181 55.476678 
L 333.215661 54.874468 
L 329.140983 54.492869 
L 324.982106 54.324075 
L 320.751471 54.358168 
L 316.463604 54.583587 
L 312.147788 54.997015 
L 307.867694 55.6187 
L 303.724499 56.494882 
L 301.746112 57.049965 
L 299.856885 57.697791 
L 298.080015 58.451449 
L 296.440686 59.32506 
L 294.963344 60.329189 
L 293.669615 61.46735 
L 292.578177 62.735795 
L 291.70476 64.123511 
L 291.062146 65.612217 
L 290.660168 67.176372 
L 290.505713 68.783168 
L 290.602719 70.392531 
L 290.952175 71.957125 
L 291.552107 73.423104 
L 292.39739 74.73872 
L 293.479552 75.86315 
L 294.786764 76.767323 
L 296.303831 77.433922 
L 298.012199 77.857382 
L 299.889952 78.043893 
L 301.911812 78.011396 
L 304.049139 77.789588 
L 308.538852 76.955522 
L 315.278992 75.575806 
L 317.403358 75.281791 
L 319.427085 75.131396 
L 321.332863 75.149001 
L 323.107624 75.350965 
L 324.742549 75.745631 
L 326.233061 76.333323 
L 327.578827 77.106353 
L 328.78314 78.050331 
L 329.85047 79.14934 
L 330.785417 80.388177 
L 331.592682 81.752399 
L 332.277066 83.228327 
L 332.843473 84.803044 
L 333.296909 86.464395 
L 333.642483 88.200989 
L 334.030979 91.858145 
L 334.05186 95.698624 
L 333.749651 99.658736 
L 333.170508 103.686992 
L 332.362214 107.7441 
L 330.828645 113.827923 
L 328.444892 121.875735 
L 323.643263 137.619528 
L 321.557213 145.304782 
L 319.711891 152.899372 
L 313.036483 181.461608 
L 306.190338 209.05569 
L 304.242049 216.876643 
L 302.574679 222.542635 
L 301.266621 226.163292 
L 299.7234 229.612945 
L 297.866408 232.847289 
L 296.793679 234.368751 
L 295.612825 235.818381 
L 294.318137 237.190419 
L 292.906634 238.479332 
L 291.378064 239.679812 
L 289.734898 240.786774 
L 287.982339 241.795362 
L 286.128315 242.700941 
L 284.183481 243.499104 
L 282.161219 244.18567 
L 280.077641 244.75668 
L 277.951583 245.208403 
L 275.804609 245.537332 
L 273.661013 245.740185 
L 271.547813 245.813907 
L 269.494756 245.755666 
L 267.534315 245.562857 
L 265.701691 245.233098 
L 264.034814 244.764235 
L 262.574338 244.154337 
L 261.363074 243.401787 
L 260.439192 242.506319 
L 259.829036 241.470116 
L 259.546419 240.297919 
L 259.592621 238.997026 
L 259.956393 237.577291 
L 260.613954 236.051129 
L 261.528992 234.433507 
L 263.923593 230.996554 
L 267.858496 225.666946 
L 268.967024 223.931432 
L 269.878213 222.245313 
L 270.551658 220.621271 
L 270.958329 219.068891 
L 271.080581 217.594658 
L 270.912145 216.201961 
L 270.458131 214.891086 
L 269.735019 213.659227 
L 268.768741 212.500951 
L 267.587175 211.410047 
L 266.216962 210.380305 
L 264.683436 209.405535 
L 261.221223 207.596263 
L 257.377004 205.933134 
L 251.22887 203.605873 
L 242.970089 200.561982 
L 239.0288 198.957791 
L 235.301526 197.235624 
L 231.828546 195.348545 
L 228.630872 193.252018 
L 225.71688 190.912017 
L 223.085142 188.308497 
L 220.724497 185.435475 
L 218.614046 182.301031 
L 216.723151 178.927305 
L 215.011443 175.3505 
L 212.667582 169.718317 
L 209.62038 162.084872 
L 207.960535 158.41166 
L 206.11614 154.946113 
L 204.034121 151.753702 
L 201.67601 148.884066 
L 200.385392 147.581472 
L 199.017942 146.371012 
L 197.572959 145.254437 
L 196.050654 144.232509 
L 194.452151 143.305002 
L 192.779487 142.470697 
L 189.224388 141.071878 
L 185.419904 140.006524 
L 181.415181 139.229274 
L 177.271399 138.681247 
L 170.923071 138.158686 
L 160.362553 137.658616 
L 152.189482 137.219184 
L 146.278919 136.704477 
L 140.532808 135.954904 
L 134.881697 134.933532 
L 129.242977 133.641042 
L 121.638965 131.584281 
L 109.905543 128.334437 
L 105.906046 127.41269 
L 101.875285 126.684586 
L 97.827914 126.231637 
L 93.784701 126.135961 
L 91.773661 126.2431 
L 89.775726 126.462027 
L 87.796226 126.797386 
L 85.84112 127.252454 
L 83.916995 127.82914 
L 82.031068 128.527988 
L 80.191183 129.348174 
L 78.405812 130.287508 
L 76.684056 131.342431 
L 75.035646 132.50802 
L 73.470937 133.777984 
L 72.000917 135.144663 
L 70.637201 136.599034 
L 69.392031 138.130703 
L 68.278279 139.727913 
L 67.309444 141.377537 
L 66.499655 143.065084 
L 65.863608 144.774732 
L 65.414677 146.490577 
L 65.16117 148.199087 
L 65.105532 149.889629 
L 65.244347 151.554463 
L 65.568338 153.188749 
L 66.062363 154.790542 
L 66.705421 156.360795 
L 68.325312 159.424974 
L 71.023009 163.970099 
L 72.544554 167.092826 
L 73.135071 168.705531 
L 73.587929 170.358219 
L 73.892838 172.052677 
L 74.045765 173.788674 
L 74.048942 175.563954 
L 73.910858 177.37424 
L 73.27035 181.074641 
L 72.248997 184.839048 
L 70.957411 188.624119 
L 68.710261 194.267646 
L 65.476288 201.618454 
L 59.797248 213.933719 
L 56.378336 220.883776 
L 52.558245 228.020414 
L 45.401107 241.073225 
L 43.58036 244.856893 
L 42.062849 248.60213 
L 41.463126 250.445115 
L 40.996425 252.259012 
L 40.684628 254.036089 
L 40.548528 255.768574 
L 40.604528 257.449389 
L 40.864188 259.072254 
L 41.334221 260.631689 
L 42.016499 262.12301 
L 42.908048 263.542334 
L 44.001047 264.886577 
L 45.282833 266.153451 
L 46.735899 267.341468 
L 48.337899 268.449939 
L 50.062771 269.478916 
L 53.782748 271.301088 
L 57.726643 272.817578 
L 61.769708 274.044669 
L 65.831679 275.005335 
L 69.876511 275.72918 
L 73.900957 276.250117 
L 79.90629 276.722248 
L 85.882768 276.911807 
L 93.82165 276.875993 
L 107.680907 276.485526 
L 119.570342 276.224398 
L 129.506233 276.224105 
L 139.474251 276.438998 
L 147.470363 276.71337 
L 147.470363 276.71337 
" clip-path="url(#p39de5b79f0)" style="fill: none; stroke: #0000ff; stroke-width: 2; stroke-linecap: square"/>
   </g>
   <g id="line2d_2">
    <path d="M 149.483475 276.460084 
L 162.492405 275.568748 
L 174.209401 274.838763 
L 184.636461 274.424507 
L 195.070086 274.235437 
L 201.590931 274.353918 
L 206.799355 274.662783 
L 211.988778 275.204081 
L 217.143574 276.006917 
L 220.976583 276.794695 
L 224.770831 277.751502 
L 228.515071 278.887876 
L 232.194206 280.21928 
L 235.785529 281.77081 
L 241.615254 284.694466 
L 245.160318 286.352534 
L 247.58832 287.307048 
L 250.077922 288.095854 
L 252.620221 288.6935 
L 255.193024 289.085554 
L 257.807126 289.268855 
L 260.406307 289.246932 
L 263.003295 289.030716 
L 265.564064 288.574439 
L 268.037603 287.756876 
L 270.346522 286.553694 
L 272.470261 285.039377 
L 274.408343 283.287272 
L 276.174687 281.371793 
L 278.615367 278.308615 
L 282.628893 273.158616 
L 284.383533 271.227469 
L 286.279796 269.442764 
L 288.350505 267.853342 
L 290.568538 266.495873 
L 294.059662 264.751171 
L 297.674797 263.252323 
L 301.384006 261.987118 
L 307.659491 260.188706 
L 312.653908 258.676821 
L 316.30719 257.279052 
L 318.652661 256.14128 
L 320.888698 254.802677 
L 323.018902 253.300789 
L 326.071285 250.85629 
L 329.965596 247.382475 
L 335.611327 241.953941 
L 340.344627 237.467696 
L 351.919381 226.933959 
L 355.992879 223.67391 
L 359.171128 221.391682 
L 362.453298 219.261037 
L 366.957818 216.629002 
L 372.71037 213.555648 
L 387.740227 205.704551 
L 393.375866 202.422439 
L 397.764548 199.601158 
L 402.013768 196.573846 
L 405.089952 194.155555 
L 408.055709 191.602753 
L 410.882933 188.897249 
L 413.521673 186.007839 
L 415.148945 183.96866 
L 416.65148 181.836752 
L 418.014844 179.611828 
L 419.224213 177.299124 
L 420.266156 174.908295 
L 421.131088 172.44813 
L 421.812051 169.926698 
L 422.301426 167.367544 
L 422.598806 164.774773 
L 422.699889 162.170974 
L 422.6027 159.567919 
L 422.152584 155.687164 
L 421.388461 151.85134 
L 420.307479 148.089304 
L 418.912637 144.429295 
L 417.231838 140.893164 
L 415.32025 137.47965 
L 412.532138 133.065427 
L 405.431727 122.127466 
L 395.640571 106.714379 
L 390.543562 99.13673 
L 385.989923 92.771251 
L 382.002959 87.609523 
L 378.65812 83.603672 
L 375.15678 79.735898 
L 371.482651 76.031348 
L 367.623682 72.519373 
L 364.602546 70.032901 
L 361.467191 67.692531 
L 358.214215 65.51892 
L 354.848285 63.524606 
L 351.378416 61.716404 
L 347.821432 60.085967 
L 344.192697 58.623405 
L 340.50183 57.325115 
L 336.75615 56.193344 
L 332.962069 55.234174 
L 329.126215 54.455801 
L 325.258841 53.867635 
L 321.366093 53.478178 
L 317.457362 53.295966 
L 313.543397 53.323726 
L 309.637608 53.571331 
L 307.05295 53.930351 
L 304.513654 54.530061 
L 302.062994 55.423414 
L 299.753942 56.631783 
L 297.631411 58.150798 
L 295.736465 59.954743 
L 294.125276 61.985318 
L 292.818679 64.24543 
L 292.32006 65.44748 
L 291.957238 66.697425 
L 291.754508 67.984502 
L 291.728279 69.288393 
L 291.892304 70.582724 
L 292.257848 71.834297 
L 292.827104 73.005103 
L 293.577142 74.066821 
L 294.458953 75.019847 
L 295.445987 75.869459 
L 296.528129 76.604507 
L 297.666496 77.205261 
L 298.874677 77.685413 
L 300.144357 78.041221 
L 301.424803 78.26283 
L 302.72577 78.359391 
L 305.330861 78.203358 
L 307.888059 77.668902 
L 311.628449 76.490899 
L 314.124192 75.714598 
L 316.671144 75.149173 
L 319.261264 74.934963 
L 320.575242 74.988866 
L 321.866405 75.156491 
L 323.127562 75.43619 
L 324.377356 75.834718 
L 325.578123 76.344823 
L 326.720352 76.964666 
L 328.823578 78.490265 
L 330.697141 80.30396 
L 332.317254 82.337884 
L 333.668325 84.577412 
L 334.712078 86.96039 
L 335.44674 89.465023 
L 335.870019 92.039149 
L 335.999677 94.642181 
L 335.868297 97.247916 
L 335.520279 99.835099 
L 334.71263 103.662971 
L 332.710732 111.229545 
L 330.415768 120.067645 
L 327.151035 134.041336 
L 324.675471 144.177934 
L 321.953414 154.251889 
L 317.105971 171.858492 
L 314.252898 183.246283 
L 308.363769 207.321306 
L 306.283102 214.866354 
L 305.045254 218.578819 
L 303.585008 222.209477 
L 301.862428 225.723136 
L 299.860446 229.084719 
L 298.371143 231.224279 
L 296.757988 233.274776 
L 295.02115 235.218715 
L 293.159793 237.041392 
L 291.184561 238.744832 
L 289.108769 240.324438 
L 286.940699 241.768286 
L 284.677483 243.068463 
L 282.328284 244.21142 
L 279.90887 245.186846 
L 277.42815 245.994477 
L 274.898872 246.639626 
L 272.335734 247.134068 
L 269.745605 247.448223 
L 268.435919 247.477463 
L 267.14366 247.373032 
L 265.862652 247.100776 
L 264.638195 246.646995 
L 263.505644 246.018737 
L 262.465576 245.215376 
L 261.551149 244.267274 
L 260.779501 243.217477 
L 259.579623 240.956488 
L 259.114979 239.756385 
L 258.7767 238.486695 
L 258.59895 237.173515 
L 258.594783 235.884877 
L 258.763056 234.579995 
L 259.107605 233.319843 
L 259.634317 232.130178 
L 260.344829 231.032258 
L 261.206201 230.066711 
L 262.195042 229.208887 
L 264.364559 227.747652 
L 266.590016 226.360891 
L 267.639072 225.608875 
L 268.638805 224.74336 
L 269.506271 223.781794 
L 270.224583 222.698801 
L 270.762121 221.502516 
L 271.09215 220.243569 
L 271.21576 218.955899 
L 271.141618 217.658298 
L 270.891415 216.378191 
L 270.072536 213.920641 
L 269.529307 212.741199 
L 268.882408 211.604742 
L 268.12937 210.526907 
L 267.287562 209.536457 
L 266.354438 208.627412 
L 264.259205 207.071659 
L 261.95612 205.839825 
L 258.342334 204.342902 
L 253.43324 202.570328 
L 242.35297 198.678372 
L 238.748325 197.153364 
L 235.241747 195.417707 
L 231.867037 193.440246 
L 229.711044 191.978354 
L 227.642596 190.387966 
L 225.688711 188.662126 
L 223.865531 186.798805 
L 222.184782 184.804597 
L 220.6455 182.699979 
L 218.560264 179.39088 
L 216.683582 175.957323 
L 213.820507 170.095699 
L 210.961621 164.230641 
L 209.100476 160.786107 
L 207.056164 157.447848 
L 204.782461 154.2635 
L 203.123591 152.254919 
L 201.333384 150.35434 
L 199.409664 148.598713 
L 197.345346 147.004186 
L 195.174513 145.558749 
L 191.779116 143.622488 
L 188.251349 141.934848 
L 184.614287 140.490408 
L 180.889873 139.283446 
L 177.101863 138.294032 
L 171.991824 137.239078 
L 165.557066 136.163322 
L 130.7577 130.770889 
L 110.137447 127.531595 
L 104.948154 126.980474 
L 101.04051 126.758769 
L 97.127606 126.735914 
L 93.22095 126.94073 
L 89.338814 127.418516 
L 86.779932 127.922345 
L 84.262663 128.605215 
L 81.809808 129.49044 
L 79.442624 130.585258 
L 77.184261 131.890474 
L 75.061094 133.405946 
L 73.102145 135.128788 
L 71.339483 137.049108 
L 69.798403 139.156954 
L 68.50744 141.42377 
L 67.477891 143.818951 
L 66.698722 146.308298 
L 66.144033 148.850795 
L 65.818647 151.438294 
L 65.807544 154.039405 
L 65.960878 155.337731 
L 66.244475 156.612961 
L 66.671435 157.844383 
L 67.240705 159.017129 
L 67.932618 160.122213 
L 69.564658 162.154679 
L 73.000928 166.078407 
L 73.732536 167.158237 
L 74.356478 168.303838 
L 74.850356 169.508864 
L 75.21655 170.759394 
L 75.608755 173.336276 
L 75.613733 175.943396 
L 75.285094 178.528735 
L 74.668249 181.063926 
L 73.828949 183.534094 
L 71.834382 188.355705 
L 67.64952 197.916318 
L 64.794732 203.780406 
L 61.703125 209.523107 
L 57.756405 216.279106 
L 45.05317 237.558015 
L 43.946493 239.920686 
L 43.019664 242.358728 
L 42.310577 244.871214 
L 41.849212 247.441664 
L 41.65438 250.04289 
L 41.73367 252.64971 
L 42.082727 255.243805 
L 42.659481 257.779385 
L 43.407412 260.262336 
L 44.35558 262.69089 
L 45.53545 265.004678 
L 46.985622 267.188779 
L 48.673676 269.169947 
L 50.592245 270.939828 
L 52.705655 272.472182 
L 54.975739 273.758343 
L 57.364936 274.805424 
L 59.839216 275.633942 
L 62.368655 276.274043 
L 66.220189 276.963017 
L 71.398901 277.584649 
L 77.89555 278.150696 
L 85.70884 278.604555 
L 93.531723 278.846383 
L 103.966782 278.929638 
L 114.401524 278.811144 
L 123.526869 278.49067 
L 133.944859 277.892019 
L 148.229804 276.830105 
L 148.229804 276.830105 
" clip-path="url(#p39de5b79f0)" style="fill: none; stroke: #ff0000; stroke-width: 2; stroke-linecap: square"/>
   </g>
   <g id="line2d_3">
    <path d="M 149.24729 283.08339 
L 153.27935 282.937852 
L 155.305458 282.788205 
L 157.338003 282.496316 
L 161.39285 282.497459 
L 163.421177 282.616128 
L 165.450501 282.868426 
L 173.583461 282.863914 
L 179.662059 282.492842 
L 187.732252 282.50214 
L 191.752571 282.874646 
L 203.553741 283.07442 
L 207.381021 282.804637 
L 211.155492 282.835615 
L 214.85557 283.171632 
L 220.326225 283.178621 
L 223.991988 282.947763 
L 227.614507 283.198001 
L 229.433231 283.386984 
L 232.944608 284.410395 
L 236.328692 286.066437 
L 239.742258 288.000153 
L 243.13938 290.359426 
L 244.857135 291.663599 
L 246.703164 292.84896 
L 248.748946 293.767406 
L 253.155172 295.184278 
L 255.460566 295.671755 
L 257.804324 296.009414 
L 260.172801 296.237193 
L 262.566318 296.162666 
L 264.940308 295.817419 
L 267.38948 295.636148 
L 272.053181 294.046026 
L 274.279026 292.93982 
L 276.468624 291.714876 
L 278.21071 289.975428 
L 279.71 288.068003 
L 280.867787 285.960611 
L 284.590368 277.839292 
L 286.707224 274.613159 
L 288.872841 272.096199 
L 289.945958 271.091964 
L 291.098705 270.329302 
L 294.697029 268.536356 
L 303.145531 266.746997 
L 305.155548 266.339075 
L 307.274168 266.220388 
L 309.428135 265.983714 
L 313.768267 265.080579 
L 318.203211 264.045522 
L 320.354336 263.21601 
L 324.591056 261.277134 
L 326.471657 259.89801 
L 328.180598 258.334138 
L 331.155156 254.905006 
L 332.496353 253.150193 
L 334.767645 249.49865 
L 335.809408 247.708183 
L 338.195514 244.578091 
L 340.806607 241.924204 
L 342.15731 240.747509 
L 343.604191 239.734991 
L 345.116688 238.858017 
L 346.479279 237.829582 
L 349.445397 236.000132 
L 350.949054 234.997207 
L 352.434255 233.844244 
L 362.83458 227.982971 
L 364.66585 227.066053 
L 371.705165 222.949217 
L 373.476643 221.965155 
L 376.907722 219.836199 
L 380.366209 217.76477 
L 383.690342 215.489485 
L 385.443841 214.485367 
L 390.402468 210.994531 
L 392.087179 209.861802 
L 395.221999 207.242313 
L 398.568093 204.867531 
L 400.109317 203.486502 
L 401.736175 202.202817 
L 403.232144 200.741275 
L 404.844905 199.409765 
L 406.373929 197.962773 
L 408.059447 196.679777 
L 409.50814 195.114276 
L 411.196371 193.794523 
L 415.801945 189.25501 
L 418.789917 186.085781 
L 420.193058 184.407405 
L 421.722118 182.809726 
L 424.525956 179.357266 
L 427.788554 173.467489 
L 428.676822 171.371174 
L 429.371953 169.182204 
L 429.797245 166.901829 
L 430.092285 164.586677 
L 430.195455 162.241361 
L 430.074429 159.889588 
L 429.316074 155.249449 
L 428.651864 152.997535 
L 427.604622 150.886267 
L 426.797416 148.709082 
L 425.743465 146.642066 
L 423.39342 142.688726 
L 421.015334 138.850418 
L 418.477608 135.256174 
L 417.356879 133.416782 
L 414.910243 130.031463 
L 413.82544 128.309921 
L 412.626202 126.716366 
L 410.538289 123.409468 
L 408.607161 120.091843 
L 407.447459 118.588891 
L 405.575846 115.296692 
L 403.470756 112.151917 
L 401.457519 108.909161 
L 399.31422 105.685094 
L 397.118234 102.416248 
L 392.606286 95.711506 
L 388.10768 88.735328 
L 386.79338 87.085144 
L 385.765777 85.245648 
L 383.288863 81.833303 
L 382.139076 80.063522 
L 381.085964 78.217067 
L 376.230327 71.256574 
L 372.442937 66.042605 
L 369.655322 62.729294 
L 368.025094 61.32102 
L 364.587197 58.720623 
L 362.734197 57.612845 
L 360.817627 56.617271 
L 356.766804 55.082162 
L 354.675211 54.506924 
L 350.705871 52.968396 
L 346.543212 51.966409 
L 344.512465 51.307163 
L 342.436097 50.773021 
L 333.85351 49.641938 
L 327.275055 49.362807 
L 320.610439 49.776175 
L 316.097566 49.633469 
L 304.541284 50.205197 
L 299.792944 50.770106 
L 297.368392 51.188218 
L 294.927572 51.833384 
L 292.614809 52.974875 
L 290.372344 54.390691 
L 288.295455 56.141067 
L 286.595145 58.309936 
L 285.24923 60.721093 
L 284.381694 63.326379 
L 283.908827 65.991659 
L 283.722088 68.661994 
L 284.05264 71.313892 
L 284.499217 73.978645 
L 285.57247 76.529903 
L 286.945119 79.045585 
L 288.890497 81.268332 
L 291.324516 82.992513 
L 294.009714 84.222112 
L 296.840112 84.748279 
L 299.613597 85.04117 
L 302.32531 84.774208 
L 304.980904 84.654988 
L 309.932333 83.539072 
L 319.584971 79.803536 
L 321.079991 79.387788 
L 322.414162 79.314037 
L 323.55861 79.512414 
L 324.547126 79.847473 
L 325.380841 80.370774 
L 325.89762 81.258806 
L 326.72702 81.824458 
L 328.337271 84.843677 
L 328.803252 86.076316 
L 329.165732 87.435821 
L 329.624758 90.454799 
L 329.41436 92.102918 
L 327.726472 98.986304 
L 326.924765 102.606955 
L 324.491519 112.078244 
L 324.0764 114.067645 
L 322.75559 117.954342 
L 322.418816 120.014153 
L 321.770807 121.986033 
L 321.419304 124.054566 
L 320.870647 126.062807 
L 320.47971 128.118117 
L 319.895867 130.109625 
L 319.471971 132.14337 
L 318.830092 134.104225 
L 315.001806 149.786031 
L 313.494356 155.466682 
L 312.60225 159.243767 
L 311.628745 162.990318 
L 306.859878 181.962525 
L 304.901703 189.782607 
L 304.407191 191.76277 
L 303.802529 193.724464 
L 302.346437 199.728021 
L 301.777146 201.707688 
L 301.390574 203.724737 
L 300.831581 205.69063 
L 300.421469 207.678006 
L 299.840194 209.606284 
L 299.468172 211.562968 
L 297.46327 218.947597 
L 297.21434 220.775661 
L 296.667065 222.464759 
L 296.425952 224.226609 
L 295.882256 225.833376 
L 295.055765 229.087587 
L 293.34436 231.752432 
L 292.280478 232.894804 
L 291.039509 233.856052 
L 289.47422 234.425513 
L 285.107029 236.377835 
L 280.236062 237.900251 
L 278.514487 238.322637 
L 275.04098 239.376155 
L 273.27513 239.801022 
L 271.526499 240.077777 
L 264.356526 240.659491 
L 263.605082 240.497076 
L 263.146603 240.128948 
L 263.425248 239.574568 
L 264.782529 238.136353 
L 265.541739 236.905672 
L 272.071077 231.421913 
L 273.819135 229.685232 
L 275.182368 227.600218 
L 276.457913 225.395133 
L 277.64876 223.034582 
L 278.521174 220.390555 
L 278.658273 217.472585 
L 278.32045 214.496328 
L 277.433452 211.661953 
L 275.835952 209.346978 
L 273.846546 207.651922 
L 271.784677 206.359182 
L 267.688848 204.335713 
L 265.659099 203.411453 
L 259.41449 200.896829 
L 257.358073 199.949197 
L 253.175466 198.263753 
L 251.179445 197.237166 
L 249.091928 196.556533 
L 247.157246 195.58237 
L 243.299498 194.063222 
L 241.511227 193.204986 
L 236.308585 191.204754 
L 233.283916 189.616923 
L 229.19965 187.00352 
L 224.874909 182.352892 
L 223.95737 180.992736 
L 222.326603 178.017347 
L 220.022508 173.104928 
L 218.009554 167.600902 
L 215.417762 159.622023 
L 213.945372 155.494005 
L 212.995221 153.492383 
L 212.145554 151.40838 
L 211.116926 149.393131 
L 208.647811 145.545755 
L 207.187127 143.758608 
L 205.524582 142.145728 
L 203.746437 140.656197 
L 201.824097 139.355751 
L 199.666635 138.443764 
L 195.283746 137.047382 
L 193.081475 136.527826 
L 188.592905 136.063551 
L 186.404099 135.797418 
L 184.272575 135.290048 
L 179.926468 134.622637 
L 173.380562 133.83221 
L 171.214884 133.475102 
L 169.066741 132.966853 
L 158.575052 131.530799 
L 156.57343 131.069612 
L 152.658584 130.487135 
L 145.199407 129.526374 
L 143.431038 129.028776 
L 139.888391 128.414897 
L 115.181542 124.572978 
L 102.532641 122.266008 
L 100.332611 122.128861 
L 91.319788 120.66274 
L 88.930126 120.394184 
L 86.512005 120.40476 
L 79.382591 122.031933 
L 77.154145 123.090762 
L 75.085978 124.449204 
L 73.124799 125.940394 
L 69.617733 129.343016 
L 68.10228 131.228493 
L 66.732565 133.187575 
L 65.289999 135.038103 
L 63.995552 136.980883 
L 60.732807 143.149622 
L 59.091282 147.647028 
L 58.546878 150.052212 
L 58.082781 155.080947 
L 58.201376 157.608469 
L 58.54797 160.051346 
L 59.328049 162.207977 
L 60.385698 164.03431 
L 62.149372 165.197533 
L 64.483512 165.789057 
L 66.54035 166.436462 
L 68.281166 167.246885 
L 69.88248 168.179731 
L 70.94135 169.40648 
L 71.167307 170.906228 
L 70.906109 172.451293 
L 69.38111 175.388327 
L 68.082836 178.250473 
L 67.187151 179.698167 
L 66.742587 181.308292 
L 65.77598 182.836735 
L 65.251699 184.554614 
L 63.407061 187.850882 
L 62.633809 189.602979 
L 61.361274 193.292181 
L 58.648662 202.822109 
L 57.811603 204.567626 
L 57.245562 206.423122 
L 56.863484 208.35063 
L 53.744595 215.241598 
L 52.600207 216.791748 
L 51.030832 220.317559 
L 49.97037 221.982473 
L 48.01094 225.506834 
L 43.498579 232.68129 
L 40.843909 236.251306 
L 38.110835 239.911258 
L 37.005443 241.916219 
L 36.039637 244.008149 
L 35.242987 246.189251 
L 34.39456 250.827774 
L 34.104545 253.196328 
L 34.386016 255.623959 
L 34.516065 258.031129 
L 35.159135 260.380408 
L 36.730252 264.981356 
L 37.740883 267.252931 
L 39.158773 269.290579 
L 42.536631 272.927842 
L 44.508537 274.410222 
L 46.638614 275.616587 
L 51.016296 277.688096 
L 57.903864 279.52184 
L 60.154242 280.058316 
L 62.494805 280.08215 
L 66.872665 280.8943 
L 69.077616 280.943128 
L 71.201524 281.340016 
L 73.332505 281.53452 
L 75.458439 281.562452 
L 77.546961 281.809459 
L 79.630844 281.929218 
L 81.692819 282.275747 
L 85.809072 282.387853 
L 87.850787 282.586996 
L 93.929891 282.763592 
L 99.931721 282.509117 
L 111.798042 282.517431 
L 115.730106 282.866803 
L 133.3568 282.963606 
L 135.327179 282.902969 
L 137.308648 282.608177 
L 139.292108 282.46256 
L 141.276611 282.458367 
L 145.243506 282.946451 
L 147.240196 283.050346 
L 147.240196 283.050346 
" clip-path="url(#p39de5b79f0)" style="fill: none; stroke: #008000; stroke-linecap: square"/>
   </g>
   <g id="line2d_4">
    <path d="M 149.689277 270.688832 
L 155.674876 270.546195 
L 157.653303 270.750872 
L 163.587588 270.675931 
L 165.561549 270.466488 
L 175.404113 270.583751 
L 177.378016 270.758706 
L 189.247748 270.608596 
L 191.233096 270.483094 
L 203.26786 270.67528 
L 207.314101 271.048704 
L 211.372823 271.087949 
L 215.478936 270.784872 
L 221.733383 270.856271 
L 232.472966 272.168074 
L 234.710851 272.525133 
L 239.080448 273.869715 
L 241.175802 274.805159 
L 243.146739 275.97933 
L 248.710142 279.655546 
L 252.29651 281.626499 
L 255.417415 283.559167 
L 258.294749 284.699741 
L 259.59393 285.029623 
L 263.064266 285.401981 
L 264.117396 285.04388 
L 265.319958 284.949068 
L 266.485428 284.473737 
L 267.699373 283.853429 
L 269.929728 281.820826 
L 270.926354 280.485522 
L 271.869078 278.997292 
L 272.672737 277.309566 
L 273.272733 275.400621 
L 274.820763 271.549504 
L 275.612499 269.470002 
L 276.770467 267.504296 
L 278.148629 265.577703 
L 279.845768 263.822715 
L 281.780957 262.25821 
L 283.815242 260.813773 
L 285.951943 259.541815 
L 288.22274 258.579601 
L 292.700122 256.904814 
L 294.945856 256.335461 
L 301.406002 255.251157 
L 303.457573 255.11614 
L 307.282164 254.428455 
L 312.611838 253.90379 
L 317.391969 252.73745 
L 319.94967 250.887948 
L 321.087608 249.7751 
L 322.106431 248.502601 
L 325.622245 242.320933 
L 329.183592 237.353567 
L 330.612725 235.696791 
L 332.203592 234.123892 
L 337.432163 229.767047 
L 339.374196 228.590569 
L 341.217323 227.338465 
L 344.97842 225.126482 
L 346.907198 224.221709 
L 353.914204 219.988304 
L 355.661987 219.050134 
L 360.678952 216.015266 
L 364.072509 214.133713 
L 377.286778 205.891622 
L 378.820831 204.674557 
L 382.019477 202.435116 
L 388.351401 197.868568 
L 391.284716 195.285005 
L 392.853533 194.134842 
L 394.317319 192.852993 
L 395.892378 191.714036 
L 401.673724 186.566558 
L 402.939342 185.107203 
L 408.29551 179.764496 
L 412.028945 175.738848 
L 416.513136 170.38608 
L 417.308917 168.94323 
L 417.961195 167.480877 
L 418.899071 164.566485 
L 419.093769 163.112168 
L 419.112948 161.67603 
L 418.983234 160.261121 
L 418.696553 158.86349 
L 417.02979 154.691375 
L 416.08288 153.338624 
L 412.270627 147.168035 
L 411.140813 145.537045 
L 408.986638 142.074105 
L 407.763457 140.413801 
L 405.611271 136.874454 
L 404.452093 135.181061 
L 403.447573 133.392419 
L 400.094472 128.383899 
L 398.956647 126.753769 
L 398.032249 124.98489 
L 395.740989 121.758623 
L 393.663474 118.388055 
L 390.394926 113.395879 
L 379.158995 96.689684 
L 377.955665 95.095077 
L 376.999972 93.359954 
L 375.768474 91.8187 
L 373.762318 88.490415 
L 372.679103 86.908355 
L 371.505237 85.414551 
L 367.303655 79.250862 
L 366.21418 77.777914 
L 363.833416 75.064852 
L 362.618063 73.753561 
L 360.038624 71.331793 
L 358.729494 70.156172 
L 354.284906 67.424604 
L 352.821027 66.506033 
L 349.728311 64.962645 
L 348.056005 64.463839 
L 346.341458 64.091729 
L 343.027098 63.05804 
L 339.526473 62.556369 
L 337.805924 62.130928 
L 334.237655 61.625534 
L 330.573991 61.229578 
L 320.951835 60.867838 
L 316.964035 61.351152 
L 305.087528 61.827131 
L 303.294569 62.028592 
L 301.649376 62.386713 
L 298.796526 63.235281 
L 297.690059 63.856218 
L 296.877755 64.646909 
L 296.247338 65.450003 
L 295.541553 67.144928 
L 295.364048 68.001801 
L 295.383436 69.720055 
L 295.721761 70.462955 
L 295.904339 71.161844 
L 297.079335 72.645234 
L 298.712661 73.739247 
L 301.681729 74.248361 
L 305.522164 73.39474 
L 307.582163 72.435613 
L 309.771832 71.582851 
L 311.997523 70.525222 
L 314.306713 69.5582 
L 316.7063 68.7755 
L 319.196009 68.293407 
L 321.748808 68.176698 
L 324.331926 68.354194 
L 326.899048 68.88458 
L 329.348652 69.83921 
L 333.911099 72.348436 
L 337.126776 76.143943 
L 338.263273 78.249001 
L 339.141332 80.413918 
L 339.685666 82.646734 
L 339.998975 84.888438 
L 340.124263 87.122781 
L 340.010479 89.351533 
L 340.109009 93.726981 
L 339.667211 98.104422 
L 339.275676 100.275666 
L 334.464053 119.290955 
L 334.138243 121.418439 
L 333.472832 123.428972 
L 333.125205 125.522006 
L 332.486668 127.507724 
L 332.046682 129.537342 
L 331.45431 131.500993 
L 331.057237 133.505681 
L 330.503155 135.443422 
L 330.170208 137.428131 
L 324.26827 159.885131 
L 316.319613 190.606562 
L 312.949364 204.383597 
L 312.328384 206.327013 
L 311.883659 208.316142 
L 311.299899 210.275922 
L 310.90025 212.283572 
L 310.310694 214.249011 
L 309.007367 220.292749 
L 308.703401 222.365958 
L 308.070079 224.35413 
L 307.698576 226.450186 
L 306.951369 228.437679 
L 306.400699 230.538858 
L 305.5176 232.537253 
L 303.478361 236.540298 
L 302.17171 238.448005 
L 300.607663 240.200516 
L 297.019731 243.337065 
L 294.894867 244.513898 
L 290.337499 246.232844 
L 285.80941 247.843478 
L 281.193437 249.349371 
L 276.387846 250.243046 
L 266.734147 251.370881 
L 264.253723 251.577989 
L 261.761511 251.354592 
L 259.229578 250.713362 
L 256.593114 249.581671 
L 254.242159 247.427695 
L 252.634231 244.378705 
L 251.985199 241.020734 
L 252.13938 237.873888 
L 252.786508 235.091515 
L 253.915968 232.70063 
L 257.348561 229.046469 
L 258.9656 227.314983 
L 260.652165 225.744528 
L 263.478461 222.714203 
L 265.04807 221.618158 
L 266.334635 220.548938 
L 267.129965 219.457753 
L 267.430762 218.452422 
L 267.543266 217.651643 
L 267.229456 217.049835 
L 265.941391 216.340632 
L 264.125745 215.575194 
L 258.397619 213.5924 
L 253.032398 211.195277 
L 249.177693 209.235002 
L 247.114409 208.44589 
L 245.140979 207.348784 
L 243.029521 206.602482 
L 238.915372 204.834452 
L 236.808421 204.103323 
L 232.777652 202.2922 
L 225.011105 198.246855 
L 219.804614 194.254924 
L 218.283682 192.681757 
L 215.575099 189.260023 
L 213.192975 185.622892 
L 211.162881 181.795798 
L 208.761255 175.812167 
L 207.268798 171.85825 
L 202.400059 159.131224 
L 199.981364 154.711833 
L 198.01247 152.291239 
L 196.95098 151.214064 
L 195.758861 150.309906 
L 193.240578 148.731098 
L 191.865727 148.107229 
L 190.356596 147.7178 
L 188.779391 147.461579 
L 187.231676 147.05457 
L 183.86987 146.635549 
L 182.063327 146.673042 
L 178.385954 146.270886 
L 170.502921 144.902068 
L 168.437802 144.760253 
L 158.025136 143.153459 
L 155.940614 143.043461 
L 151.821901 142.494314 
L 143.768148 141.219276 
L 141.75187 141.155664 
L 137.78503 140.625904 
L 131.874189 139.624586 
L 114.002502 136.39954 
L 100.779811 134.048084 
L 99.063921 133.465368 
L 92.258012 132.198183 
L 87.013773 131.661443 
L 85.32476 132.034166 
L 83.752365 132.749899 
L 82.23918 133.567798 
L 80.794445 134.488189 
L 78.165597 136.63723 
L 77.108926 137.965243 
L 74.955975 140.372323 
L 72.715505 144.258826 
L 72.250907 145.5128 
L 71.2031 147.677955 
L 70.362722 149.759307 
L 69.722394 150.926276 
L 69.474151 152.201438 
L 69.314278 153.624829 
L 69.504628 155.094393 
L 70.016473 156.557494 
L 71.170894 157.772974 
L 72.576583 158.921522 
L 74.25697 160.017436 
L 76.637393 160.88106 
L 79.087471 161.981527 
L 80.65217 163.782547 
L 81.240256 166.115719 
L 81.363878 168.597807 
L 81.213499 171.075645 
L 81.201303 173.470553 
L 80.773008 175.816948 
L 80.087383 178.056481 
L 78.655241 182.293106 
L 77.540789 184.238042 
L 76.903358 186.278792 
L 75.809737 188.157351 
L 73.927062 194.204032 
L 69.13357 207.617958 
L 68.71664 209.577654 
L 67.986099 211.380799 
L 67.021898 213.068161 
L 65.737106 216.74915 
L 64.974306 218.554359 
L 64.091235 220.324099 
L 63.526021 222.277924 
L 61.412429 225.769116 
L 60.495378 227.622378 
L 55.844062 234.670302 
L 52.179689 239.888476 
L 49.847982 243.332352 
L 47.181487 248.522651 
L 46.173087 251.81864 
L 46.103349 253.366157 
L 46.263386 254.74806 
L 46.17172 255.900534 
L 46.497294 256.886348 
L 46.510212 257.777635 
L 46.64306 258.626468 
L 47.526007 260.226128 
L 48.676503 262.372759 
L 50.961477 264.366421 
L 52.352904 265.373937 
L 53.967983 266.177023 
L 57.541972 267.398757 
L 61.39949 268.004331 
L 63.36593 268.102656 
L 65.203719 268.628082 
L 69.039342 268.786957 
L 70.880412 269.177271 
L 72.77399 269.192074 
L 74.639708 269.382578 
L 76.496238 269.709887 
L 95.657629 270.541662 
L 97.62244 270.743973 
L 109.502579 270.769413 
L 111.498008 270.771587 
L 115.492436 270.466645 
L 133.603321 270.563621 
L 135.621441 270.504025 
L 137.633495 270.669771 
L 141.661121 270.714984 
L 143.679425 270.530315 
L 147.690372 270.656083 
L 147.690372 270.656083 
" clip-path="url(#p39de5b79f0)" style="fill: none; stroke: #008000; stroke-linecap: square"/>
   </g>
   <g id="patch_3">
    <path d="M 14.3 308.580912 
L 14.3 37.019088 
" style="fill: none; stroke: #000000; stroke-width: 0.8; stroke-linejoin: miter; stroke-linecap: square"/>
   </g>
   <g id="patch_4">
    <path d="M 450 308.580912 
L 450 37.019088 
" style="fill: none; stroke: #000000; stroke-width: 0.8; stroke-linejoin: miter; stroke-linecap: square"/>
   </g>
   <g id="patch_5">
    <path d="M 14.3 308.580912 
L 450 308.580912 
" style="fill: none; stroke: #000000; stroke-width: 0.8; stroke-linejoin: miter; stroke-linecap: square"/>
   </g>
   <g id="patch_6">
    <path d="M 14.3 37.019088 
L 450 37.019088 
" style="fill: none; stroke: #000000; stroke-width: 0.8; stroke-linejoin: miter; stroke-linecap: square"/>
   </g>
   <g id="legend_1">
    <g id="patch_7">
     <path d="M 21.3 89.053463 
L 109.682812 89.053463 
Q 111.682812 89.053463 111.682812 87.053463 
L 111.682812 44.019088 
Q 111.682812 42.019088 109.682812 42.019088 
L 21.3 42.019088 
Q 19.3 42.019088 19.3 44.019088 
L 19.3 87.053463 
Q 19.3 89.053463 21.3 89.053463 
z
" style="fill: #ffffff; opacity: 0.8; stroke: #cccccc; stroke-linejoin: miter"/>
    </g>
    <g id="line2d_5">
     <path d="M 23.3 50.117526 
L 33.3 50.117526 
L 43.3 50.117526 
" style="fill: none; stroke: #0000ff; stroke-width: 2; stroke-linecap: square"/>
    </g>
    <g id="text_1">
     <!-- Track -->
     <g transform="translate(51.3 53.617526)scale(0.1 -0.1)">
      <defs>
       <path id="DejaVuSans-54" d="M -19 4666 
L 3928 4666 
L 3928 4134 
L 2272 4134 
L 2272 0 
L 1638 0 
L 1638 4134 
L -19 4134 
L -19 4666 
z
" transform="scale(0.015625)"/>
       <path id="DejaVuSans-72" d="M 2631 2963 
Q 2534 3019 2420 3045 
Q 2306 3072 2169 3072 
Q 1681 3072 1420 2755 
Q 1159 2438 1159 1844 
L 1159 0 
L 581 0 
L 581 3500 
L 1159 3500 
L 1159 2956 
Q 1341 3275 1631 3429 
Q 1922 3584 2338 3584 
Q 2397 3584 2469 3576 
Q 2541 3569 2628 3553 
L 2631 2963 
z
" transform="scale(0.015625)"/>
       <path id="DejaVuSans-61" d="M 2194 1759 
Q 1497 1759 1228 1600 
Q 959 1441 959 1056 
Q 959 750 1161 570 
Q 1363 391 1709 391 
Q 2188 391 2477 730 
Q 2766 1069 2766 1631 
L 2766 1759 
L 2194 1759 
z
M 3341 1997 
L 3341 0 
L 2766 0 
L 2766 531 
Q 2569 213 2275 61 
Q 1981 -91 1556 -91 
Q 1019 -91 701 211 
Q 384 513 384 1019 
Q 384 1609 779 1909 
Q 1175 2209 1959 2209 
L 2766 2209 
L 2766 2266 
Q 2766 2663 2505 2880 
Q 2244 3097 1772 3097 
Q 1472 3097 1187 3025 
Q 903 2953 641 2809 
L 641 3341 
Q 956 3463 1253 3523 
Q 1550 3584 1831 3584 
Q 2591 3584 2966 3190 
Q 3341 2797 3341 1997 
z
" transform="scale(0.015625)"/>
       <path id="DejaVuSans-63" d="M 3122 3366 
L 3122 2828 
Q 2878 2963 2633 3030 
Q 2388 3097 2138 3097 
Q 1578 3097 1268 2742 
Q 959 2388 959 1747 
Q 959 1106 1268 751 
Q 1578 397 2138 397 
Q 2388 397 2633 464 
Q 2878 531 3122 666 
L 3122 134 
Q 2881 22 2623 -34 
Q 2366 -91 2075 -91 
Q 1284 -91 818 406 
Q 353 903 353 1747 
Q 353 2603 823 3093 
Q 1294 3584 2113 3584 
Q 2378 3584 2631 3529 
Q 2884 3475 3122 3366 
z
" transform="scale(0.015625)"/>
       <path id="DejaVuSans-6b" d="M 581 4863 
L 1159 4863 
L 1159 1991 
L 2875 3500 
L 3609 3500 
L 1753 1863 
L 3688 0 
L 2938 0 
L 1159 1709 
L 1159 0 
L 581 0 
L 581 4863 
z
" transform="scale(0.015625)"/>
      </defs>
      <use xlink:href="#DejaVuSans-54"/>
      <use xlink:href="#DejaVuSans-72" x="46.333984"/>
      <use xlink:href="#DejaVuSans-61" x="87.447266"/>
      <use xlink:href="#DejaVuSans-63" x="148.726562"/>
      <use xlink:href="#DejaVuSans-6b" x="203.707031"/>
     </g>
    </g>
    <g id="line2d_6">
     <path d="M 23.3 64.795651 
L 33.3 64.795651 
L 43.3 64.795651 
" style="fill: none; stroke: #ff0000; stroke-width: 2; stroke-linecap: square"/>
    </g>
    <g id="text_2">
     <!-- Raceline -->
     <g transform="translate(51.3 68.295651)scale(0.1 -0.1)">
      <defs>
       <path id="DejaVuSans-52" d="M 2841 2188 
Q 3044 2119 3236 1894 
Q 3428 1669 3622 1275 
L 4263 0 
L 3584 0 
L 2988 1197 
Q 2756 1666 2539 1819 
Q 2322 1972 1947 1972 
L 1259 1972 
L 1259 0 
L 628 0 
L 628 4666 
L 2053 4666 
Q 2853 4666 3247 4331 
Q 3641 3997 3641 3322 
Q 3641 2881 3436 2590 
Q 3231 2300 2841 2188 
z
M 1259 4147 
L 1259 2491 
L 2053 2491 
Q 2509 2491 2742 2702 
Q 2975 2913 2975 3322 
Q 2975 3731 2742 3939 
Q 2509 4147 2053 4147 
L 1259 4147 
z
" transform="scale(0.015625)"/>
       <path id="DejaVuSans-65" d="M 3597 1894 
L 3597 1613 
L 953 1613 
Q 991 1019 1311 708 
Q 1631 397 2203 397 
Q 2534 397 2845 478 
Q 3156 559 3463 722 
L 3463 178 
Q 3153 47 2828 -22 
Q 2503 -91 2169 -91 
Q 1331 -91 842 396 
Q 353 884 353 1716 
Q 353 2575 817 3079 
Q 1281 3584 2069 3584 
Q 2775 3584 3186 3129 
Q 3597 2675 3597 1894 
z
M 3022 2063 
Q 3016 2534 2758 2815 
Q 2500 3097 2075 3097 
Q 1594 3097 1305 2825 
Q 1016 2553 972 2059 
L 3022 2063 
z
" transform="scale(0.015625)"/>
       <path id="DejaVuSans-6c" d="M 603 4863 
L 1178 4863 
L 1178 0 
L 603 0 
L 603 4863 
z
" transform="scale(0.015625)"/>
       <path id="DejaVuSans-69" d="M 603 3500 
L 1178 3500 
L 1178 0 
L 603 0 
L 603 3500 
z
M 603 4863 
L 1178 4863 
L 1178 4134 
L 603 4134 
L 603 4863 
z
" transform="scale(0.015625)"/>
       <path id="DejaVuSans-6e" d="M 3513 2113 
L 3513 0 
L 2938 0 
L 2938 2094 
Q 2938 2591 2744 2837 
Q 2550 3084 2163 3084 
Q 1697 3084 1428 2787 
Q 1159 2491 1159 1978 
L 1159 0 
L 581 0 
L 581 3500 
L 1159 3500 
L 1159 2956 
Q 1366 3272 1645 3428 
Q 1925 3584 2291 3584 
Q 2894 3584 3203 3211 
Q 3513 2838 3513 2113 
z
" transform="scale(0.015625)"/>
      </defs>
      <use xlink:href="#DejaVuSans-52"/>
      <use xlink:href="#DejaVuSans-61" x="67.232422"/>
      <use xlink:href="#DejaVuSans-63" x="128.511719"/>
      <use xlink:href="#DejaVuSans-65" x="183.492188"/>
      <use xlink:href="#DejaVuSans-6c" x="245.015625"/>
      <use xlink:href="#DejaVuSans-69" x="272.798828"/>
      <use xlink:href="#DejaVuSans-6e" x="300.582031"/>
      <use xlink:href="#DejaVuSans-65" x="363.960938"/>
     </g>
    </g>
    <g id="line2d_7">
     <path d="M 23.3 79.473776 
L 33.3 79.473776 
L 43.3 79.473776 
" style="fill: none; stroke: #008000; stroke-linecap: square"/>
    </g>
    <g id="text_3">
     <!-- Boundaries -->
     <g transform="translate(51.3 82.973776)scale(0.1 -0.1)">
      <defs>
       <path id="DejaVuSans-42" d="M 1259 2228 
L 1259 519 
L 2272 519 
Q 2781 519 3026 730 
Q 3272 941 3272 1375 
Q 3272 1813 3026 2020 
Q 2781 2228 2272 2228 
L 1259 2228 
z
M 1259 4147 
L 1259 2741 
L 2194 2741 
Q 2656 2741 2882 2914 
Q 3109 3088 3109 3444 
Q 3109 3797 2882 3972 
Q 2656 4147 2194 4147 
L 1259 4147 
z
M 628 4666 
L 2241 4666 
Q 2963 4666 3353 4366 
Q 3744 4066 3744 3513 
Q 3744 3084 3544 2831 
Q 3344 2578 2956 2516 
Q 3422 2416 3680 2098 
Q 3938 1781 3938 1306 
Q 3938 681 3513 340 
Q 3088 0 2303 0 
L 628 0 
L 628 4666 
z
" transform="scale(0.015625)"/>
       <path id="DejaVuSans-6f" d="M 1959 3097 
Q 1497 3097 1228 2736 
Q 959 2375 959 1747 
Q 959 1119 1226 758 
Q 1494 397 1959 397 
Q 2419 397 2687 759 
Q 2956 1122 2956 1747 
Q 2956 2369 2687 2733 
Q 2419 3097 1959 3097 
z
M 1959 3584 
Q 2709 3584 3137 3096 
Q 3566 2609 3566 1747 
Q 3566 888 3137 398 
Q 2709 -91 1959 -91 
Q 1206 -91 779 398 
Q 353 888 353 1747 
Q 353 2609 779 3096 
Q 1206 3584 1959 3584 
z
" transform="scale(0.015625)"/>
       <path id="DejaVuSans-75" d="M 544 1381 
L 544 3500 
L 1119 3500 
L 1119 1403 
Q 1119 906 1312 657 
Q 1506 409 1894 409 
Q 2359 409 2629 706 
Q 2900 1003 2900 1516 
L 2900 3500 
L 3475 3500 
L 3475 0 
L 2900 0 
L 2900 538 
Q 2691 219 2414 64 
Q 2138 -91 1772 -91 
Q 1169 -91 856 284 
Q 544 659 544 1381 
z
M 1991 3584 
L 1991 3584 
z
" transform="scale(0.015625)"/>
       <path id="DejaVuSans-64" d="M 2906 2969 
L 2906 4863 
L 3481 4863 
L 3481 0 
L 2906 0 
L 2906 525 
Q 2725 213 2448 61 
Q 2172 -91 1784 -91 
Q 1150 -91 751 415 
Q 353 922 353 1747 
Q 353 2572 751 3078 
Q 1150 3584 1784 3584 
Q 2172 3584 2448 3432 
Q 2725 3281 2906 2969 
z
M 947 1747 
Q 947 1113 1208 752 
Q 1469 391 1925 391 
Q 2381 391 2643 752 
Q 2906 1113 2906 1747 
Q 2906 2381 2643 2742 
Q 2381 3103 1925 3103 
Q 1469 3103 1208 2742 
Q 947 2381 947 1747 
z
" transform="scale(0.015625)"/>
       <path id="DejaVuSans-73" d="M 2834 3397 
L 2834 2853 
Q 2591 2978 2328 3040 
Q 2066 3103 1784 3103 
Q 1356 3103 1142 2972 
Q 928 2841 928 2578 
Q 928 2378 1081 2264 
Q 1234 2150 1697 2047 
L 1894 2003 
Q 2506 1872 2764 1633 
Q 3022 1394 3022 966 
Q 3022 478 2636 193 
Q 2250 -91 1575 -91 
Q 1294 -91 989 -36 
Q 684 19 347 128 
L 347 722 
Q 666 556 975 473 
Q 1284 391 1588 391 
Q 1994 391 2212 530 
Q 2431 669 2431 922 
Q 2431 1156 2273 1281 
Q 2116 1406 1581 1522 
L 1381 1569 
Q 847 1681 609 1914 
Q 372 2147 372 2553 
Q 372 3047 722 3315 
Q 1072 3584 1716 3584 
Q 2034 3584 2315 3537 
Q 2597 3491 2834 3397 
z
" transform="scale(0.015625)"/>
      </defs>
      <use xlink:href="#DejaVuSans-42"/>
      <use xlink:href="#DejaVuSans-6f" x="68.603516"/>
      <use xlink:href="#DejaVuSans-75" x="129.785156"/>
      <use xlink:href="#DejaVuSans-6e" x="193.164062"/>
      <use xlink:href="#DejaVuSans-64" x="256.542969"/>
      <use xlink:href="#DejaVuSans-61" x="320.019531"/>
      <use xlink:href="#DejaVuSans-72" x="381.298828"/>
      <use xlink:href="#DejaVuSans-69" x="422.412109"/>
      <use xlink:href="#DejaVuSans-65" x="450.195312"/>
      <use xlink:href="#DejaVuSans-73" x="511.71875"/>
     </g>
    </g>
   </g>
  </g>
 </g>
 <defs>
  <clipPath id="p39de5b79f0">
   <rect x="14.3" y="37.019088" width="435.7" height="271.561824"/>
  </clipPath>
 </defs>
</svg>
